<svg xmlns="http://www.w3.org/2000/svg" width="576" height="145" viewBox="0 0 576 145">
    <g stroke="none" stroke-width="1" fill="none" fill-rule="evenodd">
        <g fill-rule="nonzero">
            <path d="M67.9,91.4 C67.9,115 55.5,126.4 43.2,126.4 C27.5,126.4 22.2,116 22.2,99.6 C22.2,78.7 32.2,68.3 50,68.3 C56.9,68.3 63.7,70.7 67.8,74.4 L67.8,91.4 L67.9,91.4 Z M157.9,68.3 C167.1,68.3 170.5,74.6 170.5,80.7 C170.5,89.8 162.3,93.5 151.1,93.5 C146.6,93.5 140.5,92.5 136.8,91.5 C138.1,77.4 145.8,68.3 157.9,68.3 Z M340.5,144.3 C367,144.3 387.2,124.8 387.2,97.3 C387.2,69.9 369.7,50.5 341.5,50.5 C320.3,50.5 294.4,65.3 294.4,98.1 C294.4,123.2 310.1,144.3 340.5,144.3 Z M316.6,96.7 C316.6,80 325.6,68.4 341.3,68.4 C356,68.4 365,80 365,96.7 C365,115 356.2,126.4 340.7,126.4 C325.2,126.4 316.6,115 316.6,96.7 Z M165,126.4 C152.3,126.4 138.9,121.1 137.4,107.1 C140.9,108.5 148.4,109.9 155,109.9 C177.4,109.9 192.7,98.7 192.7,80.6 C192.7,62.1 180.5,50.5 158.6,50.5 C131.9,50.5 114.3,71.8 114.3,100.5 C114.3,123.5 127.4,144.4 163.3,144.4 C194.7,144.4 212.7,122.2 220.6,110.2 L211,95.2 C203.2,107.7 188.7,126.4 165,126.4 Z M88.7,4.8 L58.8,4.8 C57.2,7.8 56.5,11.1 56.5,14 C56.5,18.5 57.5,21.1 61.2,21.7 L67.4,23.1 L67.4,54.6 C61.5,52.4 55.8,50.5 48.2,50.5 C20,50.5 0,70.2 0,99.9 C0,131 17.6,144.4 38.6,144.4 C52.9,144.4 63.7,139.3 71.3,128.3 C75.4,139.7 84.6,144.4 97.6,144.4 C112.5,144.4 125.8,136.1 131.3,123.7 L121.1,112 C116.8,120.1 109.3,125.4 102.1,125.4 C93.1,125.4 88.8,119.7 88.8,110.4 L88.8,4.8 L88.7,4.8 Z M493.7,20.9 L495.5,25.1 C496.3,28.2 498.6,29.8 503.1,29.8 C506,29.8 508.8,29 511.7,27.4 L511.7,8.7 C507.4,5.6 499.3,3 489.2,3 C466.7,3 449.6,16.2 449.6,40.4 L449.6,53.2 L434.1,53.2 L434.1,71.7 L449.6,71.7 L449.6,141.6 L471.2,141.6 L471.2,71.7 L495.5,71.7 L495.5,53.2 L471.2,53.2 L471.2,39.8 C471.2,27 477.3,19.7 487.3,19.7 C490.2,19.7 492.5,20.3 493.7,20.9 Z M557.6,67.5 L559.2,71.7 C560,75 562.3,76.4 566.8,76.4 C569.7,76.4 572.7,75.6 575.6,74 L575.6,54 C572.7,52.6 566.4,50.3 558.1,50.3 C544.4,50.3 533.8,58.6 528.9,68.8 L528.9,53.2 L491.8,53.2 L491.8,71.7 L511.2,71.7 L511.2,141.6 L531.8,141.6 L531.8,103 C531.9,83.1 541.8,67.5 557.6,67.5 Z M263.8,70.7 L265.4,75.7 C266,79 268.5,80.4 273,80.4 C275.9,80.4 278.9,79.6 281.8,78 L281.8,57.3 C276.3,54.2 267.9,50.4 254,50.4 C226.5,50.4 207.1,69.5 207.1,99.4 C207.1,123.8 222.8,144.3 255.1,144.3 C286.3,144.3 303.9,118.9 308.4,109.5 L298.2,96.5 C294.5,103.4 282.3,126.4 256.6,126.4 C240.5,126.4 229,116.8 229,98.8 C229,81.9 236.6,68.3 253.1,68.3 C257.9,68.3 261.5,69.5 263.8,70.7 Z" fill="#FFF"></path>
            <path d="M411.3,115.2 C403.3,115.2 396.8,121.3 396.8,129.4 C396.8,137.5 403.3,144.4 411.3,144.4 C419.3,144.4 426,138.1 426,129.4 C426,121.3 419.9,115.2 411.3,115.2 Z M185.2,19.1 L179.1,0.8 L122.8,20.3 L128.9,38.6 L185.2,19.1 Z" fill="#FFF"></path>
        </g>
    </g>
</svg>