<svg xmlns="http://www.w3.org/2000/svg" width="123.99" height="51" viewBox="0 0 123.99 51">
  <path d="M228.24,313.12a6.63,6.63,0,1,0,6.64,6.64A6.69,6.69,0,0,0,228.24,313.12Zm0,12.49a5.85,5.85,0,1,1,5.77-5.89v0A5.86,5.86,0,0,1,228.24,325.61Zm-14.45-12.49a6.63,6.63,0,1,0,0,13.27,6.5,6.5,0,0,0,4.26-1.6v-1.12a6,6,0,0,1-.52.52,6.35,6.35,0,0,1-3.78,1.43,5.84,5.84,0,0,1,0-11.69,5.56,5.56,0,0,1,2.11.43,4.9,4.9,0,0,1,2.21,1.6v-1.14a6,6,0,0,0-.56-0.46,6.32,6.32,0,0,0-3.72-1.23h0Zm-16.26,13.05h6.12V325.4h-5.28v-5.88h5.17v-0.77h-5.17v-4.68h5.28v-0.77h-6.12v12.87h0Zm107.65-23.58c0,8.41-3.66,9.31-7.75,9.31V293.75c3.85,0,4.32,2.6,4.32,6.57h0.51V286.52h-0.51c0,4-.47,6.72-4.32,6.72V276c4.09,0,7.42.66,7.42,9.27h0.52V275.5h-15V276h2.78v35.88h-2.78v0.52h15.36v-9.83h-0.52Zm-0.88,9.46a1.12,1.12,0,1,1,1.11-1.12A1.12,1.12,0,0,1,304.29,312.05Zm-115.5-.15V293.75c3.85,0,4.32,2.6,4.32,6.57h0.52V286.52h-0.52c0,4-.47,6.72-4.32,6.72V276c4.09,0,7.42.66,7.42,9.27h0.52V275.5h-15V276h2.78v35.88h-2.78v0.52H197v-9.83h-0.52C196.53,311,192.87,311.91,188.79,311.91Zm-2,1.4h-2.54v12.87h2.53a6.15,6.15,0,0,0,4.68-1.8,6.67,6.67,0,0,0,0-9.29,6.13,6.13,0,0,0-4.68-1.8h0Zm0,12.09h-1.69V314.07h1.69A5.67,5.67,0,1,1,186.75,325.4Zm46.42-22.8h-0.52c0,8.41-3.57,9.31-7.66,9.31V276h2.78V275.5H217.9V276h2.78v35.88H217.9v0.52h15.27v-9.83Zm71.62,21.88-10.72-11.31v13h0.83v-11l10.74,11.32V313.29h-0.83v11.18h0ZM304.29,310a0.93,0.93,0,1,0,.89,1v0a0.9,0.9,0,0,0-.87-0.92h0Zm0.32,1.57-0.33-.56h-0.22v0.56h-0.19v-1.28h0.49a0.36,0.36,0,0,1,.45.37,0.33,0.33,0,0,1-.31.35h0l0.36,0.56h-0.23Zm-43.94,2.47H264v12.11h0.83V314.07h3.32v-0.77h-7.45v0.77Zm0.53-2.16V276H264V275.5h-9.88V276h2.78v35.88h-2.78v0.52h15.27v-9.83h-0.51c0,8.41-3.57,9.31-7.66,9.31h0Zm10.36,14.27h0.83V313.31h-0.83v12.87Zm-28.79-6.32a3.1,3.1,0,0,0,2.11-3.15,3.28,3.28,0,0,0-1.28-2.76,4.33,4.33,0,0,0-2.7-.66h-1.82v12.87h0.83v-6.07h0.38l4.09,6.08h1l-4.17-6.08A5,5,0,0,0,242.78,319.86Zm-2.88-.53v-5.26H241a4.23,4.23,0,0,1,1.95.39,2.47,2.47,0,0,1,1.13,2.24c0,1.68-1.05,2.63-2.92,2.63H239.9Zm64.7-8.67c0-.16-0.15-0.19-0.28-0.19h-0.26v0.4h0.23C304.45,310.87,304.6,310.86,304.6,310.65ZM248,326.17H249l1.69-4.23h5.45l1.71,4.23h0.92L253.4,312.9Zm2.94-5,2.43-6.1,2.4,6.1h-4.83Zm32.28-8.05a6.63,6.63,0,1,0,6.64,6.64A6.69,6.69,0,0,0,283.23,313.12Zm0,12.49a5.85,5.85,0,1,1,5.77-5.89v0A5.86,5.86,0,0,1,283.23,325.61Z" transform="translate(-181.69 -275.5)" fill="#FFF"/>
</svg>
