<svg xmlns="http://www.w3.org/2000/svg" width="425.2" height="100.8" viewBox="0 0 425.2 100.8">
	<g>
		<path fill="#FFF" d="M408.2,92.7V24.5h-14.8v42l-32-42h-13.8v68.2h14.8V49.4l33,43.4H408.2z M320,58.8c0,11.7-8.4,21.2-20.5,21.2
			s-20.7-9.7-20.7-21.4v-0.2c0-11.7,8.4-21.2,20.5-21.2S320,46.9,320,58.6L320,58.8L320,58.8z M335.7,58.6v-0.2
			c0-19.4-15.1-35.1-36.1-35.1s-36.3,15.9-36.3,35.3v0.2c0,19.4,15.1,35.1,36.1,35.1S335.7,78,335.7,58.6 M255.7,72.6v-0.2
			c0-11.9-7.8-16.9-21.6-20.5c-11.8-3-14.7-4.5-14.7-9v-0.2c0-3.3,3-5.9,8.8-5.9s11.7,2.5,17.7,6.7l7.8-11.3
			c-6.9-5.6-15.4-8.7-25.3-8.7c-13.9,0-23.9,8.2-23.9,20.6v0.2c0,13.5,8.9,17.3,22.6,20.8c11.4,2.9,13.7,4.9,13.7,8.7V74
			c0,4-3.7,6.4-9.8,6.4c-7.8,0-14.2-3.2-20.4-8.3l-8.9,10.6c8.2,7.3,18.6,10.9,28.9,10.9C245.4,93.7,255.7,86.1,255.7,72.6
			M189.1,24.5h-15v68.2h15V24.5z M138,64.2h-18.1l9.1-22.1L138,64.2z M165.3,92.7l-29.2-68.7h-13.8L93,92.7h15.3l6.2-15.3h28.8
			l6.2,15.3H165.3z M84.5,92.7V24.5H68.4L50.4,53.4L32.5,24.5H16.3v68.2H31V48.5l19,28.8h0.4l19.2-29.1v44.5L84.5,92.7L84.5,92.7z"/>
		<path fill="#FFF" d="M406,14.8c0,0.9-0.3,1.8-0.9,2.4c-0.6,0.6-1.4,0.9-2.2,0.9c-1.5,0-2.1-0.9-2.1-1.8c0-1.4,1.3-1.9,2.4-1.9l2.9-0.2V14.8z
			M408.9,19.2v-1.3c0,0-0.3,0.1-0.5,0.1c-0.4,0-0.6-0.2-0.6-0.7v-5.2c0-0.6-0.1-1.2-0.3-1.7c-0.5-1.2-1.7-2.1-3.8-2.1
			c-1.3,0-2.6,0.4-3.3,1.1c-0.5,0.6-0.9,1.3-0.9,2.2h1.8c0-0.5,0.2-0.9,0.5-1.3c0.4-0.4,1-0.6,2-0.6c0.9,0,1.4,0.2,1.8,0.6
			c0.5,0.4,0.5,1.1,0.5,1.6v0.8l-3.3,0.2c-2.9,0.2-3.8,2-3.8,3.3c0,1.7,1.2,3.3,3.7,3.3c1.5,0,2.8-0.7,3.5-1.8h0
			c0,0.9,0.6,1.6,1.5,1.6C408.1,19.5,408.5,19.4,408.9,19.2 M395.7,19.3v-1.5c0,0-0.1,0-0.7,0c-0.7,0-1-0.4-1-1.1V4.1h-1.8v12.8
			c0,1.7,0.7,2.6,2.2,2.6C395.3,19.5,395.7,19.3,395.7,19.3 M380,13h-5.7c0-1.6,1-3.2,2.9-3.2c1,0,1.7,0.4,2.1,1
			C379.8,11.4,380,12.2,380,13 M381.9,13.5c0-1.4-0.5-2.8-1.4-3.8c-0.8-0.8-1.9-1.4-3.3-1.4c-1.9,0-3.3,0.9-4,2.2
			c-0.6,1-0.8,2.1-0.8,3.4c0,1.5,0.4,2.9,1.3,4c0.8,1,2,1.6,3.6,1.6c1,0,2-0.3,2.7-0.8c0.9-0.6,1.5-1.6,1.6-2.7h-1.8
			c-0.1,0.6-0.3,0.9-0.6,1.2c-0.4,0.5-1.1,0.7-2,0.7c-0.8,0-1.5-0.3-2-0.8c-0.7-0.7-1-1.7-1-2.7h7.6L381.9,13.5z M366.4,14
			c0,1.3-0.3,2.6-1.2,3.4c-0.4,0.4-1,0.7-1.7,0.7c-2.4,0-3-2.1-3-4.1s0.6-4.1,3-4.1c0.8,0,1.3,0.3,1.7,0.7
			C366.1,11.4,366.4,12.7,366.4,14 M368.1,19.3V4.1h-1.8v5.8c-0.6-1-2-1.5-3.1-1.5c-1.2,0-2.2,0.4-2.9,1.1c-1.1,1-1.6,2.7-1.6,4.6
			c0,1.8,0.5,3.4,1.5,4.4c0.7,0.7,1.7,1.2,3,1.2c1.2,0,2.6-0.6,3.2-1.7l0.1,1.4L368.1,19.3L368.1,19.3z M349.4,19.3v-1.5
			c0,0-0.1,0-0.7,0c-0.7,0-1-0.4-1-1.1V4.1h-1.8v12.8c0,1.7,0.7,2.6,2.2,2.6C349,19.5,349.4,19.3,349.4,19.3 M339.2,14.8
			c0,0.9-0.3,1.8-0.9,2.4c-0.6,0.6-1.4,0.9-2.2,0.9c-1.5,0-2.1-0.9-2.1-1.8c0-1.4,1.3-1.9,2.4-1.9l2.9-0.2V14.8z M342,19.2v-1.3
			c0,0-0.3,0.1-0.5,0.1c-0.4,0-0.6-0.2-0.6-0.7v-5.2c0-0.6-0.1-1.2-0.3-1.7c-0.5-1.2-1.7-2.1-3.8-2.1c-1.3,0-2.6,0.4-3.3,1.1
			c-0.5,0.6-0.9,1.3-0.9,2.2h1.8c0-0.5,0.2-0.9,0.5-1.3c0.4-0.4,1-0.6,2-0.6c0.9,0,1.4,0.2,1.8,0.6c0.5,0.4,0.5,1.1,0.5,1.6v0.8
			l-3.3,0.2c-2.9,0.2-3.8,2-3.8,3.3c0,1.7,1.2,3.3,3.7,3.3c1.5,0,2.8-0.7,3.5-1.8h0c0,0.9,0.6,1.6,1.5,1.6
			C341.3,19.5,341.6,19.4,342,19.2 M328.1,19.3v-7.1c0-2.5-1.3-3.9-3.7-3.9c-1.2,0-2.7,0.7-3.2,1.9L321,8.6h-1.6v10.7h1.8v-5
			c0-0.8,0-1.9,0.4-2.7c0.5-1,1.3-1.7,2.3-1.7c1.7,0,2.4,0.9,2.4,2.6v6.8C326.3,19.3,328.1,19.3,328.1,19.3z M315.8,10.4V8.6
			c-0.3,0-0.6-0.1-0.9-0.1c-1.4,0-2.6,0.6-3.2,1.9l-0.1-1.9H310v10.7h1.8v-4.8c0-1.1,0.1-2.6,1-3.4c0.5-0.5,1.2-0.8,2-0.8
			C315.1,10.3,315.5,10.3,315.8,10.4 M305.1,19.3V8.6h-1.8v5.6c0,1.1-0.2,2.3-0.9,3c-0.5,0.5-1.1,0.8-1.8,0.8c-1.7,0-2.3-0.9-2.3-2.6
			V8.6h-1.8v7c0,2.5,1.2,3.9,3.7,3.9c1.2,0,2.6-0.7,3.2-1.9l0.1,1.6C303.5,19.3,305.1,19.3,305.1,19.3z M290.5,14
			c0,1.2-0.2,2.5-1,3.3c-0.4,0.4-1.1,0.8-1.9,0.8s-1.5-0.3-1.9-0.8c-0.8-0.8-1-2.1-1-3.3s0.2-2.5,1-3.3c0.4-0.4,1.1-0.8,1.9-0.8
			s1.5,0.3,1.9,0.8C290.3,11.4,290.5,12.7,290.5,14 M292.4,14c0-1.7-0.4-3.2-1.5-4.4c-0.8-0.8-1.9-1.2-3.2-1.2s-2.5,0.5-3.2,1.2
			c-1.2,1.1-1.5,2.7-1.5,4.4c0,1.7,0.4,3.2,1.5,4.4c0.8,0.8,1.9,1.2,3.2,1.2s2.5-0.5,3.2-1.2C292,17.2,292.4,15.7,292.4,14
			M278.6,20.8V8.6h-1.8v12.2c0,0.7-0.4,1.4-1.2,1.4c-0.4,0-0.9,0-1.3-0.1v1.6c0.5,0.2,0.9,0.2,1.4,0.2
			C277.7,23.9,278.6,22.7,278.6,20.8 M278.7,4.1h-2.1v2.1h2.1V4.1z M264.3,13h-5.7c0-1.6,1-3.2,2.9-3.2c1,0,1.7,0.4,2.1,1
			C264.1,11.4,264.3,12.2,264.3,13 M266.2,13.5c0-1.4-0.5-2.8-1.4-3.8c-0.8-0.8-1.9-1.4-3.3-1.4c-1.9,0-3.3,0.9-4,2.2
			c-0.6,1-0.8,2.1-0.8,3.4c0,1.5,0.5,2.9,1.3,4c0.8,1,2.1,1.6,3.6,1.6c1,0,2-0.3,2.7-0.8c0.9-0.6,1.5-1.6,1.6-2.7h-1.8
			c-0.1,0.6-0.3,0.9-0.6,1.2c-0.4,0.5-1.1,0.7-2,0.7c-0.8,0-1.5-0.3-2-0.8c-0.7-0.7-1-1.7-1-2.7h7.6L266.2,13.5z M253.8,19.3v-1.5
			c0,0-0.1,0-0.7,0c-0.7,0-1-0.4-1-1.1V4.1h-1.8v12.8c0,1.7,0.7,2.6,2.2,2.6C253.3,19.5,253.8,19.3,253.8,19.3"/>
	</g>
</svg>
