<svg xmlns="http://www.w3.org/2000/svg" viewBox="0 0 524.1 160.7" style="enable-background:new 0 0 524.1 160.7" xml:space="preserve"><path d="M131.22 125.919c0 .3 0 .3-.2.6-.5 9.1-6.2 15.6-14.8 16.4-7 .5-12.1-2-16.4-4.1-13.2-6.7-23.9-18.8-31.5-29.2 18-4.4 34.2-11.8 47.6-22.4 11.4-9.2 26.4-24.2 27.7-42.4 2.6-33.2-18.7-46.8-51.9-44.6-26.1 1.8-50.6 12.3-69.8 23-6.5 3.8-14.5 7.6-18.8 12.3-2 2.3-3.9 5.8-2.7 9.8 3.9 4.8 14.2 1.5 19.1.8-3.3 13.5-6.1 30.3-7.4 50.1-1.2 15.9-2.9 42.4 3 53.3 1.2 2.4 4.2 6.1 7.4 5.9 6.4-.5 7.4-11.5 8.2-18.3.9-8.9 1.8-16.2 2.7-24.2 8.5 8.6 18.2 18.9 29.2 27.9 9.7 8 22.6 18.5 37.6 19.7 17.3 1.5 30.6-6.5 35.7-18.6.6-1.4 1.2-2.3 1.5-3.9.9-4.9.3-12.4-6.2-12.1zm-95.1-28.9c2.7-23.3 7.4-45 15.6-62.9 9.5-2.1 20.3-5 32-5.8 13.2-.8 27 1.8 27.7 13.3.5 3.9-.6 8.9-2 12.9-9.2 26.5-43.9 37.1-73.3 42.5z" fill="#FFF"/><path d="M204.62 140.619c-5.9-.9-6.8-9.7-6.4-18.3.5-14.5 3-25.1 5.3-39.4.9-5.3 3.9-16.4 0-18.3-3.6-1.8-8.9 1.1-11.2 2.4-10.5 6.4-15.9 23.5-17.6 39.1-.6 5.8 0 11.5-.8 17.6-.8 7.1-6.4 16.8-13.9 15.6-4.8-.8-6.4-8-6.7-15.1-.8-16.1 1.2-27.3 3.3-40.7.8-4.7 3.9-16.1 0-18.5-4.8-2.9-13.6 4.8-16.4 8.2-7.7 10-12.3 30-11.2 47.6.2 1.7.8 3.5.8 5.3.8 6.1 1.4 10 4.8 16.2 2.4 3.5 4.8 7.3 8.8 9.1 12.3 5.6 28-1.8 32.6-10.1 1.7 2.9 3.2 5.3 5.5 7.4 10.3 9.5 30.6 2.6 37-6.7-.8-2.7-1.7-5.8-2.9-8.2-3 4-5.1 7.7-11 6.8z" fill="#FFF"/><path d="M291.72 76.319c2.1-.6 3.8-2.3 4.4-3.8 1.7-3.3 4.4-16.4-.6-17v.2c-28.8 3.8-55.9 6.8-74.7 21.1-4.8 3.5-13.6 11.5-11.7 20.3 1.5 6.7 14.5 7.1 22.1 9.2 7.6 2 15.9 6.1 20.8 10.1 2.9 2.3 5.9 5.8 6.8 9.8 1.2 6.1-2.7 12-8.2 12.3-8.9.3-14.4-7.9-17-14.4-1.4-3-1.7-7.9-3.8-8.8-6.2-2.4-17.6 10.8-14.8 18.6-.2.2.2.2.2.3 1.2 2.4 2 4.7 2.7 7.4 0-.2 0 .2.2.2 4.1 7 11.8 12.1 21.1 12.9 20.6 2 38.5-11.7 36.4-34.2-2-20.3-19.5-27.4-35.7-35 13-6.8 33.5-6.2 50.6-8.8.2-.1.8-.1 1.2-.4z" fill="#FFF"/><path d="M333.02 124.719c-1.8 6.8-8.9 17.7-16.4 16.5-8.9-1.7-8.5-21.7-7.7-32.7.9-13.6 2.3-25.1 4.4-36.7 12-3 23.5-7.9 30.9-15.3 2.4-2.4 5.9-5.5 5.5-9.4-3.9-1.5-10.3 2-15.8 3.3-5.5 1.4-11.2 2.6-17 2.7 1.5-5.9 2.7-12 4.5-17.7 1.5-5.5 5.3-11.1 3-17-5.8-.2-10.5 3.3-13.6 6.5-7.4 7.4-11.2 19.5-15.3 30.1-2.9 9.4-3.3 12.9-3.8 14.8-.2.9-.6 4.5-.9 6.2-3.8 21.8-11.1 65 8.5 74.4 15 7.3 30.7-3.9 36.7-14.2v.2c4.4-7.6.6-19.7-3-11.7z" fill="#FFF"/><path d="M369.12 45.119c4.1-5.3 12.4-28-1.1-26.8-9.8.9-16.5 13.5-14.2 26.2 1.7 9 11.3 6 15.3.6zm-6 99c-12.4-13.3-8.9-41.2-4.7-59.8 1.5-6.5 4.5-13 2.7-19.7-20.6.6-27 20.3-28.2 40.7-.3 5.6 1.1 11.7.3 17.7-.2.6-.2 1.2-.3 1.8 0 5.9 1.1 7 3 11.8 3.5 7.6 8.9 12.7 18 15.1 3.3.9 16.2 2.9 15.9-1.7 0-2.1-5-4.1-6.7-5.9z" fill="#FFF"/><path d="M437.42 119.419c-.6-3.2-5.1-9.1-6.8-3.2-1.4 5-3 9.7-6.4 13.6-6.2 7.7-19.4 12-26.1 3-9.7-12.7-7.3-43.5 3-52.9 2.6-2.4 8.2-5.5 12.9-3.8 6.7 2.6.9 16.1 5.1 22.4 7.6 1.4 11.2-4.2 11.5-10.5.8-14.4-12.1-26.4-28.2-24.8-8.8.8-17 5.1-22.4 10.5-16.2 15.9-19.4 52.9-2.1 70 4.8 4.7 12.1 8.8 20.1 9.5 20 1.8 27.3-10.5 36.2-22.4.5-1.2 1.2-2.3 1.5-3.5 1.3-2.4 2.2-5 1.7-7.9z" fill="#FFF"/><path d="M509.32 139.919c-3.6-3.9-3-11.4-2.7-18.3.6-14.2 2.6-25.6 5-38.5 2-9.5 4.1-21.1-8.8-17.9-5.5 1.2-10 7-13.6 8.8-1.7-8.9-13.9-11.8-22.4-9.5-12.7 3.5-22.3 13.3-28.5 25.1-4.4 8.5-5.3 17.7-7.6 26.2-.3 3.2 1.1 7.7 2.3 10.3.6 1.8.6 1.2 1.5 4.2 2.4 15.4 24.2 29.2 41.2 19.1 3.8-2.3 5.3-6.1 8.8-9.2 4.2 5.9 7.9 12.1 17 12.6 11.4.6 21.1-6.7 22.7-17-5.7-.6-8.9 4.1-14.9 4.1zm-28.7-25.2c-1.7 12.1-6.2 30.4-17 27.9-9.2-2.3-6.7-27.3-5-37.7 1.5-11.1 6.1-29.4 16.5-29.8 10.2-.5 6.8 30.7 5.5 39.6z" fill="#FFF"/></svg>