<svg width="778" height="218" viewBox="0 0 778 218" fill="none" xmlns="http://www.w3.org/2000/svg"><path d="M773 5H5V213H773V5Z" stroke="#FFF" stroke-width="10"></path><path d="M213 5H5V213H213V5Z" stroke="#FFF" stroke-width="10"></path><path d="M324.9 143H334.9L312.9 74.1H300.9L278.8 143H288.4L293.6 125.7H319.7L324.9 143ZM295.9 118L306.7 82L317.4 118H295.9ZM359.924 74.1H345.524V143H362.024C376.924 143 394.424 136.3 394.424 108.2C394.424 79.6 377.524 74.1 359.924 74.1ZM362.024 81.7C373.024 81.7 384.324 84.9 384.324 108.2C384.324 130.9 373.524 135.5 362.724 135.5H355.024V81.7H362.024ZM458.18 74.1H449.28V111.7C449.28 120.1 450.38 131.1 450.58 132.7L422.28 74.1H409.88V143H418.78V111.4C418.78 98.6 417.98 90.2 417.48 84.5L445.48 143H458.18V74.1ZM528.706 72.9C513.106 72.9 500.106 85.2 500.106 108.5C500.106 131.7 512.206 144.2 528.906 144.2C538.206 144.2 544.806 140.4 548.606 136.5L543.906 130.5C540.006 133.4 535.706 136.2 529.206 136.2C518.506 136.2 510.206 128.4 510.206 108.5C510.206 87.7 518.906 80.7 529.306 80.7C534.106 80.7 538.306 82.3 542.606 85.8L547.806 79.7C542.306 75.3 537.406 72.9 528.706 72.9ZM570.063 74.1H560.563V143H597.263L598.363 134.7H570.063V74.1ZM619.868 74.1H610.368V143H619.868V74.1ZM695.76 74.1H682.86L669.06 124.2L654.56 74.1H641.76L636.06 143H645.06L647.36 112.6C648.16 102.5 648.66 91.8 648.66 83.7L664.36 135.2H673.26L688.16 83.8C688.26 89.5 688.96 101.1 689.86 111.9L692.26 143H701.46L695.76 74.1Z" fill="#FFF"></path><path d="M136.456 124.359C135.137 116.549 132.146 109.415 129.171 102.943C120.23 83.1871 109.465 65.2454 98.8679 48.6416L97.549 46.3201C95.7241 43.4913 93.577 42 91.0927 42C87.4428 42 85.1271 45.3207 84.4676 46.3201C84.4676 46.3201 84.4676 46.3201 84.4676 46.4893L82.1519 50.1483C78.0113 56.7899 73.7019 63.7696 69.5613 70.734C63.105 81.6958 54.9924 96.3011 49.0269 111.906C47.0332 117.056 45.2236 122.206 45.0549 127.848C44.3955 142.454 49.6862 154.753 60.6205 164.377C69.0705 171.849 79.8362 176 90.9239 176C107.149 176 121.902 167.698 130.337 153.585C135.965 144.283 138.112 134.321 136.456 124.359ZM125.03 150.433C117.746 162.717 104.987 169.85 90.9085 169.85C81.3084 169.85 71.8616 166.36 64.5772 159.888C55.1304 151.586 50.499 140.794 50.9898 128.171C51.1586 123.529 52.6461 119.039 54.6397 114.227C60.4366 98.9454 68.3804 84.6783 74.6835 73.8857C78.6555 67.0751 82.9647 60.1106 87.2741 53.469L89.421 49.9791C89.421 49.8099 89.5898 49.8099 89.5898 49.6409C89.9271 49.1489 90.5865 48.3186 90.9087 48.1496C90.9087 48.1496 91.3995 48.3188 92.2276 49.6409L93.5466 51.7932C103.821 68.0589 114.587 85.8312 123.359 105.264C126.181 111.567 128.987 118.209 130.153 125.189C131.824 133.829 129.999 142.285 125.03 150.433ZM93.8838 154.077C93.8838 155.737 92.5648 157.059 90.9087 157.059C75.8336 157.059 63.7492 144.775 63.7492 129.832C63.7492 128.171 65.0681 126.849 66.7243 126.849C68.3806 126.849 69.6994 128.171 69.6994 129.832C69.868 141.455 79.3149 150.925 90.9085 150.925C92.5648 150.925 93.8838 152.416 93.8838 154.077Z" fill="#FFF"></path><path d="M170.393 136.621L162.27 139.618L156.736 136.422L161.209 134.772C162.421 134.324 163.041 132.979 162.594 131.767C162.146 130.555 160.801 129.935 159.589 130.383L151.467 133.38L146.623 130.583V125.262L151.466 122.466L159.59 125.464C159.857 125.563 160.131 125.61 160.4 125.61C161.351 125.61 162.246 125.024 162.595 124.08C163.042 122.868 162.422 121.522 161.21 121.075L156.735 119.424L162.27 116.228L170.395 119.227C170.662 119.325 170.935 119.372 171.204 119.372C172.156 119.372 173.05 118.787 173.399 117.842C173.846 116.63 173.226 115.285 172.014 114.838L167.54 113.186L171.054 111.158C172.173 110.512 172.556 109.081 171.91 107.963C171.264 106.844 169.834 106.46 168.715 107.106L165.201 109.135L166.008 104.435C166.227 103.161 165.372 101.952 164.099 101.733C162.826 101.515 161.616 102.37 161.397 103.643L159.932 112.177L154.397 115.372L155.204 110.673C155.423 109.399 154.568 108.19 153.295 107.971C152.022 107.753 150.812 108.608 150.593 109.881L149.128 118.414L144.283 121.211L139.675 118.55L139.675 112.958L146.334 107.421C147.328 106.595 147.463 105.12 146.637 104.127C145.811 103.134 144.336 102.998 143.343 103.824L139.676 106.873L139.676 100.482L146.334 94.9453C147.328 94.1193 147.463 92.6445 146.637 91.6511C145.811 90.6578 144.336 90.5223 143.343 91.3481L139.676 94.3973V90.3392C139.676 89.0473 138.629 88 137.337 88C136.045 88 134.998 89.0473 134.998 90.3392L134.997 94.3966L131.331 91.3475C130.337 90.5215 128.863 90.6572 128.037 91.6505C127.211 92.6439 127.346 94.1187 128.34 94.9447L134.997 100.481L134.997 106.872L131.331 103.823C130.337 102.997 128.862 103.133 128.036 104.126C127.211 105.12 127.346 106.594 128.339 107.42L134.997 112.956L134.996 118.551L130.39 121.211L125.545 118.414L124.079 109.879C123.861 108.605 122.651 107.751 121.378 107.969C120.105 108.188 119.25 109.397 119.469 110.671L120.276 115.371L114.741 112.175L113.275 103.641C113.057 102.368 111.847 101.513 110.574 101.731C109.301 101.95 108.446 103.159 108.664 104.433L109.472 109.133L105.958 107.104C104.839 106.458 103.408 106.841 102.762 107.96C102.116 109.079 102.5 110.51 103.618 111.156L107.132 113.185L102.658 114.836C101.446 115.283 100.826 116.628 101.274 117.84C101.622 118.785 102.517 119.37 103.468 119.37C103.737 119.37 104.011 119.323 104.278 119.225L112.401 116.227L117.936 119.423L113.463 121.074C112.251 121.521 111.631 122.866 112.078 124.078C112.427 125.023 113.321 125.608 114.273 125.608C114.542 125.608 114.815 125.561 115.082 125.463L123.205 122.465L128.052 125.264V130.582L123.206 133.379L115.081 130.381C113.869 129.934 112.524 130.554 112.077 131.766C111.63 132.978 112.25 134.323 113.462 134.77L117.936 136.421L112.401 139.617L104.277 136.619C103.065 136.171 101.72 136.791 101.273 138.003C100.825 139.215 101.445 140.56 102.657 141.008L107.131 142.659L103.618 144.687C102.499 145.333 102.115 146.764 102.761 147.883C103.194 148.633 103.981 149.053 104.789 149.053C105.186 149.053 105.588 148.952 105.957 148.739L109.47 146.71L108.663 151.41C108.445 152.684 109.3 153.893 110.573 154.112C110.707 154.135 110.84 154.146 110.972 154.146C112.09 154.146 113.079 153.341 113.274 152.202L114.74 143.668L120.275 140.473L119.468 145.173C119.249 146.446 120.104 147.655 121.377 147.874C121.511 147.897 121.644 147.908 121.776 147.908C122.894 147.908 123.883 147.104 124.079 145.964L125.544 137.431L130.39 134.634L134.997 137.294L134.997 142.888L128.338 148.425C127.344 149.251 127.209 150.725 128.035 151.719C128.861 152.712 130.336 152.848 131.329 152.022L134.996 148.972L134.996 155.364L128.337 160.9C127.344 161.726 127.208 163.201 128.034 164.195C128.86 165.188 130.335 165.324 131.329 164.498L134.996 161.448L134.995 165.506C134.995 166.798 136.043 167.845 137.335 167.845C138.626 167.845 139.674 166.798 139.674 165.506L139.674 161.449L143.341 164.498C143.778 164.861 144.308 165.038 144.835 165.038C145.506 165.038 146.172 164.751 146.635 164.195C147.461 163.201 147.325 161.726 146.332 160.9L139.674 155.364L139.674 148.973L143.341 152.022C143.778 152.385 144.308 152.562 144.835 152.562C145.506 152.562 146.172 152.275 146.635 151.719C147.461 150.725 147.325 149.251 146.332 148.425L139.675 142.889L139.675 137.296L144.283 134.635L149.126 137.431L150.592 145.966C150.788 147.106 151.776 147.91 152.895 147.91C153.026 147.91 153.159 147.899 153.293 147.876C154.567 147.657 155.422 146.448 155.203 145.174L154.396 140.473L159.931 143.669L161.396 152.204C161.592 153.343 162.581 154.148 163.699 154.148C163.83 154.148 163.964 154.136 164.098 154.113C165.371 153.895 166.226 152.685 166.007 151.412L165.2 146.712L168.714 148.741C169.082 148.953 169.484 149.054 169.881 149.054C170.69 149.054 171.476 148.635 171.909 147.884C172.555 146.766 172.172 145.335 171.053 144.689L167.539 142.66L172.013 141.009C173.225 140.562 173.845 139.217 173.398 138.005C172.951 136.793 171.605 136.173 170.393 136.621Z" fill="#FFF"></path></svg>