<svg enable-background="new 0 0 2027 1186" viewBox="0 0 2027 1186" xmlns="http://www.w3.org/2000/svg"><path d="m999.6 170.8c12.3-1.4 24.7.1 37 .1 92.6 3.6 184.1 30.8 263.9 77.9 65.8 38.6 123.8 90.3 170.2 150.8.3.5.8 1.5 1 2-283 0-566.1 0-849.1 0-22.7 0-45.4.1-68.1-.1 6.2-9.2 13.8-17.5 20.8-26.2 35.9-41.9 77.4-79 123.3-109.5 68.1-45.4 146-76.1 226.9-88.7 24.6-3.6 49.3-6.1 74.1-6.3z" fill="#fff" stroke="#fff" stroke-miterlimit="10" stroke-width="2"/><path d="m555.6 784.3c305.7.2 611.3-.1 917 .1-45.8 60.7-103.7 112.3-169 151.3-72.4 43.2-154.5 70.1-238.5 77.5-21.4 1.8-42.9 2.9-64.4 2.2-40-1.1-80-6.1-118.9-15.5-78.7-18.8-153-54.9-216.8-104.4-39.4-30.5-75-65.9-105.6-105.2-1.4-1.9-3.5-3.5-3.8-6z" fill="#fff" stroke="#fff" stroke-miterlimit="10" stroke-width="2"/><path d="m.4 427.9h2026.3v330c-675.4 0-1350.8 0-2026.2 0-.1-110-.1-220-.1-330z" fill="#fff"/><path d="m1777.6 401.4c-27.2.1-54.3-.3-81.5.3 0-.3 0-.9.1-1.2-41.6-67.3-92.4-129-150.8-182.3-54.5-49.8-115.7-92.3-181.6-125.5-82.1-41.6-171.7-68.5-263.1-78.8-82.4-9.2-166.3-5.4-247.4 11.8-84.2 17.7-165.3 49.7-239 93.7-115.8 68.9-213.7 167-284.1 281.8-.8.2-1.7.3-2.5.4-24-.5-48-.1-71.9-.2-85.1 0-170.2 0-255.3 0v26.5h2026.3v-26.5c-83.2-.1-166.2 0-249.2 0zm-1154.9.3c-22.7 0-45.4.1-68.1-.1 6.2-9.2 13.8-17.5 20.8-26.2 35.9-41.9 77.4-79 123.3-109.5 68.1-45.4 146-76.1 226.9-88.7 24.5-3.7 49.2-6.3 74-6.4 12.3-1.4 24.7.1 37 .1 92.6 3.6 184.1 30.8 263.9 77.9 65.8 38.6 123.8 90.3 170.2 150.8.3.5.8 1.5 1 2-282.9.1-566 .1-849 .1z"/><path d="m613.6 462.9c3.8-2.8 8.1-5.5 13-5.4 4.8-.3 9.2 3 11.6 7 2.7 5.6.8 13.2-4.6 16.5-4.3 2.3-9.2 3-13.9 3.9-12.8 2.2-25.5 4.6-38.2 6.8-.3-.7-.8-2-1-2.7 11-8.8 21.9-17.7 33.1-26.1z"/><path d="m82.2 521.3c11.6-14 29-23.6 47.4-24.4 10.6-.7 20.9 2.6 31.1 5 8 1.8 15.4-2.8 22.8-4.8 4.1 18.8 9.2 37.4 13.7 56.2-2.9.8-5.9 1.6-8.8 2.3-6.5-10.7-13.2-21.7-21.5-31.2-4.4-3.8-8.3-8.3-13.7-10.9-9.4-6-21.5-7.1-32.1-4.1-9.2 3.9-17.3 10.9-22 19.8-8.1 15.2-10.9 32.6-11.2 49.6-.2 19.2 3.1 38.8 11.5 56.2 5.6 11.9 15.6 21.4 27.2 27.3 8.1 4 17.5 4.3 26.3 3.2 9.6-2.2 18.2-7.5 24.8-14.7 5.1-6.5 10.2-13.4 12.4-21.5 2.8 1.6 5.8 2.7 8.9 3.7-4.7 13.4-12.3 25.7-22.3 35.8-9.9 9.5-22.4 16.7-36 19.2-6.5.8-13.2.8-19.8.1-10.7-1.7-20.8-6.3-29.4-12.8-13-10.3-23.5-23.8-28.9-39.5-7-18-7.3-37.9-5-56.9 3.1-20.8 10.2-41.8 24.6-57.6z"/><path d="m724.1 501.3c11.1-5 23.7-5.2 35.5-3.2 7.6 1.2 14.2 6.6 22.1 5.4 5.6-1.1 10.6-3.8 15.9-5.9 3.8 17.8 8.1 35.4 11.8 53.2-2.9.7-5.9 1.5-8.8 2.3-8-12.4-15.6-25.5-27.2-34.9-9.6-8.4-23.2-12.8-35.8-9.6-7.8 1.6-14.6 6.6-19 13.2-4.5 6.7-4.9 15.6-2.4 23.1 3.3 7.4 8.9 14.1 16.5 17.4 18.8 10.3 40.7 13.5 59.1 24.5 14 8.4 25 22.6 27.6 38.9 1.7 9 .3 18.2-3 26.7-5.3 14.9-18.3 25.7-32.5 31.8-11.2 5.1-23.9 4.8-36 3.8-7.9-1.1-15.6-3-22.9-6.3-8.8-3.4-17.9.7-25.9 4.3-4.1-18.7-8.2-37.4-12.4-56.1 3.3-.7 6.6-1.4 9.9-2.1 3.5 6.8 7.3 13.4 11.9 19.5 4.7 6.1 10.5 11.2 16.1 16.5 4.9 3.3 9.5 7.2 15.1 9.1 5.2 1.9 10.3 3.9 15.9 4.3 9.7.8 20-.8 28-6.5 12.5-8.7 17.4-28.1 7.8-40.6-5.2-7.5-13.4-12.4-21.7-15.7-17.8-6.5-36.8-11.2-52.5-22.3-10.4-6.9-17.8-17.7-22-29.3-4.6-16-1.6-34.4 9.1-47.3 5.1-6.4 12.4-10.7 19.8-14.2z"/><path d="m1174.6 515c13.1-12.2 31.2-19.7 49.2-18 8.5.6 16.6 3.4 24.9 5.1 7.5.8 14.2-3 21.1-5.1 4.5 18.7 9.2 37.4 13.9 56.1-3 1-6.1 1.7-9.1 2.4-3.4-6.7-7.7-12.8-11.8-19-6.4-9.6-14.3-18.5-24.7-24-9.1-5.4-20.5-6-30.5-3.2-8.4 3.5-15.9 9.6-20.7 17.5-9.5 16.2-12.7 35.4-12.3 54-.2 20.9 4 42.4 14.8 60.5 5.6 8.5 13.4 15.5 22.3 20.3 6.6 3.7 14.3 4.6 21.7 4.5s14.5-2.9 20.7-6.8c10.6-7 18-18 22.5-29.7 2.9 1.2 5.9 2.1 8.7 3.7-3.5 8.2-6.8 16.6-12.4 23.6-10.6 15.3-26.8 27.3-45.3 30.9-10.4 1.3-21.2 1.2-31.2-2.5-15.3-5.2-27.8-16.6-37.2-29.5-7.9-11.7-13.1-25.2-15.3-39.1-3.6-27.8.6-57.2 14.6-81.8 4.6-7.3 10.1-13.8 16.1-19.9z"/><path d="m493.1 499.2c2.9-.6 5.8-1.4 8.7-1.9 4.1 18.3 8.5 36.6 12.6 55-3 .7-5.9 1.5-8.9 2.1-3.8-8.1-8.8-15.5-14.2-22.6-8.2-9.8-19.7-17.3-32.5-19.2-11.1-1.8-22.4-1.3-33.5-.3.1 24.2 0 48.4.1 72.6 7.6-.3 15.3.6 22.8-.7 11.3-3.6 18.1-15.3 19-26.7 3 .1 6.1.1 9.1 0 .1 22.1-.1 44.2.1 66.3-3 .1-6 .2-8.9 0-1.2-2.2-.7-5.1-1.5-7.4-2.2-6.7-5.6-13.7-12.2-17-8.4-5.1-18.6-3.8-27.9-4.2-.1 26.1-.2 52.2 0 78.3 4.9.6 9.7 1.5 14.6 2.5-.1 2.7-.1 5.4-.2 8.1-20.7-.1-41.4-.1-62 0-.1-2.7-.1-5.4-.1-8.1 4.7-1 9.4-2.1 14.2-2.8.1-53.7 0-107.4.1-161.1-4.7-.9-9.5-1.3-14.3-1.9 0-2.9 0-5.8 0-8.8 27.5.1 55.1 0 82.6 0 10.7.1 21.7.2 32.3-2.2z"/><path d="m621.6 501.5c11.1-.4 22.5-.1 33.1-3.9 4.1 17.9 8.3 35.7 12.4 53.6-3.1.6-6.2 1.2-9.3 1.8-2.6-7.4-6.2-14.4-10.8-20.7-5.8-7.3-13.3-13-21.7-17-8.4-3.4-17.6-4.6-26.7-4.3-7.7-.1-15.3 0-22.9 1v70.3c7.5-1 15.2.5 22.5-2 5.2-1.8 9.5-5.8 12.9-10.1 3.3-4.9 4.5-10.9 5.3-16.6h9.4v66.8c-3.2-.3-6.3-.3-9.5-.3-.4-10.1-5.5-20.4-14.6-25.4-8-4.5-17.4-2.5-26.1-3 .1 27.2-.1 54.4.1 81.7 8-.1 16 1.2 24 .4 13.2-.1 26.6-3.9 37.2-11.9 11.3-8.5 18.6-21 24.6-33.6 2.9.6 5.7 1.5 8.6 2.3-4.2 19.1-8.7 38.1-13.2 57.2-7.2-2.2-14.7-4.1-22.4-3.8-35.4 0-70.9 0-106.3 0 0-3 0-6.1.1-9.1 4.7-.2 9.4-1.2 14.1-1.5 0-53.8-.1-107.6 0-161.4-4.7-.9-9.5-1.4-14.2-2.1 0-2.8 0-5.6 0-8.4z"/><path d="m259 501.5c12.2-.9 24.3-1.9 36.5-2.8 19.3 58.4 39.3 116.6 58.7 174.9 4.7.1 9.3.9 13.9.9.2 3.2.2 6.4 0 9.6-21.6-.2-43.2 0-64.9-.1 0-3.2 0-6.3 0-9.5 5.4-.4 10.8-1.2 16.2-1.4-5-15.2-10.1-30.4-14.9-45.7-20.8-.1-41.6.1-62.4-.1-3.2 10.1-6.8 20.1-9.4 30.3-1.4 4.3.2 9.1 3.3 12.3 4 3.7 9.7 4.6 14.9 4.8v9.2c-18.5 0-36.9 0-55.4 0 .5-3 .5-6 .4-8.9 4.8-.8 9.9-1.2 13.9-4.1 5.3-3.5 8.6-9.3 11.1-15 14.6-45 29-90.1 43.6-135.1.6-2 1.6-4.1.7-6.1-1.8-4.4-3.9-8.9-6.2-13.2zm7.4 49.2c-6.8 21.4-13.6 42.8-20.4 64.2h54.3c-9.1-28-18.5-56-27.3-84.1-2.7 6.4-4.3 13.3-6.6 19.9z"/><path d="m1539.7 501.5c12.1-.9 24.1-1.9 36.2-2.8 19.7 58.3 39.3 116.6 58.9 175 4.7.1 9.3.8 14.1 1v9.4c-21.7 0-43.4 0-65.2 0 0-3.1 0-6.3 0-9.4 5.4-.5 10.9-1.1 16.4-1.5-4.9-15.2-9.9-30.4-14.9-45.7-20.8.1-41.7-.1-62.5.1-2.9 10-6.6 19.8-9.2 29.9-1.8 5.7 1.2 12.5 6.6 14.9 3.6 1.9 7.8 2.2 11.8 2.5v9.1c-18.5 0-37 0-55.5 0 .2-3 .2-6 .1-9 4.6-.7 9.6-1.1 13.6-3.9 6.9-4.7 10.9-12.5 13.1-20.4 13.7-42.7 27.5-85.4 41.3-128.1.6-2.2 1.9-4.4 1.7-6.8-1.8-4.8-4.4-9.5-6.5-14.3zm-13.1 113.4h54.1c-8.9-28.1-18.1-56.1-27.4-84-9.1 27.9-17.8 55.9-26.7 84z"/><path d="m898.6 501.5h66c12.4.2 25-.6 37 2.9 12.5 3.5 24 11.3 31 22.4 4.9 8.4 6.4 18.6 4.7 28.1-1.8 11.8-10.1 21.5-19.7 28-6.6 4.6-14.3 7.1-21.9 9.3 14.8 27 29.4 54.2 44.3 81.1 3.8.6 7.5 1.2 11.2 2.2.8 2.6.1 5.8.3 8.6-14-.1-28.1.2-42.1-.2-15.7-29.5-31-59.3-46.7-88.9-5.7.1-11.5 0-17.2 0 0 26.1-.2 52.3.1 78.5 4.8.5 9.6 1.5 14.5 2.1 0 2.8.1 5.7-.1 8.5-20.5-.2-41 0-61.5-.1 0-2.8 0-5.6 0-8.4 5-.8 9.9-1.7 14.9-2.2.2-53.8 0-107.6.1-161.4-5-.9-10-1.6-15-2.3.1-2.7.1-5.5.1-8.2zm47 10.5v71.9c7.3.1 14.7-.3 22 .2 9.5-.6 19.7-2.6 26.9-9.4 8-8.3 10.8-20.5 10.2-31.8-.3-10-5.3-19.8-13.7-25.4-7.2-4.7-16-5.9-24.5-6.3-6.9.1-13.9-.2-20.9.8z"/><path d="m1061 510c0-2.9 0-5.7 0-8.6 20.6.1 41.2 0 61.8 0v8.5c-4.9.7-9.9 1.5-14.8 2.3-.1 53.5.1 107-.1 160.4 4.8 1.1 9.7 1.7 14.6 2.4.1 3 .1 6 .1 9-20.7 0-41.3 0-62 0 0-3-.1-6 .1-9 4.8-.7 9.5-1.5 14.2-2.3.1-53.6 0-107.1 0-160.7-4.5-.7-9.2-1.5-13.9-2z"/><path d="m1303 509.8c0-2.8 0-5.6.1-8.4 20.5.1 41.1 0 61.6.1v8.5c-4.9.6-9.8 1.2-14.6 2.2 0 23.2.1 46.4 0 69.7 23 .2 46 0 69.1.1 0-23.3 0-46.6 0-69.9-4.9-.7-9.8-1.4-14.7-2 0-2.8 0-5.6 0-8.5 20.7 0 41.3.1 62 0 0 2.8 0 5.5.1 8.3-4.7.6-9.4 1.5-14.1 1.9-.3 53.9-.1 107.8-.1 161.7 4.8.4 9.5 1.3 14.2 1.9 0 3 0 6-.1 9-20.6-.2-41.3 0-61.9-.1 0-3-.1-6.1.1-9.1 4.9-.5 9.8-1.4 14.7-2.2-.1-26.2.1-52.5-.1-78.7-23 .1-46 0-68.9.1 0 26.2.1 52.4-.1 78.6 4.8 1 9.8 1.5 14.7 2.2v9.2c-20.5.1-41-.1-61.5.1-.2-3-.1-6-.1-9 4.7-.8 9.4-1.5 14-2.4-.1-53.6 0-107.2 0-160.8-5.1-1.1-9.8-1.6-14.4-2.5z"/><path d="m1658 509.7c.1-2.8.1-5.5.1-8.3 28.5.2 57.1-.2 85.6.3 11.8.6 23.9 3.4 33.7 10.3 5.7 3.6 10.3 8.6 14.1 14.1 6 9.7 7.1 21.9 4.3 32.9-2.6 8.4-8.1 15.7-15 21-7.4 6.2-16.5 9.7-25.7 12 14.6 27.1 29.4 54.1 44.1 81.1 3.9.7 7.8 1.5 11.7 2.3v8.6c-13.8 0-27.7 0-41.5 0-1.2-.3-1.4-1.8-2-2.7-15-28.8-30.1-57.4-45-86.2-5.8-.1-11.7 0-17.5-.1v78.3c5 .6 9.9 1.5 14.8 2.3v8.4c-20.5.1-41-.1-61.5.1-.2-2.8-.2-5.7-.1-8.5 5-.8 10-1.5 15-2.3-.1-53.8 0-107.6-.1-161.3-5-.8-10-1.6-15-2.3zm46.8 2.3v71.8c7.3.1 14.6-.2 21.9.3 7.9-.5 16.1-1.8 22.9-6.2 6.5-4 10.4-11 12.6-18.1 2.7-10.3 3.2-21.9-2.2-31.5-4.5-9.3-14.4-14.7-24.3-16.1-10.2-1.4-20.6-1.3-30.9-.2z"/><path d="m1819.6 501.5h51.1c12.6 0 25.4-.4 37.8 2.3 15.2 3.1 29.2 11.1 39.6 22.6 9.7 9.7 15.2 22.7 19.3 35.5 3.4 9.9 4 20.5 3.8 30.9.1 22.6-6.9 45.6-21.7 62.9-6.1 6.8-12.6 13.6-21 17.6-15.6 9.2-34.2 10.8-51.9 10.6-18.8.1-37.7-.1-56.5.1-.1-2.7-.1-5.4-.2-8.1 4.8-1 9.7-1.6 14.5-2.4-.1-53.8 0-107.5 0-161.3-5-.7-9.9-1.6-14.8-2.3 0-2.8 0-5.6 0-8.4zm47.7 10.6c-.1 32.6 0 65.2 0 97.8.8 21.2.2 42.5.4 63.8 6-.1 12 1 18 .2 9.6-.3 19.1-3.5 26.8-9.2 8.5-7 15.4-16.2 18.8-26.8 2.3-7.8 5-15.7 5.2-23.9.9-12.6 2.6-25.3 1.3-37.9-1.2-12.3-2.4-24.8-7-36.4-4-8.6-9.4-17.2-17.7-22.1-6.8-4-14.5-6.3-22.4-6.4-7.8-.1-15.7-.6-23.4.9z"/><path d="m.4 757.9c.1 8.9-.1 17.9.1 26.8 102.4-.1 204.8 0 307.2 0 7.6.2 15.1-.7 22.7 0 67.7 110.1 160.4 204.9 270.2 273.3 69.8 43.6 146.3 76.3 226.2 96.2 96.7 24.1 198 29.1 296.7 15.1 84.9-12.1 167.6-38.4 243.9-77.5 69.5-35.4 133.7-81.2 190.3-135 53.9-51 100.6-109.2 139.7-172.2h329.3v-26.8c-675.5.1-1350.9.1-2026.3.1zm1303.2 177.8c-72.4 43.2-154.5 70.1-238.5 77.5-21.4 1.8-42.9 2.9-64.4 2.2-40-1.1-80-6.1-118.9-15.5-78.7-18.8-153-54.9-216.8-104.4-39.4-30.5-75-65.9-105.6-105.2-1.4-1.9-3.5-3.5-3.8-6 305.7.2 611.4-.1 917 .1-45.8 60.7-103.7 112.3-169 151.3z"/><g fill="#fff"><path d="m824.7 23.8c80.8-20.1 164.9-27.3 248-20.8 93.1 7.1 184.9 31.1 269.7 70.1 70.6 32.4 136.2 75.5 194.7 126.6 60.3 52.7 113.1 114 156.6 181.2 4.4 6.4 7.9 13.3 12.7 19.4-3.2 1.6-6.8 1.1-10.2.2-41.6-67.3-92.4-129-150.8-182.3-54.5-49.8-115.7-92.3-181.6-125.5-82.1-41.5-171.7-68.5-263.1-78.8-82.4-9.2-166.3-5.4-247.5 11.8-84.1 17.7-165.2 49.7-238.9 93.7-115.8 68.9-213.7 167-284.1 281.8-3.4.1-6.8.1-10.1.2 69.3-113.8 164.7-211.9 278.1-282 69.8-43.4 146.6-75.8 226.5-95.6z"/><path d="m1025.1 72.8c-.1-1.5.7-3.7 2.6-3.3 6.3.5 12.7.6 19 .8 6.9.1 13.4 5.8 14 12.7 1.2 6.8-3.6 13.5-10 15.6 2.6 5.9 5.7 11.5 8.3 17.3-.1.5-.2 1.4-.2 1.9-3.7-.2-7.6.4-11.2-.7-2.9-6-5.6-12.1-8.2-18.2-1.4-.1-2.9-.2-4.3-.2-.2 5.7-.6 11.3-.7 17-1.2 2-3.8.8-5.7 1.1-1.7-.2-4.8.5-5-1.8 0-14.1 1.2-28.2 1.4-42.2zm10.6 7c-.1 3.3-.2 6.7-.2 10 3.7.1 7.5.5 11.2.1 4.1-1.3 4.7-7.7.5-9.3-3.9-.6-7.7-.7-11.5-.8z"/><path d="m906 77.3c3.1.2 7-2.6 9.6-.2 2.6 14.2 4.7 28.4 7 42.7.7 1.9-.6 4.5-2.9 3.4-10.1-7.1-20.1-14.4-30.1-21.8 1.3 8.1 2.8 16.2 3.9 24.4-.9 2.3-3.8 1.6-5.7 2.2-1.8.2-4.6 1.2-5-1.3-2.5-13.9-4.6-27.9-7-41.9-.7-1.9.5-4.5 2.9-3.6 10 6.8 20 13.6 29.9 20.7-1.3-7.7-2.4-15.4-3.8-23.1.2-.3.8-1.1 1.2-1.5z"/><path d="m1121.3 79.3c.7-2.3 3.7-1.2 5.4-1.1 1.9.6 4.9.1 5.5 2.5-2.3 14.7-4.6 29.3-7 44-3 1.5-6.3-.4-9.4-.4-.3-.4-1-1.1-1.4-1.5 2.3-14.4 4.8-28.9 6.9-43.5z"/><path d="m1199.5 97.7c9.8-3.8 22-.5 28.2 8.2 1.1.9.8 2.4.7 3.7-2.6 1.1-4.9 3.7-7.8 3.8-2.6-2.1-4.6-5.2-8-5.9-6.5-2.4-14 2-16.1 8.4-2.6 6.1.5 13.8 6.6 16.5 3.6 1.7 7.8 1.3 11.5.2 2.3.2 2.6 2.8 3.7 4.4.8 1.4 2.3 3.8.5 5.1-5.4 3.1-12.2 3.4-18.1 1.5-10-3-17.4-13.2-16.9-23.7 0-9.7 6.6-18.9 15.7-22.2z"/><path d="m797.2 101.5c11.6-3 24.6 4 28.5 15.3 3.3 8.9.9 19.6-6.2 26-6.9 6.6-17.8 8.5-26.5 4.5-9.4-4-15.4-14.4-14.2-24.5.6-10.1 8.5-19.1 18.4-21.3zm2 11c-4 1.2-7.3 4.4-8.6 8.4-2.7 6.8 1.9 15 8.8 16.7 8 2.7 16.8-4.4 16.6-12.7.1-8.2-8.9-15-16.8-12.4z"/><path d="m1286.7 123.9c3.2-1.8 6.4 1.8 9.5 2.5.1.6.3 1.7.4 2.3-2.3 4.8-4.2 9.8-6.6 14.6 5.7 2.6 11.4 5.1 17.2 7.5 2.3-5.1 4.1-10.6 7-15.4 3.2-1 6.1 2 9.2 2.9.7 2.3-.8 4.4-1.6 6.4-5 11.4-10 22.8-14.9 34.2-.4 1.2-1.1 2-2.3 2.4-2.4-.6-4.6-1.8-6.9-2.8-1.4-.4-2.1-2.4-1.1-3.6 2.2-4.8 4.1-9.7 6.5-14.4-5.6-2.8-11.4-5.1-17.1-7.6-2.2 5.2-4.5 10.4-6.8 15.6-1.8 2.2-4.3-.3-6.3-.8-1.5-.7-4.5-1.5-3.6-3.7 5.6-13.4 11.5-26.8 17.4-40.1z"/><path d="m700.7 140.8c5.2-6.1 13.9-7.8 21.5-6.4 3.1 1.6 1 5.3.9 7.9-1.2 3.2-4.8 1.7-7.3 1.6-2.8.1-6.4.7-7.5 3.8-.2 3.8 4.5 4.6 7.4 4.4 6.2-.4 13.4-.4 18.2 4.4 5.8 5.6 4.5 15.9-1.8 20.7-5.9 4.5-14.2 6.6-21.4 3.8.1-2.9.3-5.8.5-8.7 4.4-1.1 9.9 1.3 13.7-2.3 2.8-2.6-.2-6.8-3.4-7-5.9-.7-12.3.7-17.6-2.6-6.9-3.5-8.3-13.8-3.2-19.6z"/><path d="m634.9 175.1c2.3-1.3 4.6-2.7 6.8-4.1.6.1 1.7.2 2.3.2 7.2 12.4 14.7 24.7 22 37.1 1.1 1.4.4 3.5-1.2 4-2.4 1.2-4.5 3.3-7.4 3.2-7.2-12.2-14.5-24.3-21.8-36.5-.9-1.1-1.1-2.5-.7-3.9z"/><path d="m1391.4 177.6c1.2-.8 2.6-2.1 4.1-1 1.3 1.5.2 3.5.2 5.2-1.7 14.7-3.3 29.4-5 44.2 0 1.4-.7 2.3-2.2 2.5-2.5-1.6-5.5-2.8-7.5-4.9-.7-2.4.2-5 .5-7.5-5.2-3-10.2-6.4-15.5-9.2-2.2 1.3-4.2 4.1-7.1 3.6-2.4-1.2-4.7-2.8-7.1-4.1 0-1.1-.4-2.5 1-3 13-8.7 25.8-17.2 38.6-25.8zm-15.9 22.7c1.6 2.8 5.1 3.5 7.5 5.4.4-3.8.9-7.6 1.3-11.5-2.8 2.4-5.8 4.3-8.8 6.1z"/><path d="m569 219.8c.2-2.1 2.5-2.1 3.9-1.2 13.7 7.3 27.4 14.6 41.1 21.8 1.6.3 1.4 2 1.7 3.3-2.2 1.5-4.2 3.3-6.5 4.7-2.8.8-5.1-1.8-7.5-2.8-4.9 3.5-9.7 7.1-14.4 10.9.6 2.4 1.6 4.9 1.1 7.4-2 2.1-4.4 3.6-6.7 5.3-.6-.2-1.8-.5-2.4-.6-3.2-16.3-6.9-32.5-10.3-48.8zm13.5 15.4c.8 3.6 1.7 7.2 2.4 10.8 2.6-1.6 5-3.6 7.5-5.4-3.2-1.9-6.6-3.6-9.9-5.4z"/><path d="m1460.1 223.3c.6 0 1.7-.1 2.2-.1 5.3 4.3 10.7 8.6 16 13 6.2 5.2 6.6 15.7.8 21.3-3.9 4.1-10 4.7-15.3 3.6-1.1 6.2-2 12.6-3.6 18.7-.5.2-1.4.5-1.9.7-2.5-1.6-4.7-3.5-6.9-5.4-1.5-1-.6-2.8-.4-4.1 1.3-5.6 2.3-11.2 3.7-16.7-1.1-.8-2.2-1.6-3.3-2.4-3.6 4.1-6.8 8.5-10.3 12.6-2.2 1.8-4.2-1-5.9-2.1-1.6-1.1-4-2.9-2.4-5 9.1-11.5 18.2-22.8 27.3-34.1zm-3 21.4c2.4 1.8 4.7 3.7 7 5.6 2.3 2.3 6.9 1.3 8-1.8 1.1-1.9 0-4.3-1.5-5.6-2.4-2-4.9-3.9-7.3-5.9-2.1 2.4-4.1 5.1-6.2 7.7z"/><path d="m504.9 275c-.9-2 1.5-3.9 3.2-2.6 12.3 8.7 24.4 17.6 36.6 26.3.5 3.2-2.7 4.7-4.5 6.8-.9 1.2-2.7 1.7-3.9.6-5.1-3.9-10.4-7.8-15.4-11.8 2.2 6.7 4.2 13.5 6.3 20.2.3 1.4 1.2 3 .4 4.5-.9 1-2.4 1-3.6.6-7.1-2.2-14.1-4.7-21.3-6.7 3.9 5.4 8.1 10.5 11.8 16 .3 3.6-4.2 5-5.9 7.8-2.7-.2-3.8-3-5.2-4.9-7.5-10.7-15-21.4-22.6-32.1-1.3-2 .5-4.6 2.9-3.5 10 3 20 6.2 30.1 9.2-3-10.1-6-20.2-8.9-30.4z"/><path d="m1531.4 288.7c1-1.2 3-2.6 4.3-1 3.9 4.1 7.9 8.1 11.7 12.3 7.7 8.8 7.3 23.4-1.1 31.7-7.4 8-20.7 9.4-29.8 3.3-6-4.3-10.3-10.4-15.8-15.3.6-3.1 3.5-4.8 5.6-6.9 8.5-8.1 16.8-16.1 25.1-24.1zm-16.1 30.6c2.8 2.9 5.2 6.5 9.2 7.8 8.6 3.4 18.8-5.2 17.5-14.2-.2-5.1-4.7-8.1-7.6-11.7-6.5 5.9-12.7 12.1-19.1 18.1z"/><path d="m320.8 785.4c3-1.4 6.4-.7 9.6-.8 67.7 110.1 160.4 205 270.2 273.3 69.8 43.6 146.3 76.3 226.2 96.2 96.7 24.1 198 29.1 296.7 15.1 84.9-12.1 167.6-38.4 243.9-77.5 69.5-35.4 133.7-81.2 190.3-135 53.8-51 100.6-109.2 139.7-172.2h9.7c-6.7 11-13.7 22-20.9 32.7-85.7 128-206.1 233.3-346.6 297.1-87 39.6-181.3 63.3-276.8 69.3-96.1 6.1-193.3-5.9-285.1-35-77-24.3-150.1-60.5-216.3-106.7-83-57.9-155.1-131.1-212.7-214.2-9.8-13.6-18.7-28-27.9-42.3z"/><path d="m549.4 890.9c.1-2.2 2.6-2.5 4.2-1.8 6 4.2 11.3 10.1 12.8 17.5.9 5.1 2.3 10.4.7 15.5-1.7-.3-3.5-.1-5.1-.7-9-7.2-14.6-19-12.6-30.5z"/><path d="m575.9 892c1.2.2 2.9-.4 3.6.9 3.9 6.2 6.8 13.6 5.4 21-1.2 5.1-1.8 10.7-5.2 14.9-1.6-1-3.9-1.3-4.8-3.2-5.4-10.3-5.9-23.8 1-33.6z"/><path d="m595.9 912.1c1.1-1.9 4.2-1.3 4.8.7 2.4 5.4 5.5 10.9 4.9 17 .1 3.5-1.7 6.6-3.8 9.1-3.1 3.5-3.9 8.3-4.8 12.8-4.1-2.5-4.8-7.5-6-11.7-2.4-9.3-1.1-20 4.9-27.9z"/><path d="m535.7 917c7.6-.7 15.8-.1 22 4.9 4 3.5 8.9 6.5 10.6 11.8-1.5.9-2.8 2.2-4.6 2.5-11.3-.1-23.1-5.4-29-15.4-1.2-1.3-.1-2.9 1-3.8z"/><path d="m617.4 925.7c1.4-2 4.4-.9 4.9 1.3 2.3 6.2 5.5 13.1 3.2 19.8-.9 3.4-3.8 5.6-5.6 8.4-2.2 4.2-2.9 9-4.1 13.5-4-2.8-3.5-8.5-4.6-12.8-2.6-10.3-1.1-22.2 6.2-30.2z"/><path d="m568.4 925.7c.7 0 2.2.1 3 .1 31.9 38.3 72.8 68.3 116.7 91.6 2.6.8 3 3.6 3 6-17.6-8.4-34.3-18.5-50.4-29.5-18.8-12.5-35.7-27.6-51.6-43.6-7.3-7.8-14.9-15.6-20.7-24.6z"/><path d="m636.5 941.8c.8-1.4 2.5-.8 3.9-.9 7.7 11.1 6.1 26.1-.1 37.5-.8 1.2-2 2-3.3 2.6-.8-4.6-1.3-9.5-4.3-13.2-3.4-4.3-3.7-10.4-1.7-15.4 1.4-3.7 3.3-7.3 5.5-10.6z"/><path d="m553.6 945.7c7-3 15.3-4.1 22.6-1.3 4.5 1.9 9.4 3.4 12.6 7.3-2.6 5.3-9 5.5-14.2 5.8-7.9.4-16.2-2-22-7.5-1.5-1.2-.7-3.7 1-4.3z"/><path d="m657.6 959c.5-1.9 3.5-2.3 4.5-.6 5.5 7.9 6.3 18.4 3.5 27.5-1.5 4.4-2.5 9.6-6.8 12.1-1.1-4.2-1.2-8.8-3.9-12.4-2.3-3.1-3.9-6.8-3.7-10.7.6-5.8 3.7-10.9 6.4-15.9z"/><path d="m572.6 968.7c9.3-4 19.8-2.7 29.5-1.1 2 .4 3.1 2.2 4.5 3.5-.6 1.5-1.3 3.1-1.9 4.7-10.3 4.4-23.2 4.2-32.4-2.7-1.7-.9-1.5-3.8.3-4.4z"/><path d="m678.2 971.3c.9-1.9 3.9-1.8 4.8.1 7.5 10.5 6.4 24.8 1.2 36-.7 1.4-2 2.3-3.3 3.1-.8-4.3-1.6-8.9-4.5-12.4-2.1-2.6-4-5.8-3.8-9.3-.5-6.3 2.9-12 5.6-17.5z"/><path d="m592.6 987.3c9.7-3.8 20.2-2 30.1 0 1.5.8 2.5 2.2 3.7 3.3-1 1.6-1.1 4.3-3.2 5-10.3 3.7-22.7 3-31.6-3.9-1.4-1.2-.9-4.1 1-4.4z"/><path d="m628.3 1004.6c6.1-1 12.2-.7 18.4-.5 2.1-.1 3.6 1.6 5.2 2.8-.1 2-.5 4.7-2.6 5.7-9.6 5-21.8 5.6-31.3 0-1.6-.8-1.6-3.5 0-4.3 3.2-1.8 6.7-3 10.3-3.7z"/><path d="m643.1 1023.3c9.2-6.1 21.5-8.3 31.8-3.6 1.9.8 1.9 3.6.3 4.7-4.2 3.3-9 6.4-14.4 7.3-4.4.5-8.8.2-13.2-.2-2.8-.3-5.7-1-7.7-3.1.8-1.9 1.4-4 3.2-5.1z"/><path d="m1473 889.2c1.3-.8 3.4-.5 4.1 1 2.2 11.7-3.3 23.8-12.4 31.1-1.6.5-3.3.6-4.9.9-2.1-4.6-.5-9.8.2-14.6 1.3-7.6 6.6-14.1 13-18.4z"/><path d="m1447 893.1c.7-1.5 2.4-.9 3.7-1.1 6.1 8.9 6.2 20.7 2.4 30.5-.7 3.1-3.1 5.3-6.1 6.4-3.6-3.8-4-9-5.1-13.8-1.7-7.7.8-15.7 5.1-22z"/><path d="m1426.2 912.3c.7-1.6 3.2-1.8 4.2-.5 6.5 8.1 7.6 19.4 4.9 29.2-1.1 3.9-1.8 8.6-5.8 10.6-.9-4.7-1.9-9.7-5.3-13.3-3.8-4.2-4.2-10.4-2.4-15.5 1.1-3.6 2.6-7.1 4.4-10.5z"/><path d="m1467.2 923.3c5-4.5 11.7-6.9 18.5-6.5 2.7-.2 7.3-.6 6.7 3.5-4.4 7.2-11.5 12.5-19.7 14.5-4.7 1-10.3 2.7-14.2-1.1 1-4.7 5.4-7.2 8.7-10.4z"/><path d="m1405 925.2c1.3-.4 2.9-1.1 4 .3 7.2 7.8 8.9 19.4 6.6 29.5-1.1 4.7-.7 10.4-4.6 13.8-1.3-4.1-2-8.4-3.7-12.4-1.5-3.5-5.1-5.7-6.2-9.4-2.5-7.5 1.4-14.9 3.9-21.8z"/><path d="m1452.7 928.9c1.6-1.6 2.8-4.9 5.6-3-11.2 15.5-24.8 28.9-38.9 41.7-14.3 13-29.9 24.5-46.3 34.8-12.2 7.7-24.6 14.8-37.6 21.1.3-1.9.1-4.7 2.3-5.6 43-22.8 83.1-51.9 114.9-89z"/><path d="m1385.7 941.8c1.1-1.8 4.5-1.2 5.1.9 2.9 5.6 6.8 11.5 6 18.1-.2 2.9-1.7 5.5-3.3 7.9-2.6 3.7-3.1 8.2-3.6 12.5-4-1.5-5-5.9-6.3-9.4-3.8-9.7-3.7-21.2 2.1-30z"/><path d="m1449.7 944.7c6.9-3 15-2.3 21.9.4 1.2.5 3 1 3.1 2.7.4 2.4-2.1 3.4-3.6 4.5-8.3 5.7-19.1 6.4-28.6 3.6-2.2-.5-3.3-2.7-4.6-4.2 2.9-3.8 7.6-5.1 11.8-7z"/><path d="m1363.9 959.1c.7-2.1 4-2.3 4.9-.2 3.1 5.6 6.9 11.5 6.4 18.1-.1 3.3-1.9 6.3-3.7 9-2.4 3.5-3 7.8-3.5 11.9-1.6-.4-2.8-1.5-3.6-2.9-5.6-11-7.5-25.1-.5-35.9z"/><path d="m1424.2 967.6c9.8-1.6 20.2-3 29.6 1 1.8.3 1.9 2.9 1 4.1-8.9 6.9-21.4 7.4-31.7 3.6-2.1-.9-2.3-3.5-3.2-5.3 1.3-1.1 2.5-2.8 4.3-3.4z"/><path d="m1344 971.1c1-1.9 4.2-1.2 4.8.8 2.9 6.2 7 13 4.9 20-.9 4.2-4.8 6.9-6.1 11-1.1 2.5-1 5.4-2.4 7.8-3.8-3.1-4.6-8-5.9-12.4-2.3-9.2-1.2-19.6 4.7-27.2z"/><path d="m1405.6 986.9c9.6-1.9 20-3.3 29.3.6 1.1 1.2 1.2 3.4-.2 4.3-8.8 6.6-20.8 7.3-31 3.8-2.2-.7-2.5-3.2-3.4-4.9 1.6-1.4 2.8-3.7 5.3-3.8z"/><path d="m1374.5 1007c1.3-1 2.6-2.1 4.1-2.8 10-.6 20.7-1 29.8 3.9 1.7.5 1 2.5 1.3 3.8-9.7 6.3-22.7 5.8-32.7.5-1.8-1.1-1.8-3.6-2.5-5.4z"/><path d="m1352.6 1019.3c10.3-4.2 22.4-1.9 31.4 4.4 1.8 1.1 1.9 3.4 2.6 5.2-2.2 1.1-4.4 2.3-6.9 2.4-7.1.7-14.8 1.5-21.2-2.3-3.2-1.9-7.1-3.6-8.6-7.2.7-1 1.4-2.2 2.7-2.5z"/><path d="m804.6 1045.8c4.5-2.2 9.3-3.9 14-5.7 2.9.8 7.4.7 8.4 4-4.5 15.9-9.2 31.8-13.8 47.7-.4 1.4-2 2.9-3.5 2-2.9-1.2-7-.8-8.6-3.9 3.1-11.5 6.6-22.9 9.9-34.3-2.4-.7-4.7-1.4-7.1-2.1-.3-.5-.8-1.4-1.1-1.9.5-1.9.9-3.9 1.8-5.8z"/><path d="m1189.8 1048.2c5.4-7 15.7-9.7 23.8-6 6.5 3 9.9 10.9 8.5 17.8-1.5 8.2-5 15.8-7.8 23.5 4.4-.9 8.7-2.6 13.2-3.4 1.9.2 2.3 2.2 2.8 3.7.5 2.2 1.8 4.7-.1 6.5-9.9 2.5-19.7 5.5-29.6 8.2-1.6.6-3.8-.9-3.4-2.6 4.1-11 8.4-21.9 12.1-33 .8-2.5 1.1-5.3.3-7.8-2-3.4-7-3.6-9.9-1.4-1.9 1.1-2.9 3.2-4.2 4.8-3.1 1.3-5.6-1.8-8.3-2.9-1.3-2.9 1-5.3 2.6-7.4z"/><path d="m929 1066.1c6.2-4.1 14.6-3.9 21.2-.8 5.3 2.3 9.2 7.7 8.8 13.6-.1 5.6-4.7 9.8-9.3 12.2 3.1 2.5 6.3 5.3 7.6 9.3 1.7 4.7.1 10.3-3.5 13.6-3.9 4-9.8 5.1-15.1 4.8-5.8-.1-11.8-2-15.8-6.2-3.9-4-5.3-10.7-2.2-15.6 2.3-3.3 5.5-5.9 9.1-7.7-2.1-2.3-4.6-4.4-5.7-7.4-2.5-5.6-.2-12.6 4.9-15.8zm9 8.2c-3.4 2-2.8 6.9.2 8.9 2.9 3 7.7-.8 8-4.2.7-4.2-4.9-7.2-8.2-4.7zm0 22.1c-3.4 1.1-6.8 4.7-5.3 8.4 1.7 4.5 8.6 5.2 11.2 1.1 2.9-3.8-1.6-10.2-5.9-9.5z"/><path d="m1059.9 1071.2c6.5-9.5 22.3-10.2 29.4-1 5.2 6.6 5.9 15.8 4.5 23.8-2.2 12.8-12.5 23-24.3 27.6-2.5-2.3-4.5-6-4.5-9.4 6.3-3.4 14.2-6.7 16.1-14.5-4.9 2.1-10.6 3-15.5.5-9.8-4.7-12-18.8-5.7-27zm12.3 4.4c-5.4 2-6.2 10.1-1.2 13 4.4 3.3 11.2-.5 11.3-5.8.5-5.1-5.5-9.5-10.1-7.2z"/></g></svg>