<svg fill="none" height="45" viewBox="0 0 73 45" width="73" xmlns="http://www.w3.org/2000/svg"><path d="m70.3115 20.7188c-.1717.3161-.7841 1.246-2.0424 1.1725-.6311-.0368-1.1128-.2647-1.4712-.5624.6571-1.8304 1.0081-3.2455.3883-4.3335-.3249-.5734-.8775-.963-1.5608-1.1027-.758-.1507-1.5011.0515-2.035.5587-1.2024 1.1394-.8962 3.3815-.8215 3.8189.0747.4338.239.9373.5003 1.4482l-.3547.8969-.0112.033c-1.3517 3.6462-3.6257 3.7161-3.8871 3.7124h-.1418s-.5489-.0441-.8029-.3565c-.2464-.3051-.28-.9557-.0858-1.7827.0448-.1875.1232-.4411.2203-.7351l.7169-1.8966h-.0075c.2689-.6874.5601-1.4078.8252-2.0657.3884-.9593.7543-1.8672.997-2.5178.4966-1.3453.7393-2.3671.8476-2.8964-.8849-.2205-2.0835-.5219-2.9946-.7461-.0486.2757-.2427 1.224-.7506 2.606-.224.6065-.5825 1.4923-.9633 2.4296-.5863 1.4481-1.1837 2.9257-1.5646 4.0394l-.1531.4044-.0298.0882c-1.0642 3.4367-3.5249 3.4367-3.7788 3.4256l-.0075-.0147-.1083.0111c-.6273-.0699-.9596-.952-.87-2.3157.071-1.0732 1.1165-3.5763 1.9604-5.5906.4966-1.1909.967-2.3156 1.2807-3.2198.7356-2.1318 1.0642-3.3632 1.1762-3.8042-.8401-.2095-2.0425-.5109-2.9909-.7462-.0822.3272-.3883 1.485-1.109 3.5727-.28.816-.7319 1.8966-1.2098 3.0397-.4929 1.1799-.9932 2.3745-1.3928 3.4771-.5302 1.4225-1.6728 2.2826-2.737 2.2532-.168-.0037-.3323-.0294-.4966-.0919.6646-1.5144.997-2.9846.997-4.4217 0-1.5732-.4033-2.8266-1.2136-3.7528-.8103-.93-1.908-1.3931-3.3008-1.3931-1.2882 0-2.5727.5514-3.861 1.6504-1.2882 1.099-2.3449 2.4957-3.1738 4.1938-.0934.1911-.1793.3823-.2614.5697-.1494.3419-.2801.6837-.3958 1.0218 0 0-.0112.0368-.0299.0993-.9073 1.6246-1.8408 2.9331-2.7967 3.9108-.9858 1.0108-1.7998 1.5144-2.4421 1.5144-.1045 0-.1979-.0662-.28-.1985-.0822-.1323-.1232-.3271-.1232-.5918 0-.4741.1381-1.1578.4144-2.0436v-.0074c.0859-.2756.1867-.5697.2988-.8858.4779-1.3306 1.2658-3.3705 2.3636-6.1162 1.0156-2.481 1.852-4.6018 2.5055-6.3588.6459-1.73117 1.0791-3.2933 1.4301-4.67165-.9485-.23891-2.1135-.52929-2.92-.72777-.3137 1.20927-.8401 2.89637-1.3928 4.36661-.5601 1.49231-1.2397 3.12061-2.2366 5.60161-1.0493 2.5839-1.882 4.679-2.4495 6.3037-1.3853 3.3705-4.772 6.0794-9.4582 7.6378.3286-1.0696.6385-2.1869.9298-3.3594 2.8714-2.0915 5.1417-4.5578 6.934-7.5203 1.4525-2.4039 2.5839-5.1312 3.5585-8.57887 1.0305-3.65722 1.0492-6.175.0522-7.70038-.5078-.775549-1.277-1.279106-2.1731-1.4187784-4.4211-.6799856-7.7368 5.4509084-10.1341 18.7529284-.2837 1.5805-.5862 3.047-.9036 4.4107-2.2366 2.2384-5.10061 3.5175-7.91603 3.5175-2.28893 0-3.36431-.9446-3.38672-2.9698-.00373-.4338.05975-.941.19044-1.4813 2.09103 1.3747 4.37249 1.0843 4.74215 1.0218 3.62196-.5183 4.70856-3.4734 4.77946-4.9804.0822-1.4556-.336-2.7714-1.1836-3.7087-.7655-.8417-1.811-1.3232-3.02829-1.3931-1.65789-.0919-3.28964.5734-4.72349 1.9187-2.45322 2.3083-3.887072 6.2118-3.860934 8.6597.01867 1.7386.578767 3.2051 1.620544 4.249 1.1426 1.1431 2.77435 1.7239 4.84298 1.7239 2.27399 0 4.55549-.6286 6.63529-1.7864-.1755.5587-.351 1.099-.5302 1.6099-2.8827.7719-5.72423 1.9407-7.94221 3.275-3.2523 1.9554-4.9923342 4.1791-5.02220608 6.4286-.02613782 1.8047.70198808 2.878 1.31435608 3.4624 1.20235 1.1431 2.77809 1.2387 3.26724 1.2387h.10828c.49289-.0147 2.96478-.2463 5.79514-3.411 1.8334-2.0509 3.4465-4.8738 4.8243-8.4465 4.014-.9924 7.3895-2.7052 9.8652-4.94.0672.1654.1157.261.1157.261.1494.2867.3361.5513.5639.7939.6758.7278 1.5085 1.0917 2.5055 1.0917 1.3255 0 2.6847-.6212 4.0775-1.8636.3286-.294.6534-.6175.9745-.9703.2017.544.478 1.0255.8402 1.4408.8103.9299 1.908 1.3931 3.2971 1.3931 1.0156 0 2.0387-.3529 3.0656-1.0586 1.0268-.7057 1.9566-1.6467 2.7855-2.8155.6834.283 1.3405.4558 1.9604.4227.982-.0515 1.5981-.3749 1.9454-.544.1344 1.1872.5489 2.1502 1.2434 2.867 1.0119 1.0438 2.2516 1.1614 2.6138 1.1725.0411 0 .1008.0036.1792.0036.4556 0 1.4936-.0661 2.6623-.5991.4855-.2205 1.0306-.544 1.572-1.0034.0262.0367.0486.0735.0785.1103 1.109 1.3673 2.793 1.4812 3.1664 1.4886h.168c1.0082 0 4.5891-.3566 6.6092-5.201.6982.4006 1.5234.6726 2.4905.7278.112.0073.2203.0073.3249.0073 2.4345 0 3.9393-1.5584 4.5853-2.7309-.8439-.4779-2.1172-1.1909-2.6922-1.485zm-51.5998-1.3784c1.6877-9.35439 3.5472-13.34609 4.8093-15.04421.8178-1.10268 1.3555-1.25338 1.6542-1.25338.0709 0 .1269.00735.1717.0147.0112.00735.8738.87847-.3771 5.31124-1.094 3.88145-2.7333 8.19655-6.4411 11.96775.0635-.3271.1232-.6579.183-.9924zm-12.33338-1.9995c.81028-.7645 1.62802-1.1284 2.42335-1.0843.39581.022.69079.147.90363.3822.295.3272.4443.8822.407 1.5254v.0147c-.0075.0735-.0635.555-.34726 1.0365-.36219.6139-.9559.9741-1.80724 1.0917l-.05975.0073c-.23897.0368-1.81845.2279-3.04693-.9887.42941-.7461.9447-1.4408 1.5272-1.9885zm1.22101 21.833c-.9895.9851-2.10596 1.8011-3.01332 1.8011-.44061 0-.76546-.1103-1.0007-.2904-.04481-.0294-.08962-.0662-.13069-.1029-.12696-.1213-.22404-.2867-.28752-.4962-.04854-.1507-.07468-.3124-.07841-.4778-.00747-.0846-.00747-.1728-.00747-.2647.02614-1.9186 3.70411-4.4805 8.44628-6.1309-1.3741 2.9956-2.75943 4.8371-3.92817 5.9655zm32.86277-20.6201c-.5713.555-.8551 1.2461-.8551 2.0731 0 1.0512.4257 2.0693 1.277 3.0581-.5414.7865-1.1052 1.4224-1.6989 1.9076-.59.4852-1.1352.7278-1.6355.7278-.5004 0-.829-.1654-1.0567-.4999-.2278-.3345-.3436-.8711-.3436-1.6209 0-1.0513.2838-2.1907.8551-3.422.5713-1.2314 1.2621-2.2715 2.0687-3.1169.8102-.8491 1.557-1.2718 2.2403-1.2718.3734 0 .6684.0992.8887.3014.2166.2022.3697.5256.4518.9704-.8924.0404-1.6242.3381-2.1955.8931z" fill="#fff"/></svg>