<svg width="132" height="31" viewBox="0 0 132 31" fill="none" xmlns="http://www.w3.org/2000/svg">
<path d="M120.076 0.39452C120.96 -0.0514795 121.984 -0.0334795 122.947 0.0405205C123.86 0.12452 124.817 0.32752 125.536 0.93352C126.134 1.42552 126.444 2.18052 126.575 2.92752C126.739 3.92252 126.731 4.94552 126.588 5.94352C126.429 7.00252 126.032 8.08452 125.207 8.80752C126.392 9.15252 127.574 9.50752 128.758 9.85452C129.405 10.0395 130.081 10.2295 130.598 10.6875C131.176 11.1405 131.452 11.8905 131.444 12.6105C131.462 13.3245 131.253 14.0645 130.767 14.6005C130.09 15.3635 128.978 15.6465 127.996 15.4515C127.079 15.2115 126.168 14.9505 125.252 14.7155C125.305 15.1235 125.214 15.5585 125.34 15.9515C126.399 17.3305 127.468 18.7035 128.536 20.0765C128.821 20.3995 129.038 20.7875 129.107 21.2165C129.404 23.0355 129.682 24.8575 130.003 26.6725C130.163 27.5855 130.072 28.5755 129.597 29.3855C128.847 30.6745 127.032 31.1775 125.715 30.4955C125.015 30.1315 124.535 29.4525 124.254 28.7315C123.985 28.0765 123.926 27.3655 123.782 26.6785C123.583 25.6695 123.43 24.6495 123.204 23.6485C122.768 22.9895 122.189 22.4295 121.684 21.8205C121.342 22.8165 121.241 23.9395 120.554 24.7815C119.649 26.1005 118.759 27.4285 117.864 28.7545C117.411 29.4315 116.695 29.9165 115.915 30.1365C114.276 30.5945 112.378 29.4395 112.05 27.7655C111.859 26.8235 112.094 25.8065 112.656 25.0295C113.547 23.7275 114.434 22.4225 115.325 21.1215C115.471 20.9105 115.511 20.6515 115.574 20.4085C115.841 19.2305 116.054 18.0415 116.265 16.8525C115.586 16.8225 114.84 16.7985 114.288 16.3475C113.477 15.7115 113.216 14.6185 113.232 13.6325C113.318 12.1465 113.403 10.6595 113.52 9.17552C113.585 8.50752 113.589 7.80152 113.921 7.19952C114.272 6.55752 114.888 6.03652 115.61 5.87152C116.423 5.75252 117.249 5.81952 118.068 5.84652C118.097 4.64852 118.1 3.41852 118.516 2.27652C118.798 1.49852 119.314 0.76452 120.074 0.39352L120.076 0.39452ZM120.85 2.64052C120.476 3.16652 120.407 3.83652 120.36 4.46252C120.3 5.73252 120.403 7.00152 120.399 8.27152C119.021 8.20152 117.643 8.05152 116.262 8.09252C116.014 8.08452 115.872 8.32952 115.871 8.55152C115.701 10.3055 115.612 12.0665 115.511 13.8265C115.499 14.0975 115.555 14.5165 115.899 14.5395C116.902 14.6085 117.908 14.6075 118.913 14.6505C118.839 15.5355 118.641 16.4075 118.511 17.2865C118.253 18.7275 118.021 20.1775 117.62 21.5865C117.482 22.1425 117.092 22.5765 116.788 23.0445C116.047 24.1265 115.309 25.2095 114.566 26.2885C114.404 26.5175 114.266 26.7795 114.271 27.0675C114.231 27.6935 115.033 28.1665 115.568 27.8465C115.862 27.6795 116.03 27.3735 116.219 27.1055C116.812 26.2145 117.409 25.3255 118.007 24.4355C118.332 23.9005 118.75 23.4175 119.015 22.8475C119.599 20.9655 120.108 19.0595 120.714 17.1845C122.188 18.8535 123.619 20.5615 125.077 22.2465C125.267 22.4485 125.382 22.7085 125.423 22.9825C125.689 24.4405 125.961 25.8975 126.227 27.3555C126.295 27.7115 126.393 28.0925 126.661 28.3545C126.917 28.6195 127.369 28.5565 127.617 28.3125C127.823 28.1085 127.858 27.7925 127.814 27.5195C127.516 25.7985 127.25 24.0715 126.978 22.3475C126.916 22.0145 126.92 21.6435 126.694 21.3685C125.538 19.8965 124.376 18.4315 123.223 16.9585C122.99 16.6745 123.036 16.2915 123.015 15.9505C122.98 14.5345 122.909 13.1185 122.896 11.7025C124.678 12.1835 126.455 12.6825 128.235 13.1705C128.506 13.2745 128.866 13.2005 128.979 12.9055C129.143 12.6145 128.933 12.2655 128.629 12.1895C126.713 11.6055 124.782 11.0735 122.868 10.4855C122.869 9.42752 122.811 8.36952 122.824 7.31252C123.181 7.26152 123.621 7.27552 123.844 6.93552C124.329 6.24452 124.384 5.36052 124.421 4.54452C124.406 4.05552 124.418 3.55452 124.297 3.07752C124.214 2.72652 123.925 2.45152 123.58 2.36152C123.039 2.20252 122.467 2.22152 121.91 2.23352C121.534 2.26252 121.087 2.30752 120.85 2.64052ZM93.628 8.64652C93.732 8.91652 94.074 8.92052 94.297 8.80552C94.757 8.58252 95.116 8.19152 95.417 7.78652C95.568 7.55952 95.713 7.20352 95.494 6.97552C95.216 6.76552 94.826 6.81952 94.512 6.90652C93.823 7.13152 93.37 7.95452 93.629 8.64752L93.628 8.64652ZM60.147 7.85852C60.493 7.76352 60.887 7.79452 61.182 8.01352C61.728 8.39552 61.958 9.09452 61.957 9.73752C61.953 12.2735 61.96 14.8085 61.954 17.3455C61.965 18.2095 61.305 19.0245 60.44 19.1395C59.834 19.1995 59.223 19.1495 58.616 19.1675C57.391 19.2215 56.195 18.7515 55.197 18.0675C54.278 17.4395 53.555 16.4435 53.459 15.3125C53.303 14.1455 53.681 12.8835 54.583 12.0985C55.262 11.5505 56.042 11.1125 56.893 10.9015C57.461 10.7405 58.106 10.7375 58.579 10.3385C58.939 10.0645 59.117 9.61152 59.111 9.16652C59.12 8.56552 59.567 8.00952 60.147 7.85852ZM57.448 13.4935C56.847 13.6015 56.362 14.1325 56.295 14.7395C56.181 15.5425 56.869 16.3635 57.692 16.3435C58.546 16.3645 59.257 15.4825 59.083 14.6525C58.963 13.9125 58.19 13.3475 57.448 13.4935ZM44.119 9.84252C44.112 12.3395 44.119 14.8375 44.115 17.3355C44.112 18.0315 44.363 18.8105 44.996 19.1775C45.407 19.4345 45.966 19.3565 46.317 19.0345C46.8 18.6165 46.983 17.9555 46.986 17.3365C46.993 15.9445 46.987 14.5525 46.989 13.1605C46.993 12.7935 46.959 12.4195 47.061 12.0615C47.196 11.5705 47.499 11.0835 47.984 10.8775C48.383 10.7035 48.86 10.8305 49.168 11.1235C49.593 11.5255 49.797 12.1215 49.793 12.6995C49.793 14.2765 49.79 15.8535 49.793 17.4295C49.8 18.0775 50.052 18.7665 50.601 19.1445C51.015 19.4375 51.608 19.3705 51.982 19.0415C52.471 18.6305 52.661 17.9645 52.664 17.3455C52.666 16.2305 52.664 15.1165 52.665 14.0015C52.657 13.2265 52.718 12.4385 52.517 11.6805C52.192 10.2445 51.321 8.82352 49.906 8.25652C48.909 7.82352 47.81 8.00052 46.759 7.97452C46.341 7.98652 45.913 7.92952 45.506 8.04252C44.718 8.26152 44.129 9.02352 44.119 9.84252ZM24.839 8.39852C25.998 8.38452 27.159 8.39252 28.318 8.39452C29.852 8.46452 31.471 8.80852 32.662 9.83652C33.522 10.5665 33.979 11.6815 34.024 12.7955C34.11 13.5735 33.752 14.3555 33.147 14.8405C32.785 15.1125 32.636 15.6065 32.762 16.0375C32.857 16.5185 33.278 16.8175 33.52 17.2195C33.93 17.8525 34.017 18.6305 34.014 19.3695C33.995 20.1065 34.092 20.8465 34.001 21.5805C33.862 22.5095 32.957 23.2675 32.009 23.1555C31.122 23.0895 30.387 22.2925 30.336 21.4145C30.312 20.7375 30.347 20.0595 30.323 19.3825C30.289 18.7775 29.955 18.1985 29.441 17.8735C28.922 17.5305 28.217 17.4985 27.673 17.8045C27.069 18.1185 26.68 18.7825 26.669 19.4595C26.662 20.0755 26.677 20.6945 26.667 21.3115C26.657 22.0495 26.177 22.7525 25.494 23.0315C24.97 23.2455 24.349 23.1935 23.869 22.8975C23.326 22.5705 22.975 21.9505 22.963 21.3185C22.962 17.6735 22.966 14.0295 22.961 10.3845C22.926 9.36252 23.846 8.46952 24.84 8.39652L24.839 8.39852ZM27.713 11.9375C27.26 12.0435 26.756 12.2315 26.523 12.6645C26.29 13.1005 26.574 13.6245 26.956 13.8685C27.727 14.3665 28.734 14.3715 29.583 14.0765C30.022 13.9225 30.489 13.5775 30.496 13.0675C30.521 12.6625 30.2 12.3455 29.865 12.1775C29.205 11.8475 28.43 11.7965 27.714 11.9365L27.713 11.9375ZM81.419 10.1985C81.418 12.7325 81.42 15.2675 81.418 17.8015C81.416 18.4825 81.714 19.2265 82.335 19.5675C82.867 19.8425 83.538 19.6075 83.856 19.1195C84.307 18.5325 84.286 17.7595 84.269 17.0595C84.269 15.7325 84.269 14.4055 84.268 13.0785C84.265 12.4455 84.501 11.7735 85.018 11.3795C85.341 11.1315 85.805 11.0725 86.166 11.2775C86.766 11.6085 87.062 12.3205 87.072 12.9825C87.072 14.4945 87.074 16.0055 87.07 17.5175C87.042 18.1845 87.208 18.9155 87.728 19.3725C88.111 19.7525 88.767 19.7875 89.192 19.4555C89.703 19.0755 89.929 18.4155 89.944 17.7975C89.948 16.9005 89.943 16.0035 89.945 15.1065C89.919 13.9915 90.022 12.8655 89.825 11.7615C89.646 10.7075 89.121 9.65752 88.195 9.07552C87.132 8.37352 85.808 8.29852 84.573 8.32252C83.968 8.34852 83.348 8.25152 82.756 8.41352C81.996 8.65152 81.412 9.39352 81.419 10.1985ZM72.104 11.5895C72.105 13.9675 72.105 16.3445 72.105 18.7235C72.11 19.1455 72.064 19.5805 72.204 19.9875C72.355 20.4495 72.654 20.9075 73.126 21.0855C73.536 21.2565 74.022 21.1205 74.336 20.8195C74.776 20.4055 74.955 19.7805 74.956 19.1905C74.954 17.8285 74.955 16.4685 74.955 15.1075C74.958 14.6625 74.916 14.2045 75.069 13.7775C75.228 13.2895 75.566 12.8045 76.082 12.6605C76.466 12.5425 76.885 12.6995 77.162 12.9745C77.577 13.3865 77.763 13.9855 77.76 14.5625C77.757 15.9805 77.761 17.3985 77.758 18.8155C77.722 19.4685 77.809 20.1775 78.253 20.6895C78.593 21.1225 79.241 21.3095 79.731 21.0205C80.395 20.6425 80.644 19.8245 80.633 19.1015C80.632 17.8045 80.631 16.5065 80.633 15.2095C80.637 14.2755 80.605 13.3225 80.32 12.4255C80.061 11.5675 79.48 10.7895 78.674 10.3785C77.671 9.84552 76.505 9.78052 75.393 9.80752C74.783 9.82952 74.168 9.75752 73.564 9.85152C72.766 10.0275 72.128 10.7705 72.104 11.5915V11.5895ZM37.899 10.3535C38.564 10.2335 39.273 10.1985 39.917 10.4375C40.892 10.7835 41.787 11.4005 42.388 12.2495C42.895 13.0175 43.256 13.9055 43.325 14.8285C43.333 16.4675 43.327 18.1065 43.329 19.7455C43.335 20.5095 42.811 21.2265 42.102 21.4925C41.638 21.6795 41.128 21.6095 40.641 21.6215C39.967 21.6085 39.288 21.6665 38.621 21.5415C37.614 21.3585 36.664 20.8085 36.045 19.9885C35.403 19.1375 34.88 18.1415 34.812 17.0605C34.79 16.5955 34.773 16.1045 34.978 15.6735C35.242 15.0885 35.818 14.6485 36.458 14.5715C37.413 14.5045 38.377 14.6295 39.327 14.4905C39.704 14.4135 40.12 14.3195 40.39 14.0245C40.585 13.7935 40.369 13.4975 40.165 13.3625C39.585 12.9705 38.83 12.9685 38.166 13.0975C37.807 13.1555 37.678 13.5515 37.361 13.6815C36.784 13.9315 36.131 13.9405 35.52 13.8315C35.267 13.7785 34.994 13.7155 34.804 13.5285C35.074 11.9855 36.348 10.6425 37.9 10.3535H37.899ZM38.538 17.0755C38.02 17.2245 37.513 17.7615 37.696 18.3325C37.806 18.7775 38.257 19.0245 38.68 19.0915C39.2 19.1725 39.778 19.1635 40.243 18.8835C40.744 18.5715 40.738 17.7685 40.284 17.4165C39.8 17.0385 39.126 16.9175 38.538 17.0755ZM93.977 10.4565C94.684 10.3175 95.442 10.3185 96.113 10.6095C96.997 10.9835 97.684 11.7045 98.213 12.4885C98.675 13.2045 99.056 13.9895 99.212 14.8315C99.262 15.3575 99.286 15.9265 99.02 16.4045C98.758 16.9005 98.267 17.2725 97.717 17.3835C96.577 17.5445 95.392 17.2535 94.275 17.5955C93.993 17.6925 93.63 17.8405 93.578 18.1725C93.599 18.4515 93.861 18.6265 94.087 18.7475C94.669 19.0355 95.366 19.0785 95.992 18.9305C96.352 18.8655 96.345 18.3785 96.699 18.3145C97.46 18.1105 98.301 18.0975 99.053 18.3445C99.312 18.3965 99.234 18.6685 99.136 18.8345C98.428 20.2085 97.176 21.4155 95.606 21.6765C94.741 21.8445 93.813 21.6555 93.097 21.1375C92.014 20.3965 91.224 19.2495 90.878 17.9875C90.642 17.1725 90.762 16.3195 90.733 15.4855C90.683 14.2745 90.995 13.0355 91.67 12.0225C92.196 11.2255 93.037 10.6385 93.978 10.4575L93.977 10.4565ZM94.427 13.1185C94.05 13.2265 93.644 13.4855 93.581 13.9045C93.596 14.2925 93.967 14.5325 94.293 14.6625C94.955 14.9345 95.842 14.8215 96.292 14.2265C96.477 14.0015 96.367 13.6865 96.166 13.5145C95.702 13.1065 95.022 12.9505 94.427 13.1185ZM103.328 11.8215C104.219 11.6035 105.201 11.7375 105.978 12.2375C107.005 12.8885 107.719 13.9375 108.177 15.0455C108.478 15.7615 108.662 16.5665 108.475 17.3375C108.288 18.0995 107.584 18.6965 106.802 18.7585C105.877 18.7915 104.947 18.6575 104.025 18.7665C103.647 18.8305 103.207 18.9265 102.99 19.2765C102.849 19.4895 102.936 19.7655 103.115 19.9275C103.503 20.2985 104.07 20.3945 104.589 20.3755C104.967 20.3825 105.413 20.3185 105.641 19.9765C105.958 19.4525 106.647 19.4535 107.188 19.4445C107.615 19.4835 108.119 19.4685 108.458 19.7755C108.472 19.8115 108.5 19.8835 108.514 19.9195C108.298 20.4735 107.916 20.9485 107.533 21.3965C106.793 22.2225 105.822 22.9185 104.696 23.0545C103.943 23.1745 103.198 22.8885 102.549 22.5325C101.332 21.8635 100.406 20.6655 100.133 19.2975C99.966 18.5645 100.047 17.8105 100.025 17.0655C99.952 16.0165 100.299 14.9855 100.773 14.0635C101.306 13.0385 102.178 12.1085 103.332 11.8215H103.328ZM103.696 14.5105C103.395 14.5965 103.106 14.7725 102.942 15.0455C102.762 15.3505 102.965 15.7275 103.232 15.9055C103.731 16.2335 104.38 16.2695 104.946 16.1095C105.28 16.0055 105.629 15.7605 105.675 15.3875C105.72 15.1445 105.553 14.9275 105.372 14.7895C104.901 14.4335 104.256 14.3525 103.696 14.5105ZM66.264 12.4825C66.915 12.3435 67.614 12.3575 68.231 12.6275C70.114 13.4445 71.375 15.4785 71.295 17.5255C71.265 18.3015 71.379 19.0945 71.17 19.8535C70.899 20.8855 70.33 21.8105 69.665 22.6335C68.625 23.8265 66.713 24.1005 65.366 23.2795C63.91 22.4775 63.069 20.8845 62.794 19.2915C62.734 18.5495 62.782 17.8025 62.767 17.0565C62.829 15.0245 64.188 12.9105 66.264 12.4825ZM66.725 15.2725C66.383 15.3765 66.117 15.6465 65.934 15.9445C65.574 16.5265 65.612 17.2365 65.616 17.8935C65.634 18.6255 65.524 19.4065 65.868 20.0855C66.096 20.5635 66.589 20.9855 67.148 20.9225C67.676 20.8495 68.073 20.4085 68.259 19.9315C68.523 19.2845 68.423 18.5725 68.442 17.8925C68.449 17.2015 68.483 16.4425 68.064 15.8505C67.787 15.4175 67.244 15.0945 66.725 15.2725ZM17.322 5.89552C18.544 5.88252 19.768 5.89252 20.99 5.88952C21.557 5.88652 22.133 6.10852 22.51 6.54052C22.982 7.05752 23.106 7.85952 22.798 8.49052C22.497 9.14352 21.791 9.55952 21.079 9.57152C19.844 9.57952 18.608 9.57052 17.372 9.57452C16.856 9.59052 16.316 9.69752 15.895 10.0105C15.68 10.1695 15.499 10.4735 15.649 10.7335C15.908 11.1735 16.443 11.3355 16.917 11.4195C17.775 11.5395 18.644 11.4295 19.506 11.4905C20.467 11.5995 21.276 12.5565 21.109 13.5335C21.003 14.3995 20.195 15.0775 19.337 15.1085C18.681 15.1295 18.023 15.0955 17.367 15.1205C16.486 15.1645 15.708 15.9035 15.612 16.7795C15.566 17.4625 15.611 18.1485 15.593 18.8325C15.577 19.4165 15.272 19.9765 14.802 20.3195C14.37 20.6485 13.788 20.7275 13.268 20.6035C12.696 20.4495 12.221 20.0035 12.012 19.4515C11.853 19.0765 11.887 18.6615 11.886 18.2655C11.888 16.0095 11.886 13.7545 11.887 11.4985C11.94 10.0295 12.643 8.63752 13.653 7.58952C14.605 6.59352 15.924 5.90452 17.322 5.89952V5.89552ZM1.557 11.2475C0.697 12.1335 0.059 13.2985 0.002 14.5515C-0.001 17.0875 0.002 19.6235 0 22.1595C0.001 23.1475 0.907 24.0415 1.903 23.9865C2.802 23.9765 3.589 23.2155 3.685 22.3325C3.745 21.6075 3.682 20.8795 3.715 20.1535C3.788 19.2505 4.595 18.4755 5.502 18.4495C6.125 18.4375 6.749 18.4635 7.373 18.4415C8.008 18.4245 8.634 18.0855 8.965 17.5375C9.293 17.0195 9.314 16.3255 9.018 15.7885C8.714 15.2165 8.096 14.8375 7.452 14.8015C6.708 14.7585 5.962 14.8145 5.218 14.7755C4.706 14.7085 4.132 14.5695 3.805 14.1365C3.609 13.8925 3.728 13.5455 3.959 13.3725C4.42 13.0015 5.035 12.9075 5.61 12.8885C6.816 12.8835 8.022 12.8915 9.229 12.8865C9.984 12.8805 10.71 12.3785 10.969 11.6665C11.162 11.1565 11.089 10.5615 10.793 10.1065C10.444 9.54652 9.785 9.21352 9.13 9.22552C8.017 9.22652 6.905 9.22752 5.793 9.22552C5.465 9.22352 5.14 9.27152 4.821 9.33952C3.552 9.58652 2.457 10.3475 1.559 11.2475H1.557Z" fill="white"/>
</svg>
