<svg width="512" height="452" viewBox="0 0 512 452" fill="none" xmlns="http://www.w3.org/2000/svg">
<path d="M247.699 428.1C247.699 431.1 247.899 434.2 247.699 437.2C247.199 444.7 242.399 450.5 234.499 451.6C230.899 452.1 227.399 451.8 224.099 450.3C219.299 448.1 216.499 444.2 215.599 439C215.399 437.8 215.299 436.5 215.299 435.2C215.299 430.4 215.299 425.6 215.299 420.8C215.299 418.1 215.699 415.5 216.899 413C218.599 409.3 221.299 406.8 225.099 405.4C229.299 403.8 233.599 403.8 237.799 405.3C243.099 407.2 246.299 411.1 247.399 416.5C247.699 417.9 247.799 419.4 247.799 420.8C247.799 423.4 247.799 425.8 247.699 428.1ZM240.199 428.2C240.199 425.3 240.299 422.4 240.199 419.5C240.099 417.4 239.399 415.4 237.899 413.8C236.199 412.1 234.099 411.4 231.799 411.4C229.399 411.4 227.299 412 225.499 413.7C223.799 415.4 222.999 417.6 222.899 420C222.799 422.7 222.799 425.5 222.799 428.2C222.799 430.9 222.799 433.7 222.799 436.4C222.899 438.7 223.499 440.7 225.099 442.4C226.799 444.3 229.099 444.9 231.599 444.9C233.899 444.9 235.999 444.3 237.599 442.7C239.299 441 240.099 438.9 240.099 436.6C240.199 433.8 240.199 431 240.199 428.2Z" fill="white"/>
<path d="M340.199 428.2C340.199 431.2 340.399 434.2 340.199 437.2C339.699 444.8 334.799 450.5 326.999 451.7C323.399 452.2 319.899 451.9 316.599 450.4C311.699 448.1 308.999 444.2 307.999 439C307.799 437.8 307.699 436.6 307.699 435.5C307.699 430.6 307.699 425.8 307.699 420.9C307.699 418 308.199 415.2 309.599 412.5C311.299 409.2 313.899 406.9 317.399 405.6C321.599 404 325.899 404 330.099 405.4C335.499 407.3 338.599 411.2 339.799 416.7C340.099 418.1 340.199 419.6 340.199 421C340.399 423.4 340.299 425.8 340.199 428.2C340.299 428.2 340.299 428.2 340.199 428.2ZM332.699 428.1C332.699 425.2 332.799 422.3 332.699 419.5C332.599 417.3 331.899 415.4 330.299 413.8C328.599 412.1 326.499 411.4 324.199 411.4C321.899 411.4 319.699 412 317.999 413.6C316.199 415.3 315.499 417.5 315.399 419.9C315.299 423.2 315.299 426.4 315.299 429.7C315.299 431.9 315.299 434.2 315.399 436.4C315.499 438.7 316.199 440.7 317.699 442.4C319.399 444.2 321.599 444.9 324.099 444.9C326.399 444.9 328.499 444.3 330.199 442.7C331.899 441 332.699 438.9 332.799 436.5C332.799 433.7 332.699 430.9 332.699 428.1Z" fill="white"/>
<path d="M290.2 405.3C290.2 407.6 290.2 409.8 290.2 412.1C290 412.1 289.7 412.1 289.5 412.1C283.9 412.1 278.4 412.1 272.8 412.1C272 412.1 272 412.1 271.9 412.8C271.4 416.4 270.9 419.9 270.5 423.5C270.5 423.6 270.5 423.8 270.5 423.9C270.6 423.8 270.6 423.8 270.7 423.8C272.6 421.5 275 420.4 277.9 420.2C282.7 419.8 286.8 421.2 290.1 424.8C292.8 427.7 293.9 431.2 294 435.1C294.1 439.2 293.1 443.1 290.4 446.3C288 449.2 284.9 450.9 281.2 451.5C277 452.2 273 451.8 269.2 449.7C264.7 447.2 262.2 443.2 261.5 438.1C261.5 438 261.5 438 261.5 437.9C261.6 437.9 261.8 437.9 261.9 437.9C264.2 437.9 266.4 437.9 268.7 437.9C269 437.9 269.2 438 269.3 438.3C270.3 442.3 273.6 444.8 277.8 444.8C280.5 444.7 282.7 443.9 284.4 441.8C285.4 440.6 285.9 439.2 286.1 437.7C286.4 435.7 286.4 433.8 285.7 431.9C284.7 429.2 282.7 427.5 279.9 426.9C276.6 426.2 273.7 426.8 271.3 429.3C270.8 429.9 270.3 430.6 269.8 431.3C269.4 431.2 268.9 431 268.4 430.9C266.8 430.4 265.2 429.9 263.6 429.5C263.3 429.4 263.2 429.3 263.2 428.9C264.2 421.6 265.1 414.2 266 406.9C266 406.6 266.1 406.2 266.1 405.9C266.1 405.5 266.3 405.4 266.7 405.4C269.1 405.4 271.5 405.4 273.9 405.4C279.1 405.4 284.3 405.4 289.4 405.4C289.6 405.3 289.9 405.3 290.2 405.3Z" fill="white"/>
<path d="M171.699 450.9C171.699 448.8 171.699 446.8 171.699 444.8C171.699 444.6 171.899 444.4 172.099 444.2C177.099 439.4 182.099 434.6 187.099 429.8C188.699 428.3 190.199 426.8 191.499 425C193.499 422.1 194.099 419.1 192.999 415.7C191.999 412.8 189.599 411.2 186.399 411.3C182.599 411.3 179.899 413.8 179.499 417.7C179.399 418.5 179.399 419.4 179.299 420.3C176.899 420.3 174.399 420.3 171.899 420.3C171.899 419.9 171.899 419.5 171.899 419.1C171.999 416.6 172.399 414.1 173.599 411.8C175.299 408.4 177.899 406.1 181.499 405C184.999 403.9 188.599 403.9 191.999 405.2C196.899 407 199.799 410.6 200.799 415.6C201.499 419.1 201.299 422.6 199.699 425.9C198.499 428.2 196.899 430.2 194.999 432C190.899 435.9 186.699 439.8 182.499 443.7C182.399 443.8 182.199 443.9 181.999 444L182.099 444.1C188.199 444.1 194.399 444.1 200.499 444.1C200.499 446.4 200.499 448.6 200.499 450.9C190.899 450.9 181.299 450.9 171.699 450.9Z" fill="white"/>
<path d="M88.5992 292.6C90.1992 290.8 91.6992 288.9 93.3992 287.3C97.5992 283.4 102.699 281.4 108.399 280.7C114.299 280 120.099 280.5 125.699 282.8C134.099 286.4 138.699 292.9 140.799 301.6C141.599 305.1 141.899 308.6 141.899 312.2C141.899 325 141.899 337.8 141.899 350.7C141.899 351 141.899 351.3 141.899 351.7C136.399 351.7 130.899 351.7 125.199 351.7C125.199 351.3 125.199 350.9 125.199 350.4C125.199 337.8 125.199 325.2 125.199 312.6C125.199 309.7 124.999 306.8 123.899 304.1C122.299 300 119.399 297.5 115.099 296.5C111.999 295.8 108.899 295.8 105.799 296.9C100.599 298.7 98.2992 302.8 97.4992 308C97.1992 309.7 97.1992 311.4 97.1992 313C97.1992 325.4 97.1992 337.9 97.1992 350.3C97.1992 351.7 97.1992 351.7 95.7992 351.7C91.0992 351.7 86.4992 351.7 81.7992 351.7C80.7992 351.7 80.4992 351.4 80.4992 350.4C80.4992 337.8 80.4992 325.2 80.4992 312.7C80.4992 309.7 80.1992 306.8 79.0992 304C77.4992 299.9 74.5992 297.4 70.2992 296.4C67.1992 295.7 63.9992 295.8 60.8992 296.8C55.6992 298.6 53.3992 302.7 52.6992 307.8C52.3992 309.5 52.3992 311.2 52.3992 312.9C52.3992 325.3 52.3992 337.7 52.3992 350.1C52.3992 350.5 52.3992 351 52.3992 351.5C51.9992 351.5 51.5992 351.6 51.2992 351.6C46.4992 351.6 41.5992 351.6 36.7992 351.6C35.9992 351.6 35.6992 351.4 35.6992 350.5C35.6992 337.6 35.6992 324.7 35.6992 311.8C35.6992 306.5 36.3992 301.2 38.4992 296.3C42.2992 287.6 48.8992 282.6 58.1992 280.9C65.0992 279.7 71.7992 280.1 78.1992 283.2C82.2992 285.1 85.5992 288 88.1992 291.8C88.2992 292.1 88.4992 292.4 88.5992 292.6Z" fill="white"/>
<path d="M212.1 351.6C212.1 347.1 212.1 342.9 212.1 338.6C212 338.6 212 338.6 211.9 338.6C211.6 339.1 211.4 339.6 211.1 340.1C207 347.8 200.5 352 192 353.1C180.2 354.5 170 351 161.9 342.3C156.2 336.3 153.6 328.8 153.1 320.7C152.6 313.1 153.7 305.7 157.4 299C162.5 289.4 170.6 283.7 181.1 281.4C189.5 279.6 197.8 279.9 205.7 283.1C217.3 287.8 224.1 296.5 226.6 308.6C227.2 311.7 227.5 314.9 227.5 318C227.6 328.7 227.5 339.5 227.5 350.3C227.5 351.6 227.5 351.6 226.1 351.6C221.9 351.6 217.7 351.6 213.5 351.6C213.1 351.6 212.7 351.6 212.1 351.6ZM210.7 316.7C210.7 316.1 210.6 315.3 210.6 314.5C210.1 309.2 208.2 304.6 204.2 301C200.5 297.6 196 296.3 191.1 296C181.6 295.6 173.6 300.9 170.9 310.1C169 316.5 169.5 322.9 173 328.7C177 335.2 183.2 337.9 190.6 337.9C195.7 337.9 200.4 336.4 204.2 332.9C208.9 328.5 210.6 323 210.7 316.7Z" fill="white"/>
<path d="M428.2 351.6C422.6 351.6 417.1 351.6 411.4 351.6C411.4 351.1 411.4 350.6 411.4 350.2C411.4 338 411.4 325.9 411.3 313.7C411.3 310.5 410.6 307.5 409.2 304.6C407.3 300.6 404.2 298 399.9 296.8C395.5 295.5 391 295.6 386.6 297.2C380.8 299.3 377.9 303.8 376.8 309.6C376.4 311.8 376.3 314.1 376.2 316.4C376.1 327.6 376.2 338.9 376.2 350.1C376.2 350.5 376.2 351 376.2 351.5C370.6 351.5 365.1 351.5 359.5 351.5C359.5 351.1 359.5 350.7 359.5 350.3C359.5 338.8 359.5 327.3 359.5 315.7C359.5 309.8 360.2 304 362.6 298.5C366.2 290.1 372.5 284.5 381.3 282C390.1 279.4 399 279.5 407.6 282.4C418.1 286 424.2 293.5 426.8 304.1C427.7 307.9 428.1 311.8 428.1 315.7C428.1 327.3 428.1 338.8 428.1 350.4C428.2 350.8 428.2 351.2 428.2 351.6Z" fill="white"/>
<path d="M2.7008 282.2C8.2008 282.2 13.7008 282.2 19.3008 282.2C19.3008 282.6 19.4008 282.9 19.4008 283.3C19.4008 305.7 19.4008 328.1 19.4008 350.4C19.4008 351.3 19.1008 351.6 18.2008 351.6C13.4008 351.6 8.6008 351.6 3.8008 351.6C2.8008 351.6 2.6008 351.3 2.7008 350.4C2.7008 328 2.7008 305.6 2.7008 283.3C2.7008 283 2.7008 282.6 2.7008 282.2Z" fill="white"/>
<path d="M326.701 282.2C332.301 282.2 337.801 282.2 343.401 282.2C343.401 282.7 343.401 283.1 343.401 283.5C343.401 305.7 343.401 328 343.401 350.2C343.401 351.6 343.401 351.6 342.101 351.6C337.401 351.6 332.601 351.6 327.901 351.6C327.001 351.6 326.701 351.4 326.701 350.4C326.701 328 326.701 305.6 326.701 283.3C326.601 283 326.701 282.7 326.701 282.2Z" fill="white"/>
<path d="M346.1 262.1C346.1 268.6 341.5 273.2 335 273.2C328.5 273.2 323.9 268.6 323.9 262.1C323.9 255.6 328.6 250.8 335 250.8C341.5 250.8 346.1 255.5 346.1 262.1Z" fill="white"/>
<path d="M22.2 262C22.2 268.5 17.6 273.1 11.2 273.1C4.7 273.1 0.1 268.5 0 262.1C0 255.6 4.7 250.8 11.1 250.8C17.5 250.8 22.2 255.5 22.2 262Z" fill="white"/>
<path d="M256.699 379.5C267.399 385.2 278.599 385.7 289.999 381.7C298.899 378.6 305.499 372.6 309.599 364.1C310.499 362.3 311.199 360.4 311.699 358.5H293.499C293.299 358.8 293.199 359.1 292.999 359.3C290.299 363.9 286.199 366.7 280.999 367.9C275.299 369.2 269.799 368.7 264.699 365.7C261.599 363.8 259.299 361.4 257.699 358.5H239.699C242.399 367.7 247.899 374.9 256.699 379.5Z" fill="white"/>
<path d="M456.701 322.6C457.301 325.7 458.501 328.4 460.401 330.7C464.301 335.6 469.601 337.5 475.601 337.6C478.701 337.6 481.801 337.3 484.801 336.3C487.401 335.4 489.601 333.9 491.401 331.8C491.601 331.5 492.101 331.2 492.401 331.2C497.901 331.2 503.501 331.2 509.301 331.2C508.501 332.9 507.801 334.4 507.001 335.9C501.601 344.8 493.601 349.9 483.501 351.7C475.801 353.1 468.201 352.6 461.001 349.6C447.401 343.8 440.501 333.1 439.701 318.5C439.201 308.9 441.901 300.2 448.301 293C453.401 287.2 459.901 283.7 467.501 282.2C475.701 280.6 483.701 281 491.401 284.4C502.701 289.3 509.301 298.1 511.401 310.2C512.101 314.1 511.901 318.2 512.101 322.1C512.101 322.3 512.001 322.4 512.001 322.7C493.501 322.6 475.101 322.6 456.701 322.6ZM494.701 309.5C493.901 306.7 492.601 304.2 490.801 302.2C486.801 297.7 481.601 296.1 475.701 296.1C470.501 296.1 465.901 297.5 462.001 301.2C459.601 303.5 458.001 306.3 457.101 309.6C469.701 309.5 482.101 309.5 494.701 309.5Z" fill="white"/>
<path d="M314.3 285.6V271.1C313.1 271.1 312 271.1 310.8 271.1C308.5 271.1 306.5 271.3 304.6 271.6C297.3 272.9 291.8 276.5 288.1 282.1C284.1 280.9 279.9 280.3 275.4 280.3C274.5 280.3 273.3 280.4 272.1 280.5C271 280.6 269.9 280.7 268.8 280.9C257.5 282.9 248.6 288.5 243 298.6C238.6 306.5 237.6 314.9 239.1 323.7C241 334.8 246.8 343.4 256.8 348.8C267.5 354.5 278.7 355 290.1 351C299 347.9 305.6 341.9 309.7 333.4C312.9 326.8 313.9 319.8 313.1 312.6C312.1 303.2 308.2 295.1 300.9 289C303.1 286.9 306 285.9 309.4 285.8C310.9 285.7 312.6 285.7 314.3 285.6ZM293.1 328.6C290.4 333.2 286.3 336 281.1 337.2C275.4 338.5 269.9 338 264.8 335C259.5 331.9 256.6 327.1 255.6 321.1C255.4 319.7 255.3 318.3 255.2 317.5C255.3 310.7 257.1 305.2 261.9 301C265.7 297.6 270.3 296.1 275.3 296.1C281 296 286.1 297.6 290.2 301.6C293.6 305 295.4 309.1 295.9 313.9C296.6 319 295.8 324 293.1 328.6Z" fill="white"/>
<path d="M240.2 69.2C241.2 59.1 240.8 43.1 226.2 30.8C221.4 26.8 216.6 24.5 213 23.2C211.2 22.6 211.2 20.1 212.9 19.4L213.9 19C214.2 18.9 214.6 18.8 215 18.9C217 19.2 224 20.5 230.1 24.4C232.8 26.1 235.3 28.3 237.4 30.3C239 31.9 241.6 30.1 240.7 28C239.1 24.5 236.7 20.3 232.9 16.2C230.1 13.2 226.8 10.6 223.5 8.29999C220.9 6.49999 217.6 6.19999 214.7 7.29999C202.5 11.9 191.3 18.4 181.5 26.6C179.2 28.5 178.4 31.6 179.4 34.4C181.2 39.4 183.6 44.6 186.7 48.8C191.2 54.9 201.2 62.2 206.2 65.7C207.5 66.6 209.3 65.7 209.4 64.1C209.5 60 209.4 53.3 207.6 47.2C206.3 43 205.1 40.4 204.2 38.8C203.5 37.6 204.2 36 205.6 35.8C206.4 35.6 207.1 35.9 207.6 36.5C209.1 38.4 212.3 42.7 214.5 48.2C219.2 60.2 213.7 71.4 230.2 85.4C231.6 86.6 233.6 88.4 235.2 90C236.5 91.2 238.5 90.4 238.7 88.7C238.8 84.2 239.4 76.7 240.2 69.2Z" fill="white"/>
<path d="M291.001 20.1001C292.701 16.9001 293.901 13.5001 294.801 10.2001C295.301 8.60008 294.401 6.90008 292.801 6.30008C287.501 4.50008 282.001 3.00008 276.401 2.00008C275.301 1.80008 274.501 2.90008 274.901 3.90008C275.901 6.00008 276.701 8.20007 277.301 10.4001C280.001 20.9001 278.001 31.3001 276.901 35.6001C276.701 36.3001 277.501 36.7001 278.001 36.3001C280.801 33.9001 286.801 28.3001 291.001 20.1001Z" fill="white"/>
<path d="M324.3 68.3001C323.7 69.0001 324.2 70.1001 325.2 70.1001C328.8 70.1001 335.7 69.8001 339.6 68.6001C345.7 66.7001 351.2 63.0001 355.2 59.9001C355.6 59.6001 355.7 59.0001 355.5 58.5001C351.3 51.2001 346.4 44.3001 340.7 38.1001C340.1 37.5001 339.1 37.7001 338.8 38.5001C337.9 42.0001 336.6 46.0001 334.9 50.3001C331.8 58.3001 326.8 65.2001 324.3 68.3001Z" fill="white"/>
<path d="M316.701 115.2C324.601 117 332.201 119.9 338.301 123.6C338.901 124 339.701 124.1 340.401 123.8C344.601 122.4 350.601 120.3 354.701 118.1C359.901 115.3 365.401 110.3 369.201 106.4C369.701 105.9 370.001 105.1 369.901 104.4C368.701 92 365.601 80.1 360.901 69.2C360.201 67.6 358.201 67.1 356.901 68.3C353.701 71.2 348.801 74.3 341.501 76.7C327.501 81.4 299.201 81.9 280.101 104.1C276.801 107.9 274.901 112 273.801 115.2C273.101 117.3 275.201 119.3 277.301 118.3C280.001 117.1 284.001 115.6 289.601 114.5C291.801 114 294.101 113.7 296.401 113.6C296.801 113.6 297.301 113.4 297.601 113.2C303.501 109.1 312.301 103.2 317.801 99.9C328.101 93.8 337.401 91 340.601 90.2C341.401 90 342.201 90.2 342.801 90.7C344.201 91.9 344.001 94.1 342.301 95C337.001 97.6 327.001 102.7 321.401 106.4C319.401 107.7 317.401 109.3 315.501 110.9C313.901 112.1 314.601 114.7 316.701 115.2Z" fill="white"/>
<path d="M192.8 96.4001C205.1 99.4001 215.7 105.7 222.5 110.5C224.3 111.8 226.6 109.7 225.5 107.8C221.9 101.6 216.6 93.6001 211.1 88.7001C203.1 81.6001 198.6 78.7001 197.2 77.9001C196.9 77.7001 196.5 77.6001 196.1 77.6001C193 77.8001 177.9 78.5001 166.3 76.5001C160.9 75.6001 155.2 73.9001 150.3 72.3001C149.3 72.0001 148.1 72.5001 147.8 73.5001C144.6 81.8001 142.3 90.6001 141 99.7001C140.7 101.6 141.5 103.4 143 104.6C151 110.7 162.6 117.1 175.8 117.2C189.3 117.3 198.1 115.9 202.9 114.9C204.7 114.5 205.1 112.1 203.6 111.1C199.8 108.7 193.9 105.2 189.3 103.9C179.4 101.2 171.5 100.3 168.2 100C167.2 99.9001 166.5 99.2001 166.3 98.3001C166.1 97.2001 166.9 96.1001 168 95.9001C172.1 95.1001 182.2 93.8001 192.8 96.4001Z" fill="white"/>
<path d="M163.401 68.2001C172.201 70.3001 185.801 69.7001 185.801 69.7001C185.801 69.7001 176.401 60.9001 172.201 50.8001C171.301 48.7001 170.501 46.2001 169.801 43.5001C169.301 41.6001 166.901 41.1001 165.701 42.6001C160.901 48.6001 156.601 55.0001 153.001 61.9001C152.301 63.3001 153.001 65.0001 154.401 65.5001C157.501 66.6001 160.701 67.6001 163.401 68.2001Z" fill="white"/>
<path d="M262.602 94.2001C262.602 96.0001 264.802 96.8001 265.902 95.4001C266.702 94.4001 267.702 93.2001 268.802 92.1001C271.502 89.4001 273.502 88.1001 274.502 87.5001C275.002 87.2001 275.402 86.7001 275.402 86.2001C276.002 82.4001 278.202 68.3001 281.902 60.9001C285.402 53.6001 290.402 50.2001 291.902 49.3001C292.202 49.1001 292.502 49.0001 292.802 49.0001C294.402 49.0001 295.202 50.8001 294.202 52.0001C291.702 54.9001 288.202 59.9001 286.302 66.3001C285.402 69.3001 285.702 74.5001 285.902 77.7001C286.002 79.0001 287.402 79.8001 288.602 79.2001C293.202 76.8001 302.902 71.5001 306.802 68.5001C311.902 64.4001 321.702 53.4001 326.002 46.9001C328.802 42.6001 331.202 36.7001 333.102 31.9001C333.402 31.2001 333.202 30.4001 332.602 29.9001C324.102 22.2001 314.502 15.8001 304.002 10.9001C302.902 10.4001 301.602 11.1001 301.402 12.3001C300.802 16.6001 299.502 21.5001 297.002 26.2001C286.502 45.7001 277.302 49.5001 266.102 75.9001C263.302 81.9001 262.702 89.2001 262.602 94.2001Z" fill="white"/>
<path d="M360.2 125.6C357.8 127.5 354.9 129 352.2 130.2C351 130.8 350.8 132.4 351.8 133.3C356.3 136.8 360.6 140.4 364.2 143.4C365.2 144.3 366.8 143.8 367.1 142.5C368.8 135.5 369.9 128.2 370.2 120.7C370.3 119 368.2 118.1 367.1 119.3C365.1 121.5 362.7 123.6 360.2 125.6Z" fill="white"/>
<path d="M238.902 188.6C241.802 170.9 240.202 154.2 225.602 144C224.502 143.3 223.102 143.5 222.302 144.5C220.102 147.5 216.102 151.6 209.802 155.1C198.202 161.5 188.202 163.1 183.102 163.5C181.302 163.6 180.102 161.9 180.702 160.2C181.002 159.5 181.602 158.9 182.302 158.7C185.102 157.9 192.302 155.6 198.702 150.7C203.702 146.8 207.002 143.2 209.202 140.3C210.302 138.9 209.502 136.9 207.802 136.5C201.302 134.9 193.502 134 184.402 133.9C171.102 133.7 154.502 141.2 145.902 145.6C144.902 146.1 144.402 147.3 144.702 148.4C155.302 183.6 182.302 211.8 216.802 223.9C219.802 225 223.102 223.9 224.902 221.2C230.302 213.6 236.702 202 238.902 188.6Z" fill="white"/>
<path d="M338.402 152C337.302 148 336.502 143.4 336.002 139.5C335.902 138.8 335.502 138.3 335.002 137.9C330.602 135.4 326.602 133.5 323.502 132.6C321.002 131.9 318.202 131.4 315.302 131C313.802 130.8 312.502 132.3 313.002 133.7C313.902 136.9 315.002 140.3 316.002 142.9C319.202 151.1 322.402 155.9 323.802 157.8C324.302 158.4 324.302 159.2 324.002 159.9C323.402 161.3 321.502 161.7 320.402 160.5C316.302 156.1 307.902 146.5 304.102 139.3C302.802 136.8 301.602 134.5 300.502 132.4C300.102 131.6 299.202 131.1 298.202 131.3C290.602 132.7 283.802 136.1 280.102 142.7C272.202 156.6 272.402 168.3 274.002 183.2C275.702 198.9 284.802 212 291.902 220.1C293.702 222.1 296.502 222.8 299.002 221.7C321.002 212.6 339.602 196.9 352.202 177C353.202 175.4 353.002 173.4 351.802 172C347.302 166.7 340.002 157.8 338.402 152Z" fill="white"/>
<path d="M162.101 130C163.301 129.5 163.201 127.8 162.101 127.3C157.401 125.3 148.401 121.2 142.801 117.2C142.301 116.8 141.801 116.5 141.301 116.1C140.001 115.3 139.801 115.8 139.801 116.9C139.901 123.8 140.601 130.6 141.901 137.1C142.101 138 143.101 138.5 144.001 138.2L162.101 130Z" fill="white"/>
<path d="M243.001 10.2C255.501 23.5 256.801 37 256.401 44.1C256.301 45.2 257.801 45.7 258.401 44.7C261.401 39.3 266.001 29.7 267.001 20.6C267.601 15.3 266.201 9.6 264.301 4.5C263.301 1.9 260.801 0.1 258.001 0C257.001 0 256.101 0 255.101 0C248.501 0 242.101 0.6 235.801 1.6C234.501 1.8 234.101 3.6 235.301 4.3C238.301 6.2 241.101 8.2 243.001 10.2Z" fill="white"/>
<path d="M350.2 156.2C351.8 159.1 354.7 162.9 357.1 165.7C357.6 166.3 358.5 166.1 358.8 165.5C360.1 162.9 361.2 160.2 362.3 157.5C362.5 157.1 362.3 156.6 362 156.3C358.5 153.7 354.1 150.4 349.3 147.1C348.6 146.6 347.6 147.2 347.7 148.1C348.2 150.9 349 153.9 350.2 156.2Z" fill="white"/>
</svg>
