<svg fill="none" height="452" viewBox="0 0 512 452" width="512" xmlns="http://www.w3.org/2000/svg"><g fill="#fff"><path d="m247.699 428.1c0 3 .2 6.1 0 9.1-.5 7.5-5.3 13.3-13.2 14.4-3.6.5-7.1.2-10.4-1.3-4.8-2.2-7.6-6.1-8.5-11.3-.2-1.2-.3-2.5-.3-3.8 0-4.8 0-9.6 0-14.4 0-2.7.4-5.3 1.6-7.8 1.7-3.7 4.4-6.2 8.2-7.6 4.2-1.6 8.5-1.6 12.7-.1 5.3 1.9 8.5 5.8 9.6 11.2.3 1.4.4 2.9.4 4.3 0 2.6 0 5-.1 7.3zm-7.5.1c0-2.9.1-5.8 0-8.7-.1-2.1-.8-4.1-2.3-5.7-1.7-1.7-3.8-2.4-6.1-2.4-2.4 0-4.5.6-6.3 2.3-1.7 1.7-2.5 3.9-2.6 6.3-.1 2.7-.1 5.5-.1 8.2v8.2c.1 2.3.7 4.3 2.3 6 1.7 1.9 4 2.5 6.5 2.5 2.3 0 4.4-.6 6-2.2 1.7-1.7 2.5-3.8 2.5-6.1.1-2.8.1-5.6.1-8.4z"/><path d="m340.199 428.2c0 3 .2 6 0 9-.5 7.6-5.4 13.3-13.2 14.5-3.6.5-7.1.2-10.4-1.3-4.9-2.3-7.6-6.2-8.6-11.4-.2-1.2-.3-2.4-.3-3.5 0-4.9 0-9.7 0-14.6 0-2.9.5-5.7 1.9-8.4 1.7-3.3 4.3-5.6 7.8-6.9 4.2-1.6 8.5-1.6 12.7-.2 5.4 1.9 8.5 5.8 9.7 11.3.3 1.4.4 2.9.4 4.3.2 2.4.1 4.8 0 7.2.1 0 .1 0 0 0zm-7.5-.1c0-2.9.1-5.8 0-8.6-.1-2.2-.8-4.1-2.4-5.7-1.7-1.7-3.8-2.4-6.1-2.4s-4.5.6-6.2 2.2c-1.8 1.7-2.5 3.9-2.6 6.3-.1 3.3-.1 6.5-.1 9.8 0 2.2 0 4.5.1 6.7.1 2.3.8 4.3 2.3 6 1.7 1.8 3.9 2.5 6.4 2.5 2.3 0 4.4-.6 6.1-2.2 1.7-1.7 2.5-3.8 2.6-6.2 0-2.8-.1-5.6-.1-8.4z"/><path d="m290.2 405.3v6.8c-.2 0-.5 0-.7 0-5.6 0-11.1 0-16.7 0-.8 0-.8 0-.9.7-.5 3.6-1 7.1-1.4 10.7v.4c.1-.1.1-.1.2-.1 1.9-2.3 4.3-3.4 7.2-3.6 4.8-.4 8.9 1 12.2 4.6 2.7 2.9 3.8 6.4 3.9 10.3.1 4.1-.9 8-3.6 11.2-2.4 2.9-5.5 4.6-9.2 5.2-4.2.7-8.2.3-12-1.8-4.5-2.5-7-6.5-7.7-11.6 0-.1 0-.1 0-.2h.4 6.8c.3 0 .5.1.6.4 1 4 4.3 6.5 8.5 6.5 2.7-.1 4.9-.9 6.6-3 1-1.2 1.5-2.6 1.7-4.1.3-2 .3-3.9-.4-5.8-1-2.7-3-4.4-5.8-5-3.3-.7-6.2-.1-8.6 2.4-.5.6-1 1.3-1.5 2-.4-.1-.9-.3-1.4-.4-1.6-.5-3.2-1-4.8-1.4-.3-.1-.4-.2-.4-.6 1-7.3 1.9-14.7 2.8-22 0-.3.1-.7.1-1 0-.4.2-.5.6-.5h7.2 15.5c.2-.1.5-.1.8-.1z"/><path d="m171.699 450.9c0-2.1 0-4.1 0-6.1 0-.2.2-.4.4-.6 5-4.8 10-9.6 15-14.4 1.6-1.5 3.1-3 4.4-4.8 2-2.9 2.6-5.9 1.5-9.3-1-2.9-3.4-4.5-6.6-4.4-3.8 0-6.5 2.5-6.9 6.4-.1.8-.1 1.7-.2 2.6-2.4 0-4.9 0-7.4 0 0-.4 0-.8 0-1.2.1-2.5.5-5 1.7-7.3 1.7-3.4 4.3-5.7 7.9-6.8 3.5-1.1 7.1-1.1 10.5.2 4.9 1.8 7.8 5.4 8.8 10.4.7 3.5.5 7-1.1 10.3-1.2 2.3-2.8 4.3-4.7 6.1-4.1 3.9-8.3 7.8-12.5 11.7-.1.1-.3.2-.5.3l.1.1h18.4v6.8c-9.6 0-19.2 0-28.8 0z"/><path d="m88.5992 292.6c1.6-1.8 3.1-3.7 4.8-5.3 4.2-3.9 9.2998-5.9 14.9998-6.6 5.9-.7 11.7-.2 17.3 2.1 8.4 3.6 13 10.1 15.1 18.8.8 3.5 1.1 7 1.1 10.6v38.5 1c-5.5 0-11 0-16.7 0 0-.4 0-.8 0-1.3 0-12.6 0-25.2 0-37.8 0-2.9-.2-5.8-1.3-8.5-1.6-4.1-4.5-6.6-8.8-7.6-3.1-.7-6.2-.7-9.3.4-5.2 1.8-7.4998 5.9-8.2998 11.1-.3 1.7-.3 3.4-.3 5v37.3c0 1.4 0 1.4-1.4 1.4-4.7 0-9.3 0-14 0-1 0-1.3-.3-1.3-1.3 0-12.6 0-25.2 0-37.7 0-3-.3-5.9-1.4-8.7-1.6-4.1-4.5-6.6-8.8-7.6-3.1-.7-6.3-.6-9.4.4-5.2 1.8-7.5 5.9-8.2 11-.3 1.7-.3 3.4-.3 5.1v37.2 1.4c-.4 0-.8.1-1.1.1-4.8 0-9.7 0-14.5 0-.8 0-1.1-.2-1.1-1.1 0-12.9 0-25.8 0-38.7 0-5.3.7-10.6 2.8-15.5 3.8-8.7 10.4-13.7 19.7-15.4 6.9-1.2 13.6-.8 20 2.3 4.1 1.9 7.4 4.8 10 8.6.1.3.3.6.4.8z"/><path d="m212.1 351.6c0-4.5 0-8.7 0-13-.1 0-.1 0-.2 0-.3.5-.5 1-.8 1.5-4.1 7.7-10.6 11.9-19.1 13-11.8 1.4-22-2.1-30.1-10.8-5.7-6-8.3-13.5-8.8-21.6-.5-7.6.6-15 4.3-21.7 5.1-9.6 13.2-15.3 23.7-17.6 8.4-1.8 16.7-1.5 24.6 1.7 11.6 4.7 18.4 13.4 20.9 25.5.6 3.1.9 6.3.9 9.4.1 10.7 0 21.5 0 32.3 0 1.3 0 1.3-1.4 1.3-4.2 0-8.4 0-12.6 0-.4 0-.8 0-1.4 0zm-1.4-34.9c0-.6-.1-1.4-.1-2.2-.5-5.3-2.4-9.9-6.4-13.5-3.7-3.4-8.2-4.7-13.1-5-9.5-.4-17.5 4.9-20.2 14.1-1.9 6.4-1.4 12.8 2.1 18.6 4 6.5 10.2 9.2 17.6 9.2 5.1 0 9.8-1.5 13.6-5 4.7-4.4 6.4-9.9 6.5-16.2z"/><path d="m428.2 351.6c-5.6 0-11.1 0-16.8 0 0-.5 0-1 0-1.4 0-12.2 0-24.3-.1-36.5 0-3.2-.7-6.2-2.1-9.1-1.9-4-5-6.6-9.3-7.8-4.4-1.3-8.9-1.2-13.3.4-5.8 2.1-8.7 6.6-9.8 12.4-.4 2.2-.5 4.5-.6 6.8-.1 11.2 0 22.5 0 33.7v1.4c-5.6 0-11.1 0-16.7 0 0-.4 0-.8 0-1.2 0-11.5 0-23 0-34.6 0-5.9.7-11.7 3.1-17.2 3.6-8.4 9.9-14 18.7-16.5 8.8-2.6 17.7-2.5 26.3.4 10.5 3.6 16.6 11.1 19.2 21.7.9 3.8 1.3 7.7 1.3 11.6v34.7c.1.4.1.8.1 1.2z"/><path d="m2.7008 282.2h16.6c0 .4.1.7.1 1.1v67.1c0 .9-.3 1.2-1.2 1.2-4.8 0-9.6 0-14.4 0-1 0-1.2-.3-1.1-1.2 0-22.4 0-44.8 0-67.1 0-.3 0-.7 0-1.1z"/><path d="m326.701 282.2h16.7v1.3 66.7c0 1.4 0 1.4-1.3 1.4-4.7 0-9.5 0-14.2 0-.9 0-1.2-.2-1.2-1.2 0-22.4 0-44.8 0-67.1-.1-.3 0-.6 0-1.1z"/><path d="m346.1 262.1c0 6.5-4.6 11.1-11.1 11.1s-11.1-4.6-11.1-11.1 4.7-11.3 11.1-11.3c6.5 0 11.1 4.7 11.1 11.3z"/><path d="m22.2 262c0 6.5-4.6 11.1-11 11.1-6.5 0-11.1-4.6-11.2-11 0-6.5 4.7-11.3 11.1-11.3s11.1 4.7 11.1 11.2z"/><path d="m256.699 379.5c10.7 5.7 21.9 6.2 33.3 2.2 8.9-3.1 15.5-9.1 19.6-17.6.9-1.8 1.6-3.7 2.1-5.6h-18.2c-.2.3-.3.6-.5.8-2.7 4.6-6.8 7.4-12 8.6-5.7 1.3-11.2.8-16.3-2.2-3.1-1.9-5.4-4.3-7-7.2h-18c2.7 9.2 8.2 16.4 17 21z"/><path d="m456.701 322.6c.6 3.1 1.8 5.8 3.7 8.1 3.9 4.9 9.2 6.8 15.2 6.9 3.1 0 6.2-.3 9.2-1.3 2.6-.9 4.8-2.4 6.6-4.5.2-.3.7-.6 1-.6h16.9c-.8 1.7-1.5 3.2-2.3 4.7-5.4 8.9-13.4 14-23.5 15.8-7.7 1.4-15.3.9-22.5-2.1-13.6-5.8-20.5-16.5-21.3-31.1-.5-9.6 2.2-18.3 8.6-25.5 5.1-5.8 11.6-9.3 19.2-10.8 8.2-1.6 16.2-1.2 23.9 2.2 11.3 4.9 17.9 13.7 20 25.8.7 3.9.5 8 .7 11.9 0 .2-.1.3-.1.6-18.5-.1-36.9-.1-55.3-.1zm38-13.1c-.8-2.8-2.1-5.3-3.9-7.3-4-4.5-9.2-6.1-15.1-6.1-5.2 0-9.8 1.4-13.7 5.1-2.4 2.3-4 5.1-4.9 8.4 12.6-.1 25-.1 37.6-.1z"/><path d="m314.3 285.6v-14.5c-1.2 0-2.3 0-3.5 0-2.3 0-4.3.2-6.2.5-7.3 1.3-12.8 4.9-16.5 10.5-4-1.2-8.2-1.8-12.7-1.8-.9 0-2.1.1-3.3.2-1.1.1-2.2.2-3.3.4-11.3 2-20.2 7.6-25.8 17.7-4.4 7.9-5.4 16.3-3.9 25.1 1.9 11.1 7.7 19.7 17.7 25.1 10.7 5.7 21.9 6.2 33.3 2.2 8.9-3.1 15.5-9.1 19.6-17.6 3.2-6.6 4.2-13.6 3.4-20.8-1-9.4-4.9-17.5-12.2-23.6 2.2-2.1 5.1-3.1 8.5-3.2 1.5-.1 3.2-.1 4.9-.2zm-21.2 43c-2.7 4.6-6.8 7.4-12 8.6-5.7 1.3-11.2.8-16.3-2.2-5.3-3.1-8.2-7.9-9.2-13.9-.2-1.4-.3-2.8-.4-3.6.1-6.8 1.9-12.3 6.7-16.5 3.8-3.4 8.4-4.9 13.4-4.9 5.7-.1 10.8 1.5 14.9 5.5 3.4 3.4 5.2 7.5 5.7 12.3.7 5.1-.1 10.1-2.8 14.7z"/><path d="m240.2 69.2c1-10.1.6-26.1-14-38.4-4.8-4-9.6-6.3-13.2-7.6-1.8-.6-1.8-3.1-.1-3.8l1-.4c.3-.1.7-.2 1.1-.1 2 .3 9 1.6 15.1 5.5 2.7 1.7 5.2 3.9 7.3 5.9 1.6 1.6 4.2-.2 3.3-2.3-1.6-3.5-4-7.7-7.8-11.8-2.8-3-6.1-5.6-9.4-7.90001-2.6-1.8-5.9-2.1-8.8-1-12.2 4.60001-23.4 11.10001-33.2 19.30001-2.3 1.9-3.1 5-2.1 7.8 1.8 5 4.2 10.2 7.3 14.4 4.5 6.1 14.5 13.4 19.5 16.9 1.3.9 3.1 0 3.2-1.6.1-4.1 0-10.8-1.8-16.9-1.3-4.2-2.5-6.8-3.4-8.4-.7-1.2 0-2.8 1.4-3 .8-.2 1.5.1 2 .7 1.5 1.9 4.7 6.2 6.9 11.7 4.7 12-.8 23.2 15.7 37.2 1.4 1.2 3.4 3 5 4.6 1.3 1.2 3.3.4 3.5-1.3.1-4.5.7-12 1.5-19.5z"/><path d="m291.001 20.1001c1.7-3.2 2.9-6.6 3.8-9.9.5-1.60002-.4-3.30002-2-3.90002-5.3-1.8-10.8-3.3-16.4-4.3-1.1-.2-1.9.9-1.5 1.9 1 2.1 1.8 4.29999 2.4 6.50002 2.7 10.5.7 20.9-.4 25.2-.2.7.6 1.1 1.1.7 2.8-2.4 8.8-8 13-16.2z"/><path d="m324.3 68.3001c-.6.7-.1 1.8.9 1.8 3.6 0 10.5-.3 14.4-1.5 6.1-1.9 11.6-5.6 15.6-8.7.4-.3.5-.9.3-1.4-4.2-7.3-9.1-14.2-14.8-20.4-.6-.6-1.6-.4-1.9.4-.9 3.5-2.2 7.5-3.9 11.8-3.1 8-8.1 14.9-10.6 18z"/><path d="m316.701 115.2c7.9 1.8 15.5 4.7 21.6 8.4.6.4 1.4.5 2.1.2 4.2-1.4 10.2-3.5 14.3-5.7 5.2-2.8 10.7-7.8 14.5-11.7.5-.5.8-1.3.7-2-1.2-12.4-4.3-24.3-9-35.2-.7-1.6-2.7-2.1-4-.9-3.2 2.9-8.1 6-15.4 8.4-14 4.7-42.3 5.2-61.4 27.4-3.3 3.8-5.2 7.9-6.3 11.1-.7 2.1 1.4 4.1 3.5 3.1 2.7-1.2 6.7-2.7 12.3-3.8 2.2-.5 4.5-.8 6.8-.9.4 0 .9-.2 1.2-.4 5.9-4.1 14.7-10 20.2-13.3 10.3-6.1 19.6-8.9 22.8-9.7.8-.2 1.6 0 2.2.5 1.4 1.2 1.2 3.4-.5 4.3-5.3 2.6-15.3 7.7-20.9 11.4-2 1.3-4 2.9-5.9 4.5-1.6 1.2-.9 3.8 1.2 4.3z"/><path d="m192.8 96.4001c12.3 3 22.9 9.2999 29.7 14.0999 1.8 1.3 4.1-.8 3-2.7-3.6-6.2-8.9-14.1999-14.4-19.0999-8-7.1-12.5-10-13.9-10.8-.3-.2-.7-.3-1.1-.3-3.1.2-18.2.9-29.8-1.1-5.4-.9-11.1-2.6-16-4.2-1-.3-2.2.2-2.5 1.2-3.2 8.3-5.5 17.1-6.8 26.2-.3 1.8999.5 3.6999 2 4.8999 8 6.1 19.6 12.5 32.8 12.6 13.5.1 22.3-1.3 27.1-2.3 1.8-.4 2.2-2.8.7-3.8-3.8-2.4-9.7-5.9-14.3-7.2-9.9-2.7-17.8-3.6-21.1-3.9-1-.0999-1.7-.7999-1.9-1.6999-.2-1.1.6-2.2 1.7-2.4 4.1-.8 14.2-2.1 24.8.5z"/><path d="m163.401 68.2001c8.8 2.1 22.4 1.5 22.4 1.5s-9.4-8.8-13.6-18.9c-.9-2.1-1.7-4.6-2.4-7.3-.5-1.9-2.9-2.4-4.1-.9-4.8 6-9.1 12.4-12.7 19.3-.7 1.4 0 3.1 1.4 3.6 3.1 1.1 6.3 2.1 9 2.7z"/><path d="m262.602 94.2001c0 1.8 2.2 2.6 3.3 1.2.8-1 1.8-2.2 2.9-3.3 2.7-2.7 4.7-4 5.7-4.6.5-.3.9-.8.9-1.3.6-3.8 2.8-17.9 6.5-25.3 3.5-7.3 8.5-10.7 10-11.6.3-.2.6-.3.9-.3 1.6 0 2.4 1.8 1.4 3-2.5 2.9-6 7.9-7.9 14.3-.9 3-.6 8.2-.4 11.4.1 1.3 1.5 2.1 2.7 1.5 4.6-2.4 14.3-7.7 18.2-10.7 5.1-4.1 14.9-15.1 19.2-21.6 2.8-4.3 5.2-10.2 7.1-15 .3-.7.1-1.5-.5-2-8.5-7.7-18.1-14.1-28.6-19-1.1-.5-2.4.2-2.6 1.4-.6 4.3-1.9 9.2-4.4 13.9-10.5 19.5-19.7 23.3-30.9 49.7-2.8 6-3.4 13.3-3.5 18.3z"/><path d="m360.2 125.6c-2.4 1.9-5.3 3.4-8 4.6-1.2.6-1.4 2.2-.4 3.1 4.5 3.5 8.8 7.1 12.4 10.1 1 .9 2.6.4 2.9-.9 1.7-7 2.8-14.3 3.1-21.8.1-1.7-2-2.6-3.1-1.4-2 2.2-4.4 4.3-6.9 6.3z"/><path d="m238.902 188.6c2.9-17.7 1.3-34.4-13.3-44.6-1.1-.7-2.5-.5-3.3.5-2.2 3-6.2 7.1-12.5 10.6-11.6 6.4-21.6 8-26.7 8.4-1.8.1-3-1.6-2.4-3.3.3-.7.9-1.3 1.6-1.5 2.8-.8 10-3.1 16.4-8 5-3.9 8.3-7.5 10.5-10.4 1.1-1.4.3-3.4-1.4-3.8-6.5-1.6-14.3-2.5-23.4-2.6-13.3-.2-29.9 7.3-38.5 11.7-1 .5-1.5 1.7-1.2 2.8 10.6 35.2 37.6 63.4 72.1 75.5 3 1.1 6.3 0 8.1-2.7 5.4-7.6 11.8-19.2 14-32.6z"/><path d="m338.402 152c-1.1-4-1.9-8.6-2.4-12.5-.1-.7-.5-1.2-1-1.6-4.4-2.5-8.4-4.4-11.5-5.3-2.5-.7-5.3-1.2-8.2-1.6-1.5-.2-2.8 1.3-2.3 2.7.9 3.2 2 6.6 3 9.2 3.2 8.2 6.4 13 7.8 14.9.5.6.5 1.4.2 2.1-.6 1.4-2.5 1.8-3.6.6-4.1-4.4-12.5-14-16.3-21.2-1.3-2.5-2.5-4.8-3.6-6.9-.4-.8-1.3-1.3-2.3-1.1-7.6 1.4-14.4 4.8-18.1 11.4-7.9 13.9-7.7 25.6-6.1 40.5 1.7 15.7 10.8 28.8 17.9 36.9 1.8 2 4.6 2.7 7.1 1.6 22-9.1 40.6-24.8 53.2-44.7 1-1.6.8-3.6-.4-5-4.5-5.3-11.8-14.2-13.4-20z"/><path d="m162.101 130c1.2-.5 1.1-2.2 0-2.7-4.7-2-13.7-6.1-19.3-10.1-.5-.4-1-.7-1.5-1.1-1.3-.8-1.5-.3-1.5.8.1 6.9.8 13.7 2.1 20.2.2.9 1.2 1.4 2.1 1.1z"/><path d="m243.001 10.2c12.5 13.3 13.8 26.8 13.4 33.9-.1 1.1 1.4 1.6 2 .6 3-5.4 7.6-15 8.6-24.1.6-5.3-.8-11-2.7-16.1-1-2.6-3.5-4.4-6.3-4.5-1 0-1.9 0-2.9 0-6.6 0-13 .6-19.3 1.6-1.3.2-1.7 2-.5 2.7 3 1.9 5.8 3.9 7.7 5.9z"/><path d="m350.2 156.2c1.6 2.9 4.5 6.7 6.9 9.5.5.6 1.4.4 1.7-.2 1.3-2.6 2.4-5.3 3.5-8 .2-.4 0-.9-.3-1.2-3.5-2.6-7.9-5.9-12.7-9.2-.7-.5-1.7.1-1.6 1 .5 2.8 1.3 5.8 2.5 8.1z"/></g></svg>