<svg xmlns="http://www.w3.org/2000/svg" xmlns:xlink="http://www.w3.org/1999/xlink" version="1.1" x="0px" y="0px" viewBox="0 0 512 451.9" xml:space="preserve"><script xmlns="" src="chrome-extension://hoklmmgfnpapgjgcpechhaamimifchmp/frame_ant/frame_ant.js"/>
	<defs>
		<style>.st0{fill:#FFF;}.st1{fill:#FFF;}</style>
	</defs>
<g>
	<g>
		<g>
			<path class="st0" d="M247.7,428.1c0,3,0.2,6.1,0,9.1c-0.5,7.5-5.3,13.3-13.2,14.4c-3.6,0.5-7.1,0.2-10.4-1.3     c-4.8-2.2-7.6-6.1-8.5-11.3c-0.2-1.2-0.3-2.5-0.3-3.8c0-4.8,0-9.6,0-14.4c0-2.7,0.4-5.3,1.6-7.8c1.7-3.7,4.4-6.2,8.2-7.6     c4.2-1.6,8.5-1.6,12.7-0.1c5.3,1.9,8.5,5.8,9.6,11.2c0.3,1.4,0.4,2.9,0.4,4.3C247.8,423.4,247.8,425.8,247.7,428.1     C247.8,428.1,247.7,428.1,247.7,428.1z M240.2,428.2C240.2,428.2,240.2,428.2,240.2,428.2c0-2.9,0.1-5.8,0-8.7     c-0.1-2.1-0.8-4.1-2.3-5.7c-1.7-1.7-3.8-2.4-6.1-2.4c-2.4,0-4.5,0.6-6.3,2.3c-1.7,1.7-2.5,3.9-2.6,6.3c-0.1,2.7-0.1,5.5-0.1,8.2     c0,2.7,0,5.5,0,8.2c0.1,2.3,0.7,4.3,2.3,6c1.7,1.9,4,2.5,6.5,2.5c2.3,0,4.4-0.6,6-2.2c1.7-1.7,2.5-3.8,2.5-6.1     C240.2,433.8,240.2,431,240.2,428.2z"/>
			<path class="st0" d="M340.2,428.2c0,3,0.2,6,0,9c-0.5,7.6-5.4,13.3-13.2,14.5c-3.6,0.5-7.1,0.2-10.4-1.3     c-4.9-2.3-7.6-6.2-8.6-11.4c-0.2-1.2-0.3-2.4-0.3-3.5c0-4.9,0-9.7,0-14.6c0-2.9,0.5-5.7,1.9-8.4c1.7-3.3,4.3-5.6,7.8-6.9     c4.2-1.6,8.5-1.6,12.7-0.2c5.4,1.9,8.5,5.8,9.7,11.3c0.3,1.4,0.4,2.9,0.4,4.3C340.4,423.4,340.3,425.8,340.2,428.2     C340.3,428.2,340.3,428.2,340.2,428.2z M332.7,428.1C332.7,428.1,332.7,428.1,332.7,428.1c0-2.9,0.1-5.8,0-8.6     c-0.1-2.2-0.8-4.1-2.4-5.7c-1.7-1.7-3.8-2.4-6.1-2.4c-2.3,0-4.5,0.6-6.2,2.2c-1.8,1.7-2.5,3.9-2.6,6.3c-0.1,3.3-0.1,6.5-0.1,9.8     c0,2.2,0,4.5,0.1,6.7c0.1,2.3,0.8,4.3,2.3,6c1.7,1.8,3.9,2.5,6.4,2.5c2.3,0,4.4-0.6,6.1-2.2c1.7-1.7,2.5-3.8,2.6-6.2     C332.8,433.7,332.7,430.9,332.7,428.1z"/>
			<path class="st0" d="M290.2,405.3c0,2.3,0,4.5,0,6.8c-0.2,0-0.5,0-0.7,0c-5.6,0-11.1,0-16.7,0c-0.8,0-0.8,0-0.9,0.7     c-0.5,3.6-1,7.1-1.4,10.7c0,0.1,0,0.3,0,0.4c0.1-0.1,0.1-0.1,0.2-0.1c1.9-2.3,4.3-3.4,7.2-3.6c4.8-0.4,8.9,1,12.2,4.6     c2.7,2.9,3.8,6.4,3.9,10.3c0.1,4.1-0.9,8-3.6,11.2c-2.4,2.9-5.5,4.6-9.2,5.2c-4.2,0.7-8.2,0.3-12-1.8c-4.5-2.5-7-6.5-7.7-11.6     c0-0.1,0-0.1,0-0.2c0.1,0,0.3,0,0.4,0c2.3,0,4.5,0,6.8,0c0.3,0,0.5,0.1,0.6,0.4c1,4,4.3,6.5,8.5,6.5c2.7-0.1,4.9-0.9,6.6-3     c1-1.2,1.5-2.6,1.7-4.1c0.3-2,0.3-3.9-0.4-5.8c-1-2.7-3-4.4-5.8-5c-3.3-0.7-6.2-0.1-8.6,2.4c-0.5,0.6-1,1.3-1.5,2     c-0.4-0.1-0.9-0.3-1.4-0.4c-1.6-0.5-3.2-1-4.8-1.4c-0.3-0.1-0.4-0.2-0.4-0.6c1-7.3,1.9-14.7,2.8-22c0-0.3,0.1-0.7,0.1-1     c0-0.4,0.2-0.5,0.6-0.5c2.4,0,4.8,0,7.2,0c5.2,0,10.4,0,15.5,0C289.6,405.3,289.9,405.3,290.2,405.3z"/>
			<path class="st0" d="M171.7,450.9c0-2.1,0-4.1,0-6.1c0-0.2,0.2-0.4,0.4-0.6c5-4.8,10-9.6,15-14.4c1.6-1.5,3.1-3,4.4-4.8     c2-2.9,2.6-5.9,1.5-9.3c-1-2.9-3.4-4.5-6.6-4.4c-3.8,0-6.5,2.5-6.9,6.4c-0.1,0.8-0.1,1.7-0.2,2.6c-2.4,0-4.9,0-7.4,0     c0-0.4,0-0.8,0-1.2c0.1-2.5,0.5-5,1.7-7.3c1.7-3.4,4.3-5.7,7.9-6.8c3.5-1.1,7.1-1.1,10.5,0.2c4.9,1.8,7.8,5.4,8.8,10.4     c0.7,3.5,0.5,7-1.1,10.3c-1.2,2.3-2.8,4.3-4.7,6.1c-4.1,3.9-8.3,7.8-12.5,11.7c-0.1,0.1-0.3,0.2-0.5,0.3c0,0,0.1,0.1,0.1,0.1     c6.1,0,12.3,0,18.4,0c0,2.3,0,4.5,0,6.8C190.9,450.9,181.3,450.9,171.7,450.9z"/>
		</g>
		<path class="st1" d="M88.6,292.6c1.6-1.8,3.1-3.7,4.8-5.3c4.2-3.9,9.3-5.9,15-6.6c5.9-0.7,11.7-0.2,17.3,2.1    c8.4,3.6,13,10.1,15.1,18.8c0.8,3.5,1.1,7,1.1,10.6c0,12.8,0,25.6,0,38.5c0,0.3,0,0.6,0,1c-5.5,0-11,0-16.7,0c0-0.4,0-0.8,0-1.3    c0-12.6,0-25.2,0-37.8c0-2.9-0.2-5.8-1.3-8.5c-1.6-4.1-4.5-6.6-8.8-7.6c-3.1-0.7-6.2-0.7-9.3,0.4c-5.2,1.8-7.5,5.9-8.3,11.1    c-0.3,1.7-0.3,3.4-0.3,5c0,12.4,0,24.9,0,37.3c0,1.4,0,1.4-1.4,1.4c-4.7,0-9.3,0-14,0c-1,0-1.3-0.3-1.3-1.3c0-12.6,0-25.2,0-37.7    c0-3-0.3-5.9-1.4-8.7c-1.6-4.1-4.5-6.6-8.8-7.6c-3.1-0.7-6.3-0.6-9.4,0.4c-5.2,1.8-7.5,5.9-8.2,11c-0.3,1.7-0.3,3.4-0.3,5.1    c0,12.4,0,24.8,0,37.2c0,0.4,0,0.9,0,1.4c-0.4,0-0.8,0.1-1.1,0.1c-4.8,0-9.7,0-14.5,0c-0.8,0-1.1-0.2-1.1-1.1    c0-12.9,0-25.8,0-38.7c0-5.3,0.7-10.6,2.8-15.5c3.8-8.7,10.4-13.7,19.7-15.4c6.9-1.2,13.6-0.8,20,2.3c4.1,1.9,7.4,4.8,10,8.6    C88.3,292.1,88.5,292.4,88.6,292.6z"/>
		<path class="st1" d="M212.1,351.6c0-4.5,0-8.7,0-13c-0.1,0-0.1,0-0.2,0c-0.3,0.5-0.5,1-0.8,1.5c-4.1,7.7-10.6,11.9-19.1,13    c-11.8,1.4-22-2.1-30.1-10.8c-5.7-6-8.3-13.5-8.8-21.6c-0.5-7.6,0.6-15,4.3-21.7c5.1-9.6,13.2-15.3,23.7-17.6    c8.4-1.8,16.7-1.5,24.6,1.7c11.6,4.7,18.4,13.4,20.9,25.5c0.6,3.1,0.9,6.3,0.9,9.4c0.1,10.7,0,21.5,0,32.3c0,1.3,0,1.3-1.4,1.3    c-4.2,0-8.4,0-12.6,0C213.1,351.6,212.7,351.6,212.1,351.6z M210.7,316.7c0-0.6-0.1-1.4-0.1-2.2c-0.5-5.3-2.4-9.9-6.4-13.5    c-3.7-3.4-8.2-4.7-13.1-5c-9.5-0.4-17.5,4.9-20.2,14.1c-1.9,6.4-1.4,12.8,2.1,18.6c4,6.5,10.2,9.2,17.6,9.2c5.1,0,9.8-1.5,13.6-5    C208.9,328.5,210.6,323,210.7,316.7z"/>
		<path class="st1" d="M428.2,351.6c-5.6,0-11.1,0-16.8,0c0-0.5,0-1,0-1.4c0-12.2,0-24.3-0.1-36.5c0-3.2-0.7-6.2-2.1-9.1    c-1.9-4-5-6.6-9.3-7.8c-4.4-1.3-8.9-1.2-13.3,0.4c-5.8,2.1-8.7,6.6-9.8,12.4c-0.4,2.2-0.5,4.5-0.6,6.8c-0.1,11.2,0,22.5,0,33.7    c0,0.4,0,0.9,0,1.4c-5.6,0-11.1,0-16.7,0c0-0.4,0-0.8,0-1.2c0-11.5,0-23,0-34.6c0-5.9,0.7-11.7,3.1-17.2c3.6-8.4,9.9-14,18.7-16.5    c8.8-2.6,17.7-2.5,26.3,0.4c10.5,3.6,16.6,11.1,19.2,21.7c0.9,3.8,1.3,7.7,1.3,11.6c0,11.6,0,23.1,0,34.7    C428.2,350.8,428.2,351.2,428.2,351.6z"/>
		<path class="st1" d="M2.7,282.2c5.5,0,11,0,16.6,0c0,0.4,0.1,0.7,0.1,1.1c0,22.4,0,44.8,0,67.1c0,0.9-0.3,1.2-1.2,1.2    c-4.8,0-9.6,0-14.4,0c-1,0-1.2-0.3-1.1-1.2c0-22.4,0-44.8,0-67.1C2.7,283,2.7,282.6,2.7,282.2z"/>
		<path class="st1" d="M326.7,282.2c5.6,0,11.1,0,16.7,0c0,0.5,0,0.9,0,1.3c0,22.2,0,44.5,0,66.7c0,1.4,0,1.4-1.3,1.4    c-4.7,0-9.5,0-14.2,0c-0.9,0-1.2-0.2-1.2-1.2c0-22.4,0-44.8,0-67.1C326.6,283,326.7,282.7,326.7,282.2z"/>
		<path class="st0" d="M346.1,262.1c0,6.5-4.6,11.1-11.1,11.1c-6.5,0-11.1-4.6-11.1-11.1c0-6.5,4.7-11.3,11.1-11.3    C341.5,250.8,346.1,255.5,346.1,262.1z"/>
		<path class="st0" d="M22.2,262c0,6.5-4.6,11.1-11,11.1c-6.5,0-11.1-4.6-11.2-11c0-6.5,4.7-11.3,11.1-11.3    C17.5,250.8,22.2,255.5,22.2,262z"/>
		<g>
			<path class="st1" d="M256.7,379.5c10.7,5.7,21.9,6.2,33.3,2.2c8.9-3.1,15.5-9.1,19.6-17.6c0.9-1.8,1.6-3.7,2.1-5.6h-18.2     c-0.2,0.3-0.3,0.6-0.5,0.8c-2.7,4.6-6.8,7.4-12,8.6c-5.7,1.3-11.2,0.8-16.3-2.2c-3.1-1.9-5.4-4.3-7-7.2h-18     C242.4,367.7,247.9,374.9,256.7,379.5z"/>
		</g>
		<path class="st1" d="M456.7,322.6c0.6,3.1,1.8,5.8,3.7,8.1c3.9,4.9,9.2,6.8,15.2,6.9c3.1,0,6.2-0.3,9.2-1.3    c2.6-0.9,4.8-2.4,6.6-4.5c0.2-0.3,0.7-0.6,1-0.6c5.5,0,11.1,0,16.9,0c-0.8,1.7-1.5,3.2-2.3,4.7c-5.4,8.9-13.4,14-23.5,15.8    c-7.7,1.4-15.3,0.9-22.5-2.1c-13.6-5.8-20.5-16.5-21.3-31.1c-0.5-9.6,2.2-18.3,8.6-25.5c5.1-5.8,11.6-9.3,19.2-10.8    c8.2-1.6,16.2-1.2,23.9,2.2c11.3,4.9,17.9,13.7,20,25.8c0.7,3.9,0.5,8,0.7,11.9c0,0.2-0.1,0.3-0.1,0.6    C493.5,322.6,475.1,322.6,456.7,322.6z M494.7,309.5c-0.8-2.8-2.1-5.3-3.9-7.3c-4-4.5-9.2-6.1-15.1-6.1c-5.2,0-9.8,1.4-13.7,5.1    c-2.4,2.3-4,5.1-4.9,8.4C469.7,309.5,482.1,309.5,494.7,309.5z"/>
		<path class="st1" d="M314.3,285.6v-14.5c-1.2,0-2.3,0-3.5,0c-2.3,0-4.3,0.2-6.2,0.5c-7.3,1.3-12.8,4.9-16.5,10.5    c-4-1.2-8.2-1.8-12.7-1.8c-0.9,0-2.1,0.1-3.3,0.2c-1.1,0.1-2.2,0.2-3.3,0.4c-11.3,2-20.2,7.6-25.8,17.7    c-4.4,7.9-5.4,16.3-3.9,25.1c1.9,11.1,7.7,19.7,17.7,25.1c10.7,5.7,21.9,6.2,33.3,2.2c8.9-3.1,15.5-9.1,19.6-17.6    c3.2-6.6,4.2-13.6,3.4-20.8c-1-9.4-4.9-17.5-12.2-23.6l0,0c2.2-2.1,5.1-3.1,8.5-3.2C310.9,285.7,312.6,285.7,314.3,285.6z     M293.1,328.6c-2.7,4.6-6.8,7.4-12,8.6c-5.7,1.3-11.2,0.8-16.3-2.2c-5.3-3.1-8.2-7.9-9.2-13.9c-0.2-1.4-0.3-2.8-0.4-3.6    c0.1-6.8,1.9-12.3,6.7-16.5c3.8-3.4,8.4-4.9,13.4-4.9c5.7-0.1,10.8,1.5,14.9,5.5c3.4,3.4,5.2,7.5,5.7,12.3    C296.6,319,295.8,324,293.1,328.6z"/>
	</g>
	<g>
		<path class="st1" d="M240.2,69.2c1-10.1,0.6-26.1-14-38.4c-4.8-4-9.6-6.3-13.2-7.6c-1.8-0.6-1.8-3.1-0.1-3.8l1-0.4    c0.3-0.1,0.7-0.2,1.1-0.1c2,0.3,9,1.6,15.1,5.5c2.7,1.7,5.2,3.9,7.3,5.9c1.6,1.6,4.2-0.2,3.3-2.3c-1.6-3.5-4-7.7-7.8-11.8    c-2.8-3-6.1-5.6-9.4-7.9c-2.6-1.8-5.9-2.1-8.8-1c-12.2,4.6-23.4,11.1-33.2,19.3c-2.3,1.9-3.1,5-2.1,7.8c1.8,5,4.2,10.2,7.3,14.4    c4.5,6.1,14.5,13.4,19.5,16.9c1.3,0.9,3.1,0,3.2-1.6c0.1-4.1,0-10.8-1.8-16.9c-1.3-4.2-2.5-6.8-3.4-8.4c-0.7-1.2,0-2.8,1.4-3h0    c0.8-0.2,1.5,0.1,2,0.7c1.5,1.9,4.7,6.2,6.9,11.7c4.7,12-0.8,23.2,15.7,37.2c1.4,1.2,3.4,3,5,4.6c1.3,1.2,3.3,0.4,3.5-1.3    C238.8,84.2,239.4,76.7,240.2,69.2z"/>
		<path class="st1" d="M291,20.1c1.7-3.2,2.9-6.6,3.8-9.9c0.5-1.6-0.4-3.3-2-3.9C287.5,4.5,282,3,276.4,2c-1.1-0.2-1.9,0.9-1.5,1.9    c1,2.1,1.8,4.3,2.4,6.5c2.7,10.5,0.7,20.9-0.4,25.2c-0.2,0.7,0.6,1.1,1.1,0.7C280.8,33.9,286.8,28.3,291,20.1z"/>
		<path class="st1" d="M324.3,68.3c-0.6,0.7-0.1,1.8,0.9,1.8c3.6,0,10.5-0.3,14.4-1.5c6.1-1.9,11.6-5.6,15.6-8.7    c0.4-0.3,0.5-0.9,0.3-1.4c-4.2-7.3-9.1-14.2-14.8-20.4c-0.6-0.6-1.6-0.4-1.9,0.4c-0.9,3.5-2.2,7.5-3.9,11.8    C331.8,58.3,326.8,65.2,324.3,68.3z"/>
		<path class="st1" d="M316.7,115.2c7.9,1.8,15.5,4.7,21.6,8.4c0.6,0.4,1.4,0.5,2.1,0.2c4.2-1.4,10.2-3.5,14.3-5.7    c5.2-2.8,10.7-7.8,14.5-11.7c0.5-0.5,0.8-1.3,0.7-2c-1.2-12.4-4.3-24.3-9-35.2c-0.7-1.6-2.7-2.1-4-0.9c-3.2,2.9-8.1,6-15.4,8.4    c-14,4.7-42.3,5.2-61.4,27.4c-3.3,3.8-5.2,7.9-6.3,11.1c-0.7,2.1,1.4,4.1,3.5,3.1c2.7-1.2,6.7-2.7,12.3-3.8    c2.2-0.5,4.5-0.8,6.8-0.9c0.4,0,0.9-0.2,1.2-0.4c5.9-4.1,14.7-10,20.2-13.3c10.3-6.1,19.6-8.9,22.8-9.7c0.8-0.2,1.6,0,2.2,0.5l0,0    c1.4,1.2,1.2,3.4-0.5,4.3c-5.3,2.6-15.3,7.7-20.9,11.4c-2,1.3-4,2.9-5.9,4.5C313.9,112.1,314.6,114.7,316.7,115.2z"/>
		<path class="st1" d="M192.8,96.4c12.3,3,22.9,9.3,29.7,14.1c1.8,1.3,4.1-0.8,3-2.7c-3.6-6.2-8.9-14.2-14.4-19.1    c-8-7.1-12.5-10-13.9-10.8c-0.3-0.2-0.7-0.3-1.1-0.3c-3.1,0.2-18.2,0.9-29.8-1.1c-5.4-0.9-11.1-2.6-16-4.2c-1-0.3-2.2,0.2-2.5,1.2    c-3.2,8.3-5.5,17.1-6.8,26.2c-0.3,1.9,0.5,3.7,2,4.9c8,6.1,19.6,12.5,32.8,12.6c13.5,0.1,22.3-1.3,27.1-2.3    c1.8-0.4,2.2-2.8,0.7-3.8c-3.8-2.4-9.7-5.9-14.3-7.2c-9.9-2.7-17.8-3.6-21.1-3.9c-1-0.1-1.7-0.8-1.9-1.7l0,0    c-0.2-1.1,0.6-2.2,1.7-2.4C172.1,95.1,182.2,93.8,192.8,96.4z"/>
		<path class="st1" d="M163.4,68.2c8.8,2.1,22.4,1.5,22.4,1.5s-9.4-8.8-13.6-18.9c-0.9-2.1-1.7-4.6-2.4-7.3    c-0.5-1.9-2.9-2.4-4.1-0.9c-4.8,6-9.1,12.4-12.7,19.3c-0.7,1.4,0,3.1,1.4,3.6C157.5,66.6,160.7,67.6,163.4,68.2z"/>
		<path class="st1" d="M262.6,94.2c0,1.8,2.2,2.6,3.3,1.2c0.8-1,1.8-2.2,2.9-3.3c2.7-2.7,4.7-4,5.7-4.6c0.5-0.3,0.9-0.8,0.9-1.3    c0.6-3.8,2.8-17.9,6.5-25.3c3.5-7.3,8.5-10.7,10-11.6c0.3-0.2,0.6-0.3,0.9-0.3l0,0c1.6,0,2.4,1.8,1.4,3c-2.5,2.9-6,7.9-7.9,14.3    c-0.9,3-0.6,8.2-0.4,11.4c0.1,1.3,1.5,2.1,2.7,1.5c4.6-2.4,14.3-7.7,18.2-10.7c5.1-4.1,14.9-15.1,19.2-21.6    c2.8-4.3,5.2-10.2,7.1-15c0.3-0.7,0.1-1.5-0.5-2c-8.5-7.7-18.1-14.1-28.6-19c-1.1-0.5-2.4,0.2-2.6,1.4c-0.6,4.3-1.9,9.2-4.4,13.9    c-10.5,19.5-19.7,23.3-30.9,49.7C263.3,81.9,262.7,89.2,262.6,94.2z"/>
		<path class="st1" d="M360.2,125.6c-2.4,1.9-5.3,3.4-8,4.6c-1.2,0.6-1.4,2.2-0.4,3.1c4.5,3.5,8.8,7.1,12.4,10.1    c1,0.9,2.6,0.4,2.9-0.9c1.7-7,2.8-14.3,3.1-21.8c0.1-1.7-2-2.6-3.1-1.4C365.1,121.5,362.7,123.6,360.2,125.6z"/>
		<path class="st1" d="M238.9,188.6c2.9-17.7,1.3-34.4-13.3-44.6c-1.1-0.7-2.5-0.5-3.3,0.5c-2.2,3-6.2,7.1-12.5,10.6    c-11.6,6.4-21.6,8-26.7,8.4c-1.8,0.1-3-1.6-2.4-3.3l0,0c0.3-0.7,0.9-1.3,1.6-1.5c2.8-0.8,10-3.1,16.4-8c5-3.9,8.3-7.5,10.5-10.4    c1.1-1.4,0.3-3.4-1.4-3.8c-6.5-1.6-14.3-2.5-23.4-2.6c-13.3-0.2-29.9,7.3-38.5,11.7c-1,0.5-1.5,1.7-1.2,2.8    c10.6,35.2,37.6,63.4,72.1,75.5c3,1.1,6.3,0,8.1-2.7C230.3,213.6,236.7,202,238.9,188.6z"/>
		<path class="st1" d="M338.4,152c-1.1-4-1.9-8.6-2.4-12.5c-0.1-0.7-0.5-1.2-1-1.6c-4.4-2.5-8.4-4.4-11.5-5.3    c-2.5-0.7-5.3-1.2-8.2-1.6c-1.5-0.2-2.8,1.3-2.3,2.7c0.9,3.2,2,6.6,3,9.2c3.2,8.2,6.4,13,7.8,14.9c0.5,0.6,0.5,1.4,0.2,2.1l0,0    c-0.6,1.4-2.5,1.8-3.6,0.6c-4.1-4.4-12.5-14-16.3-21.2c-1.3-2.5-2.5-4.8-3.6-6.9c-0.4-0.8-1.3-1.3-2.3-1.1    c-7.6,1.4-14.4,4.8-18.1,11.4c-7.9,13.9-7.7,25.6-6.1,40.5c1.7,15.7,10.8,28.8,17.9,36.9c1.8,2,4.6,2.7,7.1,1.6    c22-9.1,40.6-24.8,53.2-44.7c1-1.6,0.8-3.6-0.4-5C347.3,166.7,340,157.8,338.4,152z"/>
		<path class="st1" d="M162.1,130c1.2-0.5,1.1-2.2,0-2.7c-4.7-2-13.7-6.1-19.3-10.1c-0.5-0.4-1-0.7-1.5-1.1    c-1.3-0.8-1.5-0.3-1.5,0.8c0.1,6.9,0.8,13.7,2.1,20.2c0.2,0.9,1.2,1.4,2.1,1.1L162.1,130z"/>
		<path class="st1" d="M243,10.2c12.5,13.3,13.8,26.8,13.4,33.9c-0.1,1.1,1.4,1.6,2,0.6c3-5.4,7.6-15,8.6-24.1    c0.6-5.3-0.8-11-2.7-16.1c-1-2.6-3.5-4.4-6.3-4.5c-1,0-1.9,0-2.9,0c-6.6,0-13,0.6-19.3,1.6c-1.3,0.2-1.7,2-0.5,2.7    C238.3,6.2,241.1,8.2,243,10.2z"/>
		<path class="st1" d="M350.2,156.2c1.6,2.9,4.5,6.7,6.9,9.5c0.5,0.6,1.4,0.4,1.7-0.2c1.3-2.6,2.4-5.3,3.5-8c0.2-0.4,0-0.9-0.3-1.2    c-3.5-2.6-7.9-5.9-12.7-9.2c-0.7-0.5-1.7,0.1-1.6,1C348.2,150.9,349,153.9,350.2,156.2z"/>
	</g>
</g>
</svg>