<svg fill="#fff" viewBox="0 0 476.22 148.535" xmlns="http://www.w3.org/2000/svg"><path d="m474.619 26.16c-.375 1.939-1.486 3.618-3.13 4.727-1.228.83-2.659 1.269-4.138 1.269-1.536 0-3.014-.565-4.401-1.681l-7.643 5.154c1.587 3.002 2.392 6.164 2.392 9.406 0 11.27-9.169 20.439-20.437 20.439-11.27 0-20.439-9.169-20.439-20.439 0-3.241.805-6.402 2.395-9.406l-7.646-5.154c-1.387 1.116-2.865 1.681-4.399 1.681-1.482 0-2.913-.439-4.139-1.269-1.64-1.106-2.751-2.788-3.129-4.729-.38-1.94.023-3.914 1.136-5.556 1.374-2.046 3.671-3.268 6.143-3.268 1.482 0 2.914.439 4.141 1.269 2.613 1.76 3.742 5.028 2.865 8.109l7.596 5.12c1.195-1.408 2.518-2.619 3.945-3.607l-4.284-8.057c-.359.119-.762.24-1.214.24-2.751 0-5.259-1.506-6.546-3.932-.931-1.743-1.124-3.749-.544-5.646.576-1.891 1.857-3.445 3.607-4.376 1.065-.568 2.267-.867 3.474-.867 2.748 0 5.255 1.508 6.546 3.935.931 1.748 1.124 3.752.544 5.643-.315 1.034-.91 1.979-1.809 2.875l4.256 8.011c1.579-.616 3.325-1.028 5.211-1.231v-9.156c-3.044-.996-5.12-3.759-5.12-6.912 0-4.085 3.325-7.409 7.411-7.409 4.087 0 7.412 3.323 7.412 7.409 0 3.153-2.077 5.915-5.121 6.912v9.156c1.884.203 3.63.615 5.208 1.231l4.259-8.011c-.899-.896-1.493-1.842-1.809-2.877-.579-1.887-.386-3.891.542-5.643 1.289-2.425 3.797-3.932 6.548-3.932 1.208 0 2.41.299 3.475.869 1.747.931 3.028 2.484 3.604 4.377.579 1.889.388 3.894-.539 5.644-1.292 2.426-3.799 3.932-6.547 3.932-.454 0-.857-.121-1.216-.24l-4.284 8.057c1.427.988 2.75 2.199 3.945 3.607l7.593-5.118c-.877-3.082.253-6.348 2.869-8.111 1.231-.83 2.662-1.269 4.137-1.269 2.469 0 4.77 1.221 6.154 3.268v.001c1.102 1.637 1.504 3.61 1.126 5.555zm-23.028-12.336c.223.721.713 1.316 1.381 1.672 1.341.718 3.11.166 3.827-1.171.351-.667.423-1.434.203-2.155-.221-.721-.711-1.315-1.377-1.671-1.371-.724-3.119-.162-3.827 1.17-.353.669-.427 1.435-.207 2.155zm-28.868-2.152c-.491-.928-1.448-1.505-2.5-1.505-.463 0-.909.112-1.324.334-.666.353-1.154.947-1.374 1.669-.223.723-.149 1.486.206 2.154.708 1.336 2.464 1.892 3.824 1.171.669-.355 1.157-.947 1.376-1.669.219-.726.146-1.491-.208-2.154zm-12.769 12.533c-.145-.744-.569-1.384-1.195-1.804-.466-.317-1.011-.484-1.576-.484-.946 0-1.823.466-2.35 1.245-.422.627-.576 1.38-.433 2.124.145.744.569 1.386 1.193 1.804 1.249.846 3.085.484 3.934-.762.42-.627.572-1.381.427-2.123zm27.308-12.627c1.561 0 2.829-1.268 2.829-2.828s-1.268-2.831-2.829-2.831c-1.56 0-2.831 1.27-2.831 2.831.001 1.56 1.271 2.828 2.831 2.828zm14.988 33.458c0-8.263-6.723-14.986-14.988-14.986s-14.988 6.723-14.988 14.986c0 8.266 6.723 14.992 14.988 14.992s14.988-6.726 14.988-14.992zm17.871-19.753c.145-.74-.009-1.492-.432-2.118-.527-.781-1.405-1.248-2.351-1.248-.562 0-1.106.169-1.576.484-.625.42-1.049 1.062-1.194 1.806-.143.742.008 1.498.43 2.124.84 1.242 2.69 1.601 3.924.761.635-.424 1.058-1.063 1.198-1.803v-.006z"/><path d="m50.915 91.7 58.638 53.701h-12.812l-52.603-47.298-2.056 1.943v45.355h-9.342v-102.52h9.342v45.652l51.796-45.652h12.518z"/><path d="m118.847 145.401h55.913v-8.679h-46.571v-43.563h45.559v-8.68h-45.559v-32.919h46.571v-8.68h-55.913z"/><path d="m256.198 102.198c0 11.17-.686 17.585-4.581 23.828-7.202 11.651-21.215 12.554-25.339 12.554s-18.137-.904-25.34-12.559c-3.894-6.239-4.579-12.653-4.579-23.824v-59.317h-9.342v59.318c0 11.563.472 20.442 6.581 29.436 8.831 12.914 22.648 15.626 32.681 15.626s23.85-2.712 32.684-15.629c6.106-8.991 6.578-17.87 6.578-29.433v-59.318h-9.342v59.318z"/><path d="m366.411 127.38-85.538-84.499h-2.901v102.521h9.342v-83.011l83.925 83.011h4.514v-102.521h-9.342z"/><path d="m397.528 93.159h45.558v-8.68h-45.558v-32.92h13.666v-8.678h-23.008v102.52h55.912v-8.678h-46.57z"/></svg>