<svg fill="none" height="79" viewBox="0 0 171 79" width="171" xmlns="http://www.w3.org/2000/svg"><g fill="#fff"><path d="m96.5503 30.0886h.8996v4.0881h2.5388v.7647h-3.4384z"/><path d="m102.986 33.2272v1.7142h-.904v-1.6993l-1.904-3.1535h.964l1.42 2.3639 1.434-2.3639h.885z"/><path d="m109.933 32.5223c0-.9896-.729-1.7042-1.704-1.7042s-1.704.7146-1.704 1.7042c0 .9895.729 1.7042 1.704 1.7042s1.704-.7147 1.704-1.7042zm-4.318 0c0-1.4344 1.11-2.4939 2.614-2.4939s2.614 1.0545 2.614 2.4939c0 1.4393-1.11 2.4938-2.614 2.4938s-2.614-1.0595-2.614-2.4938z"/><path d="m116.805 30.0886v4.8528h-.739l-2.679-3.2835v3.2835h-.895v-4.8528h.745l2.674 3.2885v-3.2885z"/><path d="m121.039 32.833c0-.4348.339-.7496.739-.7496s.75.3098.75.7496-.345.7547-.75.7547-.739-.3099-.739-.7547z"/><path d="m130.194 31.8178c0-.6097-.41-.9645-1.2-.9645h-1.054v1.9291h1.054c.79 0 1.2-.3549 1.2-.9646zm.91 0c0 1.0695-.79 1.7242-2.065 1.7242h-1.094v1.3994h-.9v-4.8528h1.999c1.275 0 2.065.6497 2.065 1.7242"/><path d="m135.302 33.1122-.915-2.119-.909 2.119zm.3.7047h-2.424l-.48 1.1245h-.929l2.184-4.8528h.884l2.189 4.8528h-.944l-.485-1.1245z"/><path d="m140.299 30.8533h-1.054v1.9341h1.054c.79 0 1.2-.3599 1.2-.9696s-.41-.9645-1.2-.9645zm1.22 4.0881-.99-1.4194c-.06.005-.125.005-.185.005h-1.094v1.4144h-.9v-4.8528h1.994c1.275 0 2.064.6497 2.064 1.7242 0 .7347-.375 1.2744-1.034 1.5343l1.114 1.5943z"/><path d="m145.022 30.8533h-1.609v-.7647h4.118v.7647h-1.609v4.0881h-.9z"/><path d="m150.295 32.6547h-1.904v.7196h1.904z"/><path d="m154.108 34.1798c1.079 0 1.779-.6597 1.779-1.6643 0-1.0045-.7-1.6642-1.779-1.6642h-1.18v3.3285zm-2.079-4.0881h2.119c1.574 0 2.649.9695 2.649 2.4238 0 1.4544-1.075 2.4239-2.649 2.4239h-2.119v-4.8527z"/><path d="m159.351 30.0886h-.9v4.8528h.9z"/><path d="m164.993 34.1867v.7547h-3.639v-4.8528h3.544v.7547h-2.644v1.2644h2.344v.7396h-2.344v1.3394z"/><path d="m166.652 32.8273v-2.7387h.899v2.7038c0 .9995.45 1.4293 1.235 1.4293s1.229-.4298 1.229-1.4293v-2.7038h.89v2.7387c0 1.4144-.8 2.184-2.124 2.184-1.325 0-2.129-.7696-2.129-2.184z"/><path d="m42.2052 61.3863c-11.7844 0-21.9947-6.8568-26.8574-16.7922h53.7099c-4.8627 9.9354-15.073 16.7922-26.8574 16.7922m-29.8761-29.881c0-16.4773 13.4038-29.88106 29.881-29.88106 16.4773 0 29.8811 13.40376 29.8811 29.88106 0 4.0581-.8197 7.9313-2.289 11.4646h-55.1841c-1.4743-3.5333-2.289-7.4065-2.289-11.4646zm158.6258 11.4646h-99.4085c1.3944-3.5533 2.169-7.4215 2.169-11.4646 0-17.3719-14.1334-31.5053-31.5053-31.5053-17.3718 0-31.5052 14.1334-31.5052 31.5053 0 4.0431.7746 7.9113 2.169 11.4646h-12.869v1.6242h13.5587c4.9776 10.855 15.9425 18.4164 28.6465 18.4164 12.7041 0 23.664-7.5614 28.6466-18.4164h100.0982z"/><path d="m170.935 52.6316h-1.624v3.0236h1.624z"/><path d="m170.945 59.1865h-1.624v19.381h1.624z"/><path d="m140.699 78.5695 6.547-7.1267 6.647 7.1267h2.219l-7.761-8.3261 2.873-3.1286 10.675 11.4547h2.219l-11.794-12.6541 12.204-13.2838h-2.204l-14.123 15.3728v-15.3728h-1.624v17.142l-4.258 4.6328v-21.7748h-1.625v25.9379z"/></g></svg>