<svg xmlns="http://www.w3.org/2000/svg" xmlns:xlink="http://www.w3.org/1999/xlink" width="197.998" height="85.621" viewBox="0 0 197.998 85.621"><defs><clipPath id="a"><rect width="197.703" height="67.778" fill="none"></rect></clipPath></defs><g transform="translate(-80 -49.222)"><g transform="translate(80 49.222)"><path d="M152.109,21.588,168.135,5.561l16.026,16.026L168.135,37.614ZM168.135,0,146.547,21.588l21.588,21.588,21.588-21.588Z" transform="translate(-95.063)" fill="#FFF"></path><rect width="14.342" height="14.342" transform="translate(62.93 21.465) rotate(-45)" fill="#FFF"></rect><rect width="19.386" height="19.386" transform="translate(15.138 38.088) rotate(-45)" fill="#FFF"></rect><path d="M277.892,56.514l-12,12,12,12.005L289.9,68.519Zm-8.912,12,8.912-8.912,8.912,8.912-8.912,8.912Z" transform="translate(-172.478 -36.66)" fill="#FFF"></path><rect width="7.976" height="7.976" transform="translate(99.774 31.79) rotate(-45)" fill="#FFF"></rect><path d="M7.517,55.993,29.179,34.331,50.84,55.993,29.179,77.655ZM0,55.993,29.179,85.172,58.358,55.993,29.179,26.814Z" transform="translate(0 -17.394)" fill="#FFF"></path><rect width="7.416" height="7.416" transform="translate(123.902 24.515) rotate(-45.002)" fill="#FFF"></rect><path d="M347,37.823,335.838,48.986,347,60.149l11.163-11.163Zm-8.287,11.163L347,40.7l8.287,8.287L347,57.273Z" transform="translate(-217.854 -24.535)" fill="#FFF"></path><path d="M166.051,146.053l-3.532,8.788-3.327-8.788H154.96l-2.785,16.468h4.243l1.41-9.476,3.8,9.476h1.712l3.966-9.476,1.218,9.476h4.267l-2.471-16.468Z" transform="translate(-98.714 -94.743)" fill="#FFF"></path><g clip-path="url(#a)"><path d="M225.6,142.964a9.476,9.476,0,0,1,4.641,1.139,8.472,8.472,0,0,1,3.268,3.153,8.978,8.978,0,0,1,0,8.945,8.468,8.468,0,0,1-3.279,3.171,9.953,9.953,0,0,1-9.271,0,8.4,8.4,0,0,1-3.285-3.171,8.994,8.994,0,0,1,0-8.933,8.422,8.422,0,0,1,3.285-3.159,9.529,9.529,0,0,1,4.641-1.145m0,4.147a4.654,4.654,0,0,0-4.021,2.3,4.608,4.608,0,0,0-.259,4.1,4.627,4.627,0,0,0,2.5,2.5,4.636,4.636,0,0,0,5.8-6.594,4.655,4.655,0,0,0-4.021-2.3" transform="translate(-140.429 -92.739)" fill="#FFF"></path><path d="M276.055,162.521V146.053h4.28l7.872,10.078V146.053h4.267v16.468h-4.267l-7.872-10.078v10.078Z" transform="translate(-179.074 -94.743)" fill="#FFF"></path><path d="M343.75,144.632v5.111a4.724,4.724,0,0,0-5.455-1.477,4,4,0,0,0-1.411.94,4.362,4.362,0,0,0-.917,1.465,4.965,4.965,0,0,0-.331,1.809,4.522,4.522,0,0,0,.572,2.266,4.132,4.132,0,0,0,1.579,1.585,4.487,4.487,0,0,0,2.261.573,4.931,4.931,0,0,0,3.7-1.736v5.063a22.691,22.691,0,0,1-2.2.657,7.324,7.324,0,0,1-1.573.163,8.931,8.931,0,0,1-4.467-1.139,8.61,8.61,0,0,1-3.676-10.808,8.711,8.711,0,0,1,1.874-2.785,8.592,8.592,0,0,1,2.8-1.869,8.7,8.7,0,0,1,3.376-.663,10.643,10.643,0,0,1,3.87.844" transform="translate(-214.823 -93.274)" fill="#FFF"></path><path d="M382.977,159.652h-5.907l-1.134,2.869h-4.52l6.329-16.468h4.665l6.2,16.468h-4.569ZM381.82,156.4l-1.76-5.256-1.8,5.256Z" transform="translate(-240.934 -94.743)" fill="#FFF"></path><path d="M434.237,155.782l5.184,6.739h-5.329l-4.075-6.317v6.317h-4.28V146.053h6.643a6.965,6.965,0,0,1,2.369.35,4.366,4.366,0,0,1,1.682,1.109,5.04,5.04,0,0,1,1.037,1.664,5.4,5.4,0,0,1,.374,1.965,4.791,4.791,0,0,1-.922,3.038,4.642,4.642,0,0,1-2.683,1.6m-4.219-2.351h.784a3.1,3.1,0,0,0,1.941-.542,1.975,1.975,0,0,0-.006-3.02,3.131,3.131,0,0,0-1.935-.536h-.784Z" transform="translate(-276.172 -94.743)" fill="#FFF"></path><path d="M478.3,155.782l5.184,6.739h-5.329l-4.075-6.317v6.317H469.8V146.053h6.643a6.965,6.965,0,0,1,2.369.35,4.366,4.366,0,0,1,1.682,1.109,5.04,5.04,0,0,1,1.037,1.664,5.4,5.4,0,0,1,.374,1.965,4.791,4.791,0,0,1-.922,3.038,4.642,4.642,0,0,1-2.683,1.6m-4.219-2.351h.784a3.1,3.1,0,0,0,1.941-.542,1.975,1.975,0,0,0-.006-3.02,3.131,3.131,0,0,0-1.935-.536h-.784Z" transform="translate(-304.753 -94.743)" fill="#FFF"></path><path d="M520.021,142.964a9.476,9.476,0,0,1,4.641,1.139,8.471,8.471,0,0,1,3.268,3.153,8.978,8.978,0,0,1,0,8.945,8.468,8.468,0,0,1-3.279,3.171,9.953,9.953,0,0,1-9.271,0,8.4,8.4,0,0,1-3.285-3.171,8.994,8.994,0,0,1,0-8.933,8.422,8.422,0,0,1,3.285-3.159,9.529,9.529,0,0,1,4.641-1.145m0,4.147a4.655,4.655,0,0,0-4.021,2.3,4.608,4.608,0,0,0-.259,4.1,4.627,4.627,0,0,0,2.5,2.5,4.636,4.636,0,0,0,5.8-6.594,4.654,4.654,0,0,0-4.021-2.3" transform="translate(-331.42 -92.739)" fill="#FFF"></path></g></g><path d="M3.48.334-.146-8.578H.961L3.48-2.016,5.988-8.578h1.1Zm5.077-3a1.993,1.993,0,0,0,.568,1.438A1.843,1.843,0,0,0,10.5-.639a1.818,1.818,0,0,0,1.365-.589,2,2,0,0,0,.563-1.438A2,2,0,0,0,11.868-4.1,1.818,1.818,0,0,0,10.5-4.693a1.84,1.84,0,0,0-1.38.589A2,2,0,0,0,8.557-2.666Zm-.973,0A2.893,2.893,0,0,1,7.8-3.782a2.81,2.81,0,0,1,.633-.935,2.869,2.869,0,0,1,.943-.624A2.965,2.965,0,0,1,10.5-5.555a2.878,2.878,0,0,1,1.11.217,3.005,3.005,0,0,1,.952.633,2.748,2.748,0,0,1,.633.929,2.878,2.878,0,0,1,.217,1.11,2.834,2.834,0,0,1-.217,1.1,2.763,2.763,0,0,1-.633.923,3.023,3.023,0,0,1-.958.645,2.825,2.825,0,0,1-1.1.223A2.9,2.9,0,0,1,9.381.009a2.94,2.94,0,0,1-.946-.63A2.967,2.967,0,0,1,7.8-1.559,2.828,2.828,0,0,1,7.585-2.666Zm7.52-1.939h-.984v-.756h.984V-7.523h.938v2.162h.984v.756h-.984V0h-.937ZM18.2,0V-5.361h.814v1.113a2.838,2.838,0,0,1,.785-1,1.692,1.692,0,0,1,1.014-.3,1.853,1.853,0,0,1,.316.026,1.944,1.944,0,0,1,.3.079l-.3.826a2.275,2.275,0,0,0-.3-.079,1.463,1.463,0,0,0-.27-.026,1.238,1.238,0,0,0-1.09.524,2.787,2.787,0,0,0-.363,1.579V0Zm8.124-3.287a1.543,1.543,0,0,0-.472-1.093,1.671,1.671,0,0,0-1.163-.384,1.6,1.6,0,0,0-1.113.4,1.615,1.615,0,0,0-.516,1.075Zm.984.744H23.062v.082a1.964,1.964,0,0,0,.492,1.392,1.67,1.67,0,0,0,1.283.53,1.71,1.71,0,0,0,.973-.29,2.535,2.535,0,0,0,.768-.876l.7.469a2.828,2.828,0,0,1-1.031,1.1,2.81,2.81,0,0,1-1.453.369A2.585,2.585,0,0,1,22.81-.58,2.981,2.981,0,0,1,22.054-2.7a2.9,2.9,0,0,1,.75-2.062,2.52,2.52,0,0,1,1.928-.8,2.423,2.423,0,0,1,1.884.762,2.971,2.971,0,0,1,.694,2.08Zm9.275,1.271V-.205a2.9,2.9,0,0,1-.817.325,4.221,4.221,0,0,1-.981.108,2.651,2.651,0,0,1-2-.788,2.861,2.861,0,0,1-.759-2.071,2.915,2.915,0,0,1,.785-2.106,2.665,2.665,0,0,1,2.01-.817,4.026,4.026,0,0,1,.87.094,3.614,3.614,0,0,1,.8.275V-4.2a3.023,3.023,0,0,0-.727-.349A2.483,2.483,0,0,0,35-4.67a1.917,1.917,0,0,0-1.447.565,2.074,2.074,0,0,0-.545,1.5,1.893,1.893,0,0,0,.548,1.383,1.848,1.848,0,0,0,1.374.557,2.343,2.343,0,0,0,.814-.146A3.557,3.557,0,0,0,36.585-1.271Zm5.5-1.359a2.111,2.111,0,0,0-.5-1.462A1.651,1.651,0,0,0,40.3-4.646a1.653,1.653,0,0,0-1.289.51,2.042,2.042,0,0,0-.463,1.424,2.193,2.193,0,0,0,.466,1.5,1.67,1.67,0,0,0,1.321.527A1.65,1.65,0,0,0,41.618-1.2,2.054,2.054,0,0,0,42.084-2.631Zm.891-2.73V0h-.891V-.973a2.344,2.344,0,0,1-.823.894,2.1,2.1,0,0,1-1.122.308,2.369,2.369,0,0,1-1.86-.794,3.044,3.044,0,0,1-.706-2.1,3.083,3.083,0,0,1,.686-2.106,2.317,2.317,0,0,1,1.834-.782,2.2,2.2,0,0,1,1.169.3,2.176,2.176,0,0,1,.8.9V-5.361ZM44.94,0V-5.361h.814v1.113a2.838,2.838,0,0,1,.785-1,1.692,1.692,0,0,1,1.014-.3,1.853,1.853,0,0,1,.316.026,1.944,1.944,0,0,1,.3.079l-.3.826a2.275,2.275,0,0,0-.3-.079,1.463,1.463,0,0,0-.27-.026,1.238,1.238,0,0,0-1.09.524,2.787,2.787,0,0,0-.363,1.579V0Zm4.333,0V-5.361h.814v1.113a2.838,2.838,0,0,1,.785-1,1.692,1.692,0,0,1,1.014-.3,1.853,1.853,0,0,1,.316.026,1.944,1.944,0,0,1,.3.079l-.3.826a2.275,2.275,0,0,0-.3-.079,1.463,1.463,0,0,0-.27-.026,1.238,1.238,0,0,0-1.09.524,2.787,2.787,0,0,0-.363,1.579V0ZM57.4-3.287a1.543,1.543,0,0,0-.472-1.093,1.671,1.671,0,0,0-1.163-.384,1.6,1.6,0,0,0-1.113.4,1.615,1.615,0,0,0-.516,1.075Zm.984.744H54.134v.082a1.964,1.964,0,0,0,.492,1.392,1.67,1.67,0,0,0,1.283.53,1.71,1.71,0,0,0,.973-.29,2.535,2.535,0,0,0,.768-.876l.7.469a2.828,2.828,0,0,1-1.031,1.1,2.81,2.81,0,0,1-1.453.369,2.585,2.585,0,0,1-1.98-.809A2.981,2.981,0,0,1,53.126-2.7a2.9,2.9,0,0,1,.75-2.062,2.52,2.52,0,0,1,1.928-.8,2.423,2.423,0,0,1,1.884.762,2.971,2.971,0,0,1,.694,2.08ZM59.931,0V-9.082h.938V0Zm7.081-2.631a2.111,2.111,0,0,0-.5-1.462,1.651,1.651,0,0,0-1.292-.554,1.653,1.653,0,0,0-1.289.51,2.042,2.042,0,0,0-.463,1.424,2.193,2.193,0,0,0,.466,1.5,1.67,1.67,0,0,0,1.321.527A1.65,1.65,0,0,0,66.546-1.2,2.054,2.054,0,0,0,67.012-2.631Zm.891-2.73V0h-.891V-.973a2.344,2.344,0,0,1-.823.894,2.1,2.1,0,0,1-1.122.308,2.369,2.369,0,0,1-1.86-.794,3.044,3.044,0,0,1-.706-2.1,3.083,3.083,0,0,1,.686-2.106,2.317,2.317,0,0,1,1.834-.782,2.2,2.2,0,0,1,1.169.3,2.176,2.176,0,0,1,.8.9V-5.361Zm6.056,2.7a2.1,2.1,0,0,0-.492-1.453,1.653,1.653,0,0,0-1.295-.551,1.653,1.653,0,0,0-1.289.51,2.042,2.042,0,0,0-.463,1.424,2.193,2.193,0,0,0,.466,1.5,1.67,1.67,0,0,0,1.321.527,1.641,1.641,0,0,0,1.286-.519A2.076,2.076,0,0,0,73.958-2.666Zm.891-2.7V-.094a4.585,4.585,0,0,1-.117,1.242,1.751,1.751,0,0,1-.387.662,2.323,2.323,0,0,1-.917.6,3.6,3.6,0,0,1-1.245.2,2.929,2.929,0,0,1-1.9-.557A2,2,0,0,1,69.57.48H70.6v.07a1.118,1.118,0,0,0,.416.932,1.862,1.862,0,0,0,1.178.328,2.244,2.244,0,0,0,.94-.179,1.292,1.292,0,0,0,.595-.53,1.393,1.393,0,0,0,.176-.463,4.107,4.107,0,0,0,.053-.756v-.9a2.27,2.27,0,0,1-.814.882A2.127,2.127,0,0,1,72.013.17a2.382,2.382,0,0,1-1.86-.785A3,3,0,0,1,69.447-2.7a3.02,3.02,0,0,1,.686-2.083,2.333,2.333,0,0,1,1.834-.771,2.237,2.237,0,0,1,1.172.3,2.093,2.093,0,0,1,.8.888v-1Zm5.78,2.074a1.543,1.543,0,0,0-.472-1.093,1.671,1.671,0,0,0-1.163-.384,1.6,1.6,0,0,0-1.113.4,1.615,1.615,0,0,0-.516,1.075Zm.984.744H77.366v.082a1.964,1.964,0,0,0,.492,1.392,1.67,1.67,0,0,0,1.283.53,1.71,1.71,0,0,0,.973-.29,2.535,2.535,0,0,0,.768-.876l.7.469a2.828,2.828,0,0,1-1.031,1.1,2.81,2.81,0,0,1-1.453.369,2.585,2.585,0,0,1-1.98-.809A2.981,2.981,0,0,1,76.358-2.7a2.9,2.9,0,0,1,.75-2.062,2.52,2.52,0,0,1,1.928-.8,2.423,2.423,0,0,1,1.884.762,2.971,2.971,0,0,1,.694,2.08ZM86.207-.9l.785-.527a1.614,1.614,0,0,0,.563.642,1.476,1.476,0,0,0,.8.214A1.133,1.133,0,0,0,89.087-.8a.714.714,0,0,0,.278-.586.631.631,0,0,0-.19-.469,1.76,1.76,0,0,0-.653-.346l-.152-.053q-1.957-.674-1.957-1.687A1.463,1.463,0,0,1,86.94-5.1a2.035,2.035,0,0,1,1.371-.451,2.414,2.414,0,0,1,1.2.278,1.6,1.6,0,0,1,.715.788l-.744.457a1.247,1.247,0,0,0-.483-.568,1.371,1.371,0,0,0-.741-.2.958.958,0,0,0-.659.226A.736.736,0,0,0,87.338-4q0,.492,1.066.826.2.064.316.1a2.945,2.945,0,0,1,1.216.642,1.324,1.324,0,0,1,.343.952,1.557,1.557,0,0,1-.542,1.233,2.078,2.078,0,0,1-1.415.472,2.665,2.665,0,0,1-1.274-.281A2.085,2.085,0,0,1,86.207-.9Zm6.436-4.459v2.637a2.807,2.807,0,0,0,.343,1.614,1.351,1.351,0,0,0,1.157.46A1.342,1.342,0,0,0,95.295-1.1a2.843,2.843,0,0,0,.337-1.62V-5.361h.938v3.129A2.5,2.5,0,0,1,95.948-.4,2.472,2.472,0,0,1,94.12.229,2.448,2.448,0,0,1,92.3-.4a2.5,2.5,0,0,1-.621-1.834V-5.361ZM98.476,0V-5.361h.814v1.113a2.838,2.838,0,0,1,.785-1,1.692,1.692,0,0,1,1.014-.3,1.853,1.853,0,0,1,.316.026,1.944,1.944,0,0,1,.3.079l-.3.826a2.275,2.275,0,0,0-.3-.079,1.463,1.463,0,0,0-.27-.026,1.238,1.238,0,0,0-1.09.524,2.787,2.787,0,0,0-.363,1.579V0Zm7.81-7.945a.643.643,0,0,1,.2-.472.65.65,0,0,1,.478-.2.638.638,0,0,1,.472.2.66.66,0,0,1,.2.48.638.638,0,0,1-.193.469.645.645,0,0,1-.475.193.655.655,0,0,1-.478-.193A.647.647,0,0,1,106.287-7.945ZM106.5,0V-5.361h.926V0Zm2.979,0V-5.361h.9v.826a2.25,2.25,0,0,1,.832-.768,2.412,2.412,0,0,1,1.125-.252,2.072,2.072,0,0,1,1.482.5,1.834,1.834,0,0,1,.533,1.4V0h-.937V-3.158a1.811,1.811,0,0,0-.343-1.21,1.326,1.326,0,0,0-1.058-.4,1.823,1.823,0,0,0-.747.149,1.478,1.478,0,0,0-.56.425,1.3,1.3,0,0,0-.243.48,4.079,4.079,0,0,0-.073.938V0Zm6.946-4.605h-.984v-.756h.984V-7.523h.938v2.162h.984v.756h-.984V0h-.937Zm6.888,1.318a1.543,1.543,0,0,0-.472-1.093,1.671,1.671,0,0,0-1.163-.384,1.6,1.6,0,0,0-1.113.4,1.615,1.615,0,0,0-.516,1.075Zm.984.744h-4.248v.082a1.964,1.964,0,0,0,.492,1.392,1.67,1.67,0,0,0,1.283.53,1.71,1.71,0,0,0,.973-.29,2.535,2.535,0,0,0,.768-.876l.7.469a2.828,2.828,0,0,1-1.031,1.1,2.81,2.81,0,0,1-1.453.369A2.585,2.585,0,0,1,119.8-.58a2.981,2.981,0,0,1-.756-2.121,2.9,2.9,0,0,1,.75-2.062,2.52,2.52,0,0,1,1.928-.8,2.423,2.423,0,0,1,1.884.762,2.971,2.971,0,0,1,.694,2.08ZM125.816,0V-5.361h.814v1.113a2.838,2.838,0,0,1,.785-1,1.692,1.692,0,0,1,1.014-.3,1.853,1.853,0,0,1,.316.026,1.944,1.944,0,0,1,.3.079l-.3.826a2.275,2.275,0,0,0-.3-.079,1.463,1.463,0,0,0-.27-.026,1.238,1.238,0,0,0-1.09.524,2.787,2.787,0,0,0-.363,1.579V0Zm4.321,0V-5.361h.9v.826a2.25,2.25,0,0,1,.832-.768,2.412,2.412,0,0,1,1.125-.252,2.072,2.072,0,0,1,1.482.5,1.834,1.834,0,0,1,.533,1.4V0h-.937V-3.158a1.811,1.811,0,0,0-.343-1.21,1.326,1.326,0,0,0-1.058-.4,1.823,1.823,0,0,0-.747.149,1.478,1.478,0,0,0-.56.425,1.3,1.3,0,0,0-.243.48,4.079,4.079,0,0,0-.073.938V0Zm10.608-3.287a1.543,1.543,0,0,0-.472-1.093,1.671,1.671,0,0,0-1.163-.384,1.6,1.6,0,0,0-1.113.4,1.615,1.615,0,0,0-.516,1.075Zm.984.744h-4.248v.082a1.964,1.964,0,0,0,.492,1.392,1.67,1.67,0,0,0,1.283.53,1.71,1.71,0,0,0,.973-.29A2.535,2.535,0,0,0,141-1.705l.7.469a2.828,2.828,0,0,1-1.031,1.1,2.81,2.81,0,0,1-1.453.369,2.585,2.585,0,0,1-1.98-.809,2.981,2.981,0,0,1-.756-2.121,2.9,2.9,0,0,1,.75-2.062,2.52,2.52,0,0,1,1.928-.8,2.423,2.423,0,0,1,1.884.762,2.971,2.971,0,0,1,.694,2.08Zm1.643-2.062h-.984v-.756h.984V-7.523h.938v2.162h.984v.756h-.984V0h-.937Z" transform="translate(132.703 132.229)" fill="#FFF"></path></g></svg> 