<svg
	viewBox="0 0 179 92" fill="none" xmlns="http://www.w3.org/2000/svg">
  <path d="M91.5234 75.3477H178.629V91.5938H91.5234V75.3477Z" fill="#0B0211"/>
  <path d="M95.2539 78.7188H97.7969L99.4688 83.2969C99.6719 83.9062 99.8555 84.5664 100.059 85.2031H100.125C100.328 84.5664 100.508 83.9062 100.711 83.2969L102.332 78.7188H104.871V89.0273H102.754V85.2422C102.754 84.2383 102.941 82.7383 103.047 81.7383H102.984L102.141 84.1797L100.684 88.1289H99.3906L97.9336 84.1797L97.1133 81.7383H97.0508C97.1602 82.7383 97.3477 84.2344 97.3477 85.2422V89.0273H95.2578V78.7188H95.2539Z" fill="white"/>
  <path d="M107.297 78.7188H113.754V80.6719H109.629V82.7422H113.141V84.6992H109.629V87.0742H113.91V89.0312H107.297V78.7188Z" fill="white"/>
  <path d="M115.957 78.7188H118.344L121.035 83.8438L122.055 86.1094H122.117C122.008 85.0195 121.82 83.5742 121.82 82.3594V78.7148H124.039V89.0234H121.652L118.965 83.8828L117.945 81.6289H117.883C117.992 82.7695 118.18 84.1484 118.18 85.3672V89.0234H115.957V78.7188Z" fill="white"/>
  <path d="M126.41 84.25V78.7188H128.738V84.4883C128.738 86.5078 129.375 87.2031 130.527 87.2031C131.687 87.2031 132.355 86.5039 132.355 84.4883V78.7188H134.598V84.25C134.598 87.7109 133.195 89.2188 130.527 89.2188C127.863 89.2188 126.41 87.7109 126.41 84.25Z" fill="white"/>
  <path d="M136.977 78.7188H139.305V89.0273H136.977V78.7188Z" fill="white"/>
  <path d="M141.07 87.7305L142.41 86.1328C143.141 86.7695 144.09 87.207 144.938 87.207C145.91 87.207 146.387 86.8242 146.387 86.2109C146.387 85.5625 145.801 85.3555 144.898 84.9844L143.562 84.4102C142.496 83.9766 141.48 83.0977 141.48 81.6016C141.48 79.8906 143.008 78.5273 145.152 78.5273C146.34 78.5273 147.578 78.9961 148.469 79.8789L147.293 81.3438C146.613 80.8242 145.969 80.5391 145.156 80.5391C144.352 80.5391 143.84 80.875 143.84 81.4609C143.84 82.0937 144.516 82.3242 145.414 82.6836L146.727 83.2148C147.984 83.7227 148.77 84.5625 148.77 86.0195C148.77 87.7305 147.344 89.2148 144.891 89.2148C143.543 89.2187 142.121 88.7109 141.07 87.7305Z" fill="white"/>
  <path d="M150.523 78.7188H152.852V89.0273H150.523V78.7188Z" fill="white"/>
  <path d="M155.277 78.7188H161.734V80.6719H157.609V82.7422H161.121V84.6992H157.609V87.0742H161.895V89.0312H155.277V78.7188Z" fill="white"/>
  <path d="M163.941 78.7188H167.648C169.836 78.7188 171.625 79.4766 171.625 81.9258C171.625 84.2969 169.836 85.3164 167.648 85.3164H166.27V89.0273H163.941V78.7188ZM167.461 83.4688C168.687 83.4688 169.344 82.9414 169.344 81.9258C169.344 80.9102 168.687 80.5664 167.461 80.5664H166.27V83.4688H167.461ZM167.227 84.7031L168.836 83.2109L172.125 89.0273H169.52L167.227 84.7031Z" fill="white"/>
  <path d="M0.882812 0.722656H26.5781L40.2656 37.9102C41.9414 42.9414 43.3359 48.5352 45.0156 53.8477H45.5742C47.25 48.5352 48.6445 42.9414 50.3242 37.9102L63.4492 0.722656H89.1484V91.5938H67.3594V64.75C67.3594 55.5234 69.3125 41.4023 70.4297 32.3164H69.8711L62.3281 54.125L51.1523 84.1797H38.3047L27.1328 54.125L19.8711 32.3164H19.3086C20.4258 41.4023 22.3789 55.5234 22.3789 64.75V91.5938H0.871094V0.722656H0.882812Z" fill="white"/>
  <path d="M91.5078 26.5273V0.871094L141.832 29.0664L126.613 44.5664L91.5078 26.5273ZM91.5078 73.293V50.3086H120.609V40.4219C120.609 21.7148 129.285 5.67969 150.242 5.67969C171.867 5.67969 178.273 21.7148 178.273 40.4219V73.293H91.5078ZM138.762 50.3086H160.121V42.0234C160.121 32.9375 157.719 28.1289 150.246 28.1289C142.77 28.1289 138.766 32.9414 138.766 42.0234V50.3086H138.762Z" fill="white"/>
  </svg>
  