<svg width="204" height="205" viewBox="0 0 204 205" fill="none" xmlns="http://www.w3.org/2000/svg">
<path d="M0.0898438 0.719971L16.0699 135.85C16.0699 135.85 24.3398 204.82 100.87 204.82H103.02C179.83 204.82 187.82 135.85 187.82 135.85L203.8 0.719971H0.0898438ZM175.56 128.39C175.56 128.39 171.31 192.1 101.94 192.1C32.2898 192.1 28.3199 128.39 28.3199 128.39L14.7299 13.43H189.15L175.56 128.39Z" fill="#FFF"/>
<path d="M127.039 87.6498C127.039 108.55 144.379 109.48 144.379 109.48H169.889V87.6498H156.659V97.9398H148.749C148.749 97.9398 140.589 98.3398 140.579 87.6498C140.569 77.6298 148.299 78.4799 148.299 78.4799L169.889 78.4698V67.5298H144.179C144.189 67.5398 127.039 66.7498 127.039 87.6498Z" fill="#FFF"/>
<path d="M109.869 87.3201C109.869 87.3201 110.629 99.3201 100.939 99.3201H100.769C91.0894 99.3201 91.8394 87.3201 91.8394 87.3201V67.55L78.8594 67.54V91.61C78.8594 91.61 78.7994 110.34 100.759 110.34H100.939C122.899 110.34 122.839 91.61 122.839 91.61V67.54L109.849 67.55V87.3201H109.869Z" fill="#FFF"/>
<path d="M73.8102 79.61V67.5701L34.9402 67.55V78.5H55.2603L33.9902 97.9501V109.49H74.5703V97.9501H53.7402L73.8102 79.61Z" fill="#FFF"/>
<path d="M100.88 52.4299L89.1697 23.6499L76.1797 23.6599L92.5697 64.2099H109.16L125.55 23.6599L112.56 23.6499L100.88 52.4299Z" fill="#FFF"/>
</svg>
