<svg fill="none" height="205" viewBox="0 0 204 205" width="204" xmlns="http://www.w3.org/2000/svg"><g fill="#fff"><path d="m.0898438.719971 15.9800562 135.130029s8.2699 68.97 84.8001 68.97h2.15c76.81 0 84.8-68.97 84.8-68.97l15.98-135.130029zm175.4701562 127.670029s-4.25 63.71-73.62 63.71c-69.6502 0-73.6201-63.71-73.6201-63.71l-13.59-114.96h174.4201z"/><path d="m127.039 87.6498c0 20.9002 17.34 21.8302 17.34 21.8302h25.51v-21.8302h-13.23v10.29h-7.91s-8.16.4-8.17-10.29c-.01-10.02 7.72-9.1699 7.72-9.1699l21.59-.0101v-10.94h-25.71c.01.01-17.14-.78-17.14 20.12z"/><path d="m109.869 87.3201s.76 12-8.93 12h-.17c-9.6796 0-8.9296-12-8.9296-12v-19.7701l-12.98-.01v24.07s-.06 18.73 21.8996 18.73h.18c21.96 0 21.9-18.73 21.9-18.73v-24.07l-12.99.01v19.7701z"/><path d="m73.8102 79.61v-12.0399l-38.87-.0201v10.95h20.3201l-21.2701 19.4501v11.5399h40.5801v-11.5399h-20.8301z"/><path d="m100.88 52.4299-11.7103-28.78-12.99.01 16.39 40.55h16.5903l16.39-40.55-12.99-.01z"/></g></svg>