<svg height="27.139" viewBox="0 0 39.038 27.139" width="39.038" xmlns="http://www.w3.org/2000/svg"><path d="m24.933 6.776a6.332 6.332 0 0 1 4.917-.5 10.527 10.527 0 0 1 5.439 4.322 23.969 23.969 0 0 1 3.749 13.2c-.034 2.6-.486 5.412-2.255 7.436-2.2 2.506-6.425 2.455-8.859.312a25.1 25.1 0 0 1 -4.656-6.249c-1.284-2.138-2.432-4.356-3.7-6.5-2.466 4.172-4.4 8.779-7.837 12.281a6.682 6.682 0 0 1 -9.405-.044 10.3 10.3 0 0 1 -2.326-6.834 24.082 24.082 0 0 1 3.328-12.9 11.749 11.749 0 0 1 5.018-4.69 7.7 7.7 0 0 1 7.005.508 16.8 16.8 0 0 1 4.649 4.542 16.163 16.163 0 0 1 4.936-4.884m-.51 4.324a17.124 17.124 0 0 0 -2.591 3.453c2.625 3.908 4.769 8.121 7.428 12.009a4.007 4.007 0 0 0 2.5 1.976 2.532 2.532 0 0 0 2.637-1.179c.868-1.52.761-3.349.7-5.031a20.313 20.313 0 0 0 -2.717-9.574 6.359 6.359 0 0 0 -4.191-3.164 4.415 4.415 0 0 0 -3.766 1.51m-14.972-.249a8.716 8.716 0 0 0 -3.232 3.809 20.95 20.95 0 0 0 -2.047 8.891 6.516 6.516 0 0 0 .964 3.918 2.39 2.39 0 0 0 2.224.954c1.47-.015 2.482-1.242 3.307-2.3 1.772-2.395 3.242-4.993 4.861-7.489.621-1.073 1.421-2.082 1.931-3.189a17.115 17.115 0 0 0 -3.8-4.237 3.994 3.994 0 0 0 -4.2-.351" fill="#2d313c" transform="translate(0 -5.993)"/></svg>