<?xml version="1.0" encoding="UTF-8"?><svg xmlns="http://www.w3.org/2000/svg" width="1000" height="1000" viewBox="0 0 1000 1000" fill="none" version="1.2" baseProfile="tiny-ps"><title>Beavers</title><rect width="1000" height="1000" fill="#8013BD"></rect><path d="M563.878 525.62C562.973 524.99 561.952 524.545 560.875 524.31C559.798 524.074 558.685 524.054 557.6 524.249C556.515 524.445 555.478 524.852 554.551 525.448C553.623 526.044 552.822 526.817 552.194 527.723L550.102 530.725C548.593 532.893 547.425 535.278 546.638 537.799C545.891 540.19 545.512 542.682 545.514 545.187C545.517 548.481 546.163 551.744 547.414 554.791C548.64 557.778 550.409 560.512 552.632 562.854C554.975 565.334 557.799 567.311 560.931 568.664C564.063 570.017 567.438 570.719 570.85 570.726C572.228 570.722 573.604 570.613 574.966 570.4L654.146 557.861L654.382 576.866C654.426 579.995 655.402 583.04 657.185 585.611C658.967 588.183 661.476 590.165 664.39 591.305L688.658 600.74L697.508 604.181C699.337 604.91 701.286 605.292 703.255 605.306C705.372 605.307 707.466 604.87 709.406 604.024C712.167 602.831 714.533 600.882 716.232 598.401C717.988 595.821 718.928 592.773 718.931 589.652C718.926 587.413 718.443 585.201 717.514 583.163L700.893 546.222C694.971 533.114 685.392 521.993 673.306 514.194C661.22 506.395 647.141 502.248 632.757 502.252H631.632C631.615 499.174 631.363 496.103 630.879 493.064L631.913 493.199C637.714 493.867 643.55 494.183 649.389 494.144C660.938 494.144 673.004 493.199 684.565 492.266C690.323 491.805 695.912 491.343 701.174 491.006C706.437 490.669 711.374 490.444 715.794 490.444C723.756 490.514 731.652 489.004 739.027 486.002C745.363 483.367 751.181 479.628 756.21 474.959C757.022 474.211 757.68 473.312 758.144 472.31C758.608 471.309 758.871 470.226 758.917 469.124C758.963 468.021 758.791 466.92 758.412 465.883C758.032 464.847 757.452 463.896 756.705 463.083C755.958 462.271 755.058 461.614 754.057 461.15C753.055 460.685 751.973 460.422 750.87 460.377C749.767 460.331 748.666 460.502 747.63 460.882C746.593 461.261 745.642 461.841 744.83 462.589C741.26 465.918 737.124 468.584 732.617 470.461C727.261 472.63 721.527 473.708 715.749 473.632C710.801 473.632 705.549 473.879 700.084 474.228C691.886 474.756 683.215 475.543 674.579 476.184C665.942 476.825 657.339 477.309 649.378 477.309C644.227 477.354 639.078 477.084 633.96 476.499C629.833 476.053 625.77 475.14 621.848 473.778C620.332 473.22 618.688 473.11 617.111 473.463C615.534 473.816 614.093 474.616 612.96 475.767C611.826 476.919 611.049 478.372 610.721 479.954C610.392 481.536 610.527 483.179 611.109 484.686L611.874 486.654C613.824 491.675 614.83 497.012 614.842 502.398C614.844 504.688 614.663 506.974 614.303 509.235C614.111 510.434 614.181 511.661 614.509 512.83C614.838 513.999 615.416 515.083 616.204 516.006C616.992 516.93 617.971 517.672 619.074 518.181C620.176 518.689 621.376 518.952 622.591 518.951H632.712C643.871 518.948 654.794 522.165 664.169 528.218C673.545 534.27 680.974 542.899 685.566 553.07L701.085 587.47L694.72 584.996L671.104 575.831L670.857 556.309C670.833 554.205 670.382 552.127 669.53 550.203C668.3 547.415 666.287 545.043 663.736 543.376C661.185 541.71 658.205 540.819 655.158 540.813C654.337 540.815 653.517 540.879 652.706 541.004L572.301 553.734C571.806 553.812 571.306 553.853 570.805 553.857C570.169 553.857 569.535 553.785 568.916 553.644C567.33 553.271 565.89 552.438 564.777 551.248C563.992 550.425 563.37 549.459 562.944 548.403C562.514 547.378 562.292 546.277 562.292 545.165C562.291 544.349 562.412 543.538 562.652 542.758C562.938 541.876 563.355 541.042 563.889 540.284L565.981 537.282C567.251 535.454 567.744 533.197 567.352 531.007C566.96 528.816 565.714 526.871 563.889 525.597L563.878 525.62Z" fill="white"></path><path d="M311.774 592.711C302.923 605.542 297.117 620.225 294.798 635.639C292.479 651.054 293.708 666.795 298.392 681.663C299.03 683.695 299.738 685.708 300.518 687.702C300.518 687.814 300.608 687.915 300.653 688.028C304.072 696.792 308.685 705.041 314.361 712.543L314.473 712.667C323.998 725.225 336.304 735.405 350.424 742.408C364.545 749.41 380.096 753.045 395.857 753.027H571.85C574.151 753.03 576.426 752.552 578.53 751.621C580.026 750.958 581.411 750.066 582.635 748.979C584.376 747.423 585.768 745.517 586.72 743.385C587.671 741.253 588.161 738.943 588.156 736.609C588.155 734.334 587.676 732.085 586.75 730.008C585.745 727.805 584.266 725.851 582.421 724.284L573.425 716.569C556.711 702.33 535.465 694.523 513.508 694.55H488.262C494.735 680.888 498.084 665.957 498.068 650.839C498.068 649.163 498.012 647.465 497.933 645.823C499.71 643.109 501.404 640.336 503.016 637.502C514.366 617.31 529.497 599.491 547.582 585.019C548.444 584.332 549.162 583.482 549.695 582.518C550.229 581.554 550.567 580.494 550.691 579.399C550.814 578.304 550.721 577.196 550.416 576.137C550.112 575.078 549.602 574.089 548.915 573.228C548.228 572.366 547.378 571.648 546.414 571.115C545.45 570.581 544.39 570.243 543.295 570.119C542.2 569.996 541.092 570.089 540.033 570.394C538.974 570.698 537.986 571.208 537.124 571.895C517.348 587.704 500.804 607.177 488.397 629.247C486.553 632.516 484.577 635.687 482.471 638.761C481.371 640.344 480.859 642.261 481.02 644.182C481.192 646.363 481.279 648.586 481.279 650.85C481.308 667.74 476.3 684.255 466.895 698.284C466.051 699.548 465.565 701.017 465.49 702.536C465.415 704.054 465.753 705.564 466.469 706.905C467.184 708.246 468.251 709.368 469.554 710.151C470.857 710.934 472.348 711.349 473.868 711.351H513.508C531.463 711.344 548.831 717.748 562.483 729.412L570.512 736.26H395.857C382.661 736.279 369.64 733.232 357.822 727.36C346.003 721.488 335.71 712.951 327.754 702.422L327.687 702.355C322.906 696.038 319.03 689.085 316.171 681.697C316.16 681.646 316.141 681.596 316.115 681.55C315.497 679.954 314.923 678.323 314.406 676.67C310.491 664.246 309.462 651.092 311.399 638.211C313.336 625.329 318.188 613.06 325.584 602.337C326.247 601.432 326.721 600.403 326.98 599.311C327.238 598.22 327.275 597.087 327.089 595.981C326.903 594.875 326.497 593.817 325.895 592.87C325.294 591.923 324.509 591.107 323.586 590.468C322.664 589.83 321.623 589.383 320.525 589.153C319.427 588.923 318.294 588.916 317.193 589.131C316.092 589.346 315.045 589.78 314.115 590.406C313.184 591.033 312.388 591.839 311.774 592.778V592.711Z" fill="white"></path><path d="M308.582 438.298C285.716 450.549 266.513 468.653 252.939 490.759C238.965 513.476 231.569 539.624 231.572 566.295V566.576C231.572 570.857 231.763 575.093 232.146 579.284C235.129 612.861 249.751 644.341 273.484 668.281C275.05 669.871 277.183 670.773 279.415 670.79C281.646 670.807 283.793 669.937 285.382 668.371C286.972 666.805 287.874 664.672 287.891 662.441C287.908 660.209 287.038 658.063 285.472 656.473C264.477 635.302 251.548 607.455 248.924 577.754C248.587 574.006 248.418 570.201 248.418 566.34V566.351C248.394 542.78 254.919 519.666 267.266 499.586C279.273 480.017 296.269 463.991 316.51 453.154C318.341 452.039 319.677 450.267 320.244 448.2C320.811 446.133 320.566 443.928 319.56 442.035C318.554 440.142 316.863 438.706 314.832 438.02C312.802 437.333 310.586 437.449 308.638 438.343L308.582 438.298Z" fill="white"></path><path d="M782.952 436.049C782.637 436.673 782.206 437.23 781.681 437.691C780.548 438.688 779.23 439.452 777.801 439.94C775.935 440.6 773.967 440.931 771.987 440.918C770.431 440.925 768.88 440.725 767.377 440.322C766.251 440.018 765.167 439.576 764.149 439.007C763.049 438.422 762.092 437.6 761.349 436.6C761.14 436.298 760.973 435.969 760.854 435.622C760.768 435.364 760.722 435.095 760.719 434.823C760.699 434.659 760.699 434.493 760.719 434.329C760.828 433.878 760.899 433.419 760.933 432.957C761.403 432.666 761.843 432.331 762.249 431.956C763.381 430.964 764.695 430.2 766.117 429.707C767.988 429.047 769.959 428.716 771.942 428.728C773.691 428.721 775.431 428.975 777.104 429.482C778.152 429.804 779.157 430.253 780.095 430.82C781.106 431.396 781.977 432.187 782.648 433.137C782.839 433.422 782.991 433.732 783.098 434.059C783.182 434.309 783.224 434.571 783.222 434.835C783.212 435.253 783.108 435.665 782.918 436.038L782.952 436.049ZM795.277 421.981C792.509 418.718 789 416.165 785.043 414.536C780.904 412.811 776.461 411.932 771.976 411.95C768.036 411.938 764.125 412.611 760.416 413.94C758.833 414.518 757.301 415.229 755.839 416.066L741.073 408.621C738.026 407.081 734.922 405.675 731.796 404.359C730.794 396.96 728.623 389.767 725.363 383.049C719.246 370.364 709.507 358.995 697.249 349.83C684.112 340.21 669.108 333.445 653.201 329.97C644.46 327.981 635.524 326.97 626.56 326.956H624.839C623.449 323.622 621.817 320.394 619.959 317.296C616.1 310.669 610.962 304.874 604.845 300.248C601.986 298.129 598.849 296.415 595.522 295.154C592.228 293.901 588.735 293.25 585.21 293.231C582.456 293.224 579.719 293.657 577.102 294.513C573.486 295.713 570.175 297.685 567.397 300.293C565.363 302.206 563.596 304.384 562.146 306.77C559.934 310.431 558.31 314.415 557.332 318.578C556.28 322.999 555.759 327.529 555.781 332.073C555.824 339.088 556.877 346.061 558.907 352.776C553.251 358.458 548.678 365.123 545.412 372.444L542.241 373.67L462.915 404.359C444.409 411.527 425.12 416.479 405.45 419.113C403.786 419.338 402.133 419.529 400.468 419.721C402.678 402.529 403.879 385.222 404.067 367.89C404.187 355.092 403.057 342.312 400.693 329.734C398.988 320.831 396.267 312.152 392.585 303.869C387.062 291.424 378.765 280.407 368.329 271.662C357.533 262.665 343.937 255.581 327.316 250.79C318.913 248.331 310.207 247.055 301.451 247C293.499 246.978 285.589 248.165 277.993 250.52C266.849 254.059 256.602 259.967 247.956 267.838C238.856 276.175 231.213 285.974 225.341 296.829C216.57 312.416 210.284 330.768 206.134 350.808C201.935 371.871 199.882 393.306 200.005 414.784C200.005 424.061 200.354 433.44 201.04 442.898C202.803 467.752 206.594 492.421 212.375 516.657C212.598 517.762 213.041 518.81 213.677 519.74C214.314 520.67 215.13 521.462 216.079 522.07C217.028 522.678 218.09 523.088 219.2 523.277C220.311 523.466 221.449 523.43 222.545 523.171C223.642 522.911 224.675 522.433 225.583 521.766C226.491 521.099 227.256 520.256 227.831 519.288C228.407 518.319 228.782 517.245 228.934 516.128C229.086 515.012 229.011 513.876 228.715 512.789C223.12 489.419 219.45 465.63 217.739 441.661C217.087 432.664 216.761 423.668 216.761 414.829C216.641 394.477 218.581 374.165 222.553 354.204C226.421 335.492 232.269 318.702 239.961 305.072V305.016C243.39 298.738 247.476 292.842 252.151 287.428C258.348 280.15 265.947 274.195 274.496 269.919C282.875 265.847 292.079 263.758 301.395 263.812C308.595 263.863 315.753 264.919 322.66 266.95C335.795 270.74 346.209 275.946 354.53 282.176C360.506 286.642 365.743 292.02 370.049 298.111C376.324 307.007 380.62 317.352 383.364 329.082C386.108 340.811 387.244 353.878 387.244 367.924C387.244 386.558 385.231 406.878 382.487 427.997C382.325 429.231 382.44 430.485 382.823 431.669C383.206 432.853 383.847 433.937 384.701 434.842C385.555 435.748 386.599 436.452 387.759 436.904C388.918 437.356 390.163 437.544 391.404 437.455C396.84 437.065 402.245 436.51 407.62 435.791C428.607 432.981 449.187 427.696 468.931 420.047L548.257 389.358L554.802 386.816C555.913 386.385 556.919 385.723 557.755 384.874C558.59 384.025 559.236 383.008 559.649 381.891C562.636 374.012 567.568 367.017 573.987 361.559C575.284 360.436 576.205 358.942 576.625 357.278C577.045 355.615 576.945 353.863 576.337 352.259C576.011 351.381 575.696 350.538 575.426 349.717C573.527 344.042 572.533 338.103 572.48 332.118C572.465 329.247 572.751 326.382 573.335 323.571C573.947 320.307 575.238 317.207 577.125 314.474C577.819 313.513 578.649 312.657 579.587 311.932C580.391 311.315 581.292 310.836 582.253 310.515C583.172 310.219 584.132 310.068 585.098 310.065C587.247 310.128 589.354 310.678 591.26 311.673C593.218 312.663 595.046 313.891 596.703 315.328C599.854 318.038 602.597 321.189 604.845 324.685C607.477 328.824 609.578 333.279 611.097 337.943C611.097 337.943 611.097 338.078 611.187 338.247C611.77 340.023 612.93 341.554 614.482 342.595C616.035 343.637 617.892 344.129 619.756 343.993C622.006 343.836 624.255 343.746 626.639 343.746C634.358 343.757 642.053 344.628 649.58 346.343C668.832 350.684 685.194 359.939 696.743 371.567C702.258 377.039 706.819 383.394 710.238 390.37C713.357 396.69 715.166 403.575 715.557 410.612C715.633 412.25 716.187 413.829 717.15 415.156C718.114 416.483 719.444 417.499 720.978 418.079C725.254 419.688 729.439 421.527 733.516 423.589L744.762 429.279C744.635 429.61 744.526 429.948 744.436 430.291C744.071 431.763 743.886 433.273 743.885 434.79C743.887 437.501 744.453 440.182 745.549 442.662C746.337 444.435 747.358 446.095 748.585 447.598C750.398 449.792 752.569 451.663 755.007 453.131C757.476 454.627 760.145 455.763 762.935 456.505C765.867 457.299 768.893 457.7 771.931 457.697C775.868 457.712 779.776 457.039 783.48 455.706C787.004 454.453 790.244 452.515 793.017 450.005C795.087 448.11 796.784 445.844 798.021 443.325C799.315 440.673 799.992 437.763 800 434.812C800 433.064 799.761 431.323 799.292 429.639C798.489 426.821 797.106 424.201 795.232 421.947L795.277 421.981Z" fill="white"></path><path d="M674.962 403.786C682.17 402.144 690.447 403.167 693.067 400.491C695.923 398.028 688.962 386.22 673.949 384.747C658.79 383.555 651.065 395.633 655.844 400.491C660.399 405.517 667.922 404.764 674.962 403.786Z" fill="#00FFDA"></path><path d="M332.31 584.558C333.969 584.558 335.591 584.066 336.971 583.144C338.35 582.222 339.426 580.912 340.061 579.379C340.696 577.846 340.862 576.159 340.538 574.532C340.214 572.904 339.415 571.41 338.242 570.236C337.069 569.063 335.574 568.264 333.947 567.94C332.319 567.617 330.633 567.783 329.1 568.418C327.567 569.053 326.257 570.128 325.335 571.508C324.413 572.887 323.921 574.509 323.921 576.168C323.921 577.27 324.138 578.361 324.559 579.379C324.981 580.397 325.599 581.322 326.378 582.101C327.157 582.88 328.082 583.497 329.1 583.919C330.117 584.341 331.208 584.558 332.31 584.558Z" fill="#00FFDA"></path></svg>